<svg xmlns:xlink="http://www.w3.org/1999/xlink" height="34px" width="70px" xmlns="http://www.w3.org/2000/svg" data-current-frame="" data-user-id="$id">
  <g transform="matrix(1.0, 0.0, 0.0, 1.0, 33.9, 33.9)" data-frame="0">
    <path d="M19.15 -18.55 L19.7 -19.05 Q21.05 -17.85 21.6 -16.65 22.25 -15.3 22.25 -13.5 22.25 -11.95 21.6 -10.55 21.0 -9.3 19.7 -7.9 L19.45 -8.15 19.15 -8.45 Q20.45 -9.8 20.95 -10.95 21.5 -12.15 21.5 -13.5 21.5 -15.15 20.95 -16.3 20.45 -17.4 19.15 -18.55 M-17.8 -8.15 L-18.1 -7.9 Q-19.4 -9.3 -20.0 -10.55 -20.65 -11.95 -20.65 -13.5 -20.65 -15.3 -20.0 -16.65 -19.45 -17.85 -18.1 -19.05 L-17.55 -18.55 Q-18.85 -17.4 -19.35 -16.3 -19.9 -15.15 -19.9 -13.5 -19.9 -12.15 -19.35 -10.95 -18.85 -9.8 -17.55 -8.45 L-17.8 -8.15 M-16.4 -23.7 L-11.75 -33.9 -7.1 -23.7 -7.55 -23.45 -8.05 -23.25 -11.75 -31.35 -15.45 -23.25 -16.4 -23.7 M-5.3 -22.75 L7.65 -22.75 7.65 -22.15 -5.3 -22.15 -5.3 -22.75 M9.6 -23.7 L14.25 -33.9 18.9 -23.7 17.95 -23.25 14.25 -31.35 10.55 -23.25 9.6 -23.7 M6.65 -17.05 L4.1 -19.3 5.95 -19.3 7.8 -17.05 6.65 -17.05 M1.15 -17.4 L-3.5 -8.9 -8.15 -17.4 -7.2 -17.95 -6.05 -15.85 -0.95 -15.85 0.2 -17.95 1.15 -17.4 M-5.55 -14.8 L-3.5 -11.2 -1.45 -14.8 -5.55 -14.8 M-11.4 -19.3 L-14.0 -17.05 -15.2 -17.05 -13.25 -19.3 -11.4 -19.3" fill="#000000" fill-rule="evenodd" stroke="none"/>
    <path d="M19.45 -8.15 Q18.05 -7.2 17.35 -6.1 17.75 -4.6 18.95 -3.0 L-17.45 -3.0 -15.8 -5.55 Q-16.75 -7.1 -17.8 -8.15 L-17.55 -8.45 Q-18.85 -9.8 -19.35 -10.95 -19.9 -12.15 -19.9 -13.5 -19.9 -15.15 -19.35 -16.3 -18.85 -17.4 -17.55 -18.55 L-18.1 -19.05 -16.4 -23.7 -15.45 -23.25 -11.75 -31.35 -8.05 -23.25 -7.55 -23.45 -5.3 -22.75 -5.3 -22.15 7.65 -22.15 7.65 -22.75 Q8.7 -23.1 9.6 -23.7 L10.55 -23.25 14.25 -31.35 17.95 -23.25 18.9 -23.7 Q18.55 -20.6 19.15 -18.55 20.45 -17.4 20.95 -16.3 21.5 -15.15 21.5 -13.5 21.5 -12.15 20.95 -10.95 20.45 -9.8 19.15 -8.45 L19.45 -8.15 M-11.4 -19.3 L-13.25 -19.3 -15.2 -17.05 -14.0 -17.05 -11.4 -19.3 M-5.55 -14.8 L-1.45 -14.8 -3.5 -11.2 -5.55 -14.8 M1.15 -17.4 L0.2 -17.95 -0.95 -15.85 -6.05 -15.85 -7.2 -17.95 -8.15 -17.4 -3.5 -8.9 1.15 -17.4 M6.65 -17.05 L7.8 -17.05 5.95 -19.3 4.1 -19.3 6.65 -17.05" fill="#ffffff" fill-rule="evenodd" stroke="none"/>
  </g>
  <g transform="matrix(1.0, 0.0, 0.0, 1.0, 33.9, 33.9)">
    <path d="M4.4 -2.05 L1.85 -4.3 3.7 -4.3 5.55 -2.05 4.4 -2.05 M10.9 -2.05 L8.35 -4.3 10.2 -4.3 12.05 -2.05 10.9 -2.05 M17.4 -2.05 L14.85 -4.3 16.7 -4.3 18.55 -2.05 17.4 -2.05 M21.0 -3.0 L22.2 -3.0 22.2 -1.85 21.5 -0.35 21.0 -0.35 21.5 -1.85 21.0 -1.85 21.0 -3.0 M23.65 -3.0 L24.85 -3.0 24.85 -1.85 24.15 -0.35 23.65 -0.35 24.15 -1.85 23.65 -1.85 23.65 -3.0 M27.5 -1.85 L26.8 -0.35 26.3 -0.35 26.8 -1.85 26.3 -1.85 26.3 -3.0 27.5 -3.0 27.5 -1.85 M28.95 -0.35 L29.45 -1.85 28.95 -1.85 28.95 -3.0 30.15 -3.0 30.15 -1.85 29.45 -0.35 28.95 -0.35 M32.1 -0.35 L31.6 -0.35 32.1 -1.85 31.6 -1.85 31.6 -3.0 32.8 -3.0 32.8 -1.85 32.1 -0.35 M34.25 -0.35 L34.75 -1.85 34.25 -1.85 34.25 -3.0 35.45 -3.0 35.45 -1.85 34.75 -0.35 34.25 -0.35 M-33.9 -3.0 L-32.7 -3.0 -32.7 -1.85 -33.4 -0.35 -33.9 -0.35 -33.4 -1.85 -33.9 -1.85 -33.9 -3.0 M-30.75 -1.85 L-31.25 -1.85 -31.25 -3.0 -30.05 -3.0 -30.05 -1.85 -30.75 -0.35 -31.25 -0.35 -30.75 -1.85 M-28.6 -3.0 L-27.4 -3.0 -27.4 -1.85 -28.1 -0.35 -28.6 -0.35 -28.1 -1.85 -28.6 -1.85 -28.6 -3.0 M-25.95 -0.35 L-25.45 -1.85 -25.95 -1.85 -25.95 -3.0 -24.75 -3.0 -24.75 -1.85 -25.45 -0.35 -25.95 -0.35 M-23.3 -0.35 L-22.8 -1.85 -23.3 -1.85 -23.3 -3.0 -22.1 -3.0 -22.1 -1.85 -22.8 -0.35 -23.3 -0.35 M-20.65 -3.0 L-19.45 -3.0 -19.45 -1.85 -20.15 -0.35 -20.65 -0.35 -20.15 -1.85 -20.65 -1.85 -20.65 -3.0 M-15.1 -2.05 L-17.65 -4.3 -15.8 -4.3 -13.95 -2.05 -15.1 -2.05 M-2.8 -4.3 L-0.95 -2.05 -2.1 -2.05 -4.65 -4.3 -2.8 -4.3 M-8.6 -2.05 L-11.15 -4.3 -9.3 -4.3 -7.45 -2.05 -8.6 -2.05" fill="#000000" fill-rule="evenodd" stroke="none"/>
  </g>
  <g transform="matrix(1.0, 0.0, 0.0, 1.0, 9.85, 12.3)" data-frame="1">
    <g transform="matrix(1.0, 0.0, 0.0, 1.0, 0.0, 0.0)">
      <use fill="#000000" height="12.95" transform="matrix(0.2539, 0.0, 0.0, 0.2539, 0.0, 11.0)" width="42.75" xlink:href="#$id0"/>
      <use fill="#000000" height="12.95" transform="matrix(0.2539, 0.0, 0.0, 0.2539, 13.0, 11.0)" width="42.75" xlink:href="#$id0"/>
    </g>
    <g transform="matrix(1.0, 0.0, 0.0, 1.0, 0.0, 0.0)">
      <use fill="#000000" height="12.95" transform="matrix(0.2539, 0.0, 0.0, 0.2539, 26.0, 11.0)" width="42.75" xlink:href="#$id1"/>
    </g>
    <g transform="matrix(1.0, 0.0, 0.0, 1.0, 0.0, 0.0)">
      <use fill="#000000" height="12.95" transform="matrix(0.2539, 0.0, 0.0, 0.2539, 29.05, 11.0)" width="42.75" xlink:href="#$id0"/>
    </g>
    <g transform="matrix(1.0, 0.0, 0.0, 1.0, 0.0, 0.0)">
      <use fill="#000000" height="12.95" transform="matrix(0.2539, 0.0, 0.0, 0.2539, 42.05, 11.0)" width="42.75" xlink:href="#$id1"/>
    </g>
  </g>
  <defs>
    <g id="$id0">
      <path d="M23.6 7.0 L27.6 7.0 27.6 -44.0 23.6 -44.0 23.6 7.0" fill-rule="evenodd" stroke="none"/>
    </g>
    <g id="$id1">
      <path d="M4.0 -43.8 L4.0 7.0 8.0 7.0 8.0 -43.8 4.0 -43.8" fill-rule="evenodd" stroke="none"/>
    </g>
  </defs>
</svg>
