<svg xmlns:xlink="http://www.w3.org/1999/xlink" height="72px" width="49px" xmlns="http://www.w3.org/2000/svg" data-current-frame="0" data-user-id="$id">
  <g transform="matrix(1.0, 0.0, 0.0, 1.0, 20.15, 71.15)" data-frame="0">
    <path d="M-16.35 -47.2 L-15.8 -47.75 Q-18.35 -50.1 -18.35 -53.1 -18.35 -56.1 -15.8 -58.5 L-16.4 -59.1 Q-11.4 -62.95 -6.8 -64.25 L0.55 -64.8 Q5.4 -64.65 7.5 -63.75 12.8 -61.4 15.3 -59.0 L14.8 -58.5 Q17.3 -56.1 17.3 -53.1 17.3 -50.1 14.8 -47.75 L15.4 -47.15 14.95 -46.65 14.75 -46.3 15.1 -45.95 16.6 -45.1 16.9 -44.9 16.9 -44.25 16.85 -44.25 16.85 -30.35 16.9 -30.35 16.9 -30.0 16.8 -29.85 16.8 -28.25 15.9 -28.25 15.9 -14.35 17.0 -14.35 17.05 -14.1 17.3 -12.7 17.5 -11.4 17.55 -11.0 17.6 -9.75 16.65 -9.75 16.65 -3.5 Q16.65 -2.4 16.1 -1.85 15.6 -1.35 14.65 -1.35 13.8 -1.35 13.15 -1.9 12.5 -2.45 12.5 -4.2 L11.35 -4.2 11.25 -4.55 11.05 -4.95 10.9 -5.2 10.7 -5.6 9.7 -7.2 9.2 -7.75 9.85 -8.1 Q8.55 -9.45 7.25 -10.2 5.65 -11.15 3.7 -11.15 1.9 -11.15 0.15 -10.2 -1.4 -9.4 -2.4 -8.1 L-2.7 -8.0 -4.25 -7.05 -4.5 -6.9 -6.2 -6.0 Q-7.1 -5.6 -7.7 -4.85 L-8.15 -4.15 -8.15 -4.25 -9.35 -4.8 Q-9.55 -3.0 -10.15 -2.1 -10.8 -1.05 -12.0 -1.0 -13.55 -0.95 -14.05 -1.45 -14.55 -2.0 -14.55 -3.35 L-14.55 -10.9 -15.65 -10.9 -15.7 -12.5 -15.65 -12.75 Q-15.65 -13.65 -15.3 -14.35 L-14.2 -14.35 -14.2 -28.25 -15.15 -28.25 -15.25 -29.7 -15.3 -29.9 -15.5 -30.1 -15.9 -30.3 -17.4 -31.15 -16.8 -31.75 Q-19.35 -34.1 -19.35 -37.1 -19.35 -40.1 -16.8 -42.5 L-17.3 -43.0 -16.25 -44.25 -16.1 -44.3 -15.45 -44.75 -15.05 -45.2 -14.85 -45.4 Q-14.6 -45.6 -14.75 -45.95 L-14.85 -46.15 -15.55 -46.7 -16.35 -47.2 M-6.1 -63.55 L-6.1 -62.9 -1.9 -62.9 -1.9 -63.55 -6.1 -63.55 M1.95 -54.55 L6.35 -54.55 4.15 -50.65 1.95 -54.55 M1.4 -55.7 L0.15 -57.95 -0.9 -57.35 4.15 -48.2 9.2 -57.35 8.15 -57.95 6.9 -55.7 1.4 -55.7 M-5.35 -58.7 L-5.1 -59.3 -4.5 -59.5 -3.9 -59.3 -3.7 -58.7 -3.9 -58.1 Q-4.15 -57.85 -4.5 -57.85 L-5.1 -58.1 -5.35 -58.7 M-3.65 -59.55 Q-4.0 -59.95 -4.5 -59.95 -5.0 -59.95 -5.4 -59.55 L-5.75 -58.7 Q-5.75 -58.2 -5.4 -57.8 -5.0 -57.45 -4.5 -57.45 -4.0 -57.45 -3.65 -57.8 -3.25 -58.2 -3.25 -58.7 -3.25 -59.2 -3.65 -59.55 M13.6 -57.8 Q14.0 -58.2 14.0 -58.7 14.0 -59.2 13.6 -59.55 13.25 -59.95 12.75 -59.95 12.25 -59.95 11.85 -59.55 11.5 -59.2 11.5 -58.7 11.5 -58.2 11.85 -57.8 12.25 -57.45 12.75 -57.45 13.25 -57.45 13.6 -57.8 M12.75 -57.85 Q12.35 -57.85 12.15 -58.1 11.9 -58.3 11.9 -58.7 11.9 -59.1 12.15 -59.3 L12.75 -59.5 13.35 -59.3 13.55 -58.7 13.35 -58.1 Q13.1 -57.85 12.75 -57.85" fill="#ffffff" fill-rule="evenodd" stroke="none"/>
    <path d="M-6.1 -63.55 L-1.9 -63.55 -1.9 -62.9 -6.1 -62.9 -6.1 -63.55 M-16.4 -59.1 L-15.8 -58.5 Q-18.35 -56.1 -18.35 -53.1 -18.35 -50.1 -15.8 -47.75 L-16.35 -47.2 -16.4 -47.15 -16.5 -47.25 Q-19.15 -49.8 -19.15 -53.1 -19.15 -56.5 -16.4 -59.1 M-17.3 -43.0 L-16.8 -42.5 Q-19.35 -40.1 -19.35 -37.1 -19.35 -34.1 -16.8 -31.75 L-17.4 -31.15 Q-20.15 -33.75 -20.15 -37.1 -20.15 -40.5 -17.4 -43.1 L-17.3 -43.0 M-15.15 -28.25 L-14.2 -28.25 -14.2 -14.35 -15.3 -14.35 -15.3 -28.25 -15.15 -28.25 M-15.65 -10.9 L-14.55 -10.9 -14.55 -3.35 Q-14.55 -2.0 -14.05 -1.45 -13.55 -0.95 -12.0 -1.0 -10.8 -1.05 -10.15 -2.1 -9.55 -3.0 -9.35 -4.8 L-8.15 -4.25 -8.15 -4.15 Q-8.9 0.25 -12.45 0.25 -14.2 0.3 -14.9 -0.6 -15.55 -1.4 -15.65 -3.35 L-15.65 -10.9 M-2.4 -8.1 Q-1.4 -9.4 0.15 -10.2 1.9 -11.15 3.7 -11.15 5.65 -11.15 7.25 -10.2 8.55 -9.45 9.85 -8.1 L9.2 -7.75 Q7.65 -9.15 6.55 -9.7 L3.7 -10.35 Q2.05 -10.35 0.65 -9.7 L-1.9 -7.75 -2.4 -8.1 M11.35 -4.2 L12.5 -4.2 Q12.5 -2.45 13.15 -1.9 13.8 -1.35 14.65 -1.35 15.6 -1.35 16.1 -1.85 16.65 -2.4 16.65 -3.5 L16.65 -9.75 17.6 -9.75 17.9 -9.75 17.9 -3.5 Q17.9 -1.9 17.15 -1.1 16.2 -0.2 14.65 -0.2 13.1 -0.2 12.25 -1.05 11.25 -2.05 11.25 -4.2 L11.35 -4.2 M17.0 -14.35 L15.9 -14.35 15.9 -28.25 16.8 -28.25 16.9 -28.25 16.9 -28.2 17.0 -28.2 17.0 -14.35 M15.4 -47.15 L14.8 -47.75 Q17.3 -50.1 17.3 -53.1 17.3 -56.1 14.8 -58.5 L15.3 -59.0 15.4 -59.1 Q18.1 -56.5 18.1 -53.1 18.1 -49.85 15.55 -47.3 L15.4 -47.15 M-3.65 -59.55 Q-3.25 -59.2 -3.25 -58.7 -3.25 -58.2 -3.65 -57.8 -4.0 -57.45 -4.5 -57.45 -5.0 -57.45 -5.4 -57.8 -5.75 -58.2 -5.75 -58.7 L-5.4 -59.55 Q-5.0 -59.95 -4.5 -59.95 -4.0 -59.95 -3.65 -59.55 M-5.35 -58.7 L-5.1 -58.1 -4.5 -57.85 Q-4.15 -57.85 -3.9 -58.1 L-3.7 -58.7 -3.9 -59.3 -4.5 -59.5 -5.1 -59.3 -5.35 -58.7 M1.4 -55.7 L6.9 -55.7 8.15 -57.95 9.2 -57.35 4.15 -48.2 -0.9 -57.35 0.15 -57.95 1.4 -55.7 M1.95 -54.55 L4.15 -50.65 6.35 -54.55 1.95 -54.55 M12.75 -57.85 Q13.1 -57.85 13.35 -58.1 L13.55 -58.7 13.35 -59.3 12.75 -59.5 12.15 -59.3 Q11.9 -59.1 11.9 -58.7 11.9 -58.3 12.15 -58.1 12.35 -57.85 12.75 -57.85 M13.6 -57.8 Q13.25 -57.45 12.75 -57.45 12.25 -57.45 11.85 -57.8 11.5 -58.2 11.5 -58.7 11.5 -59.2 11.85 -59.55 12.25 -59.95 12.75 -59.95 13.25 -59.95 13.6 -59.55 14.0 -59.2 14.0 -58.7 14.0 -58.2 13.6 -57.8" fill="#000000" fill-rule="evenodd" stroke="none"/>
    <path d="M17.25 -30.3 L16.15 -30.3 16.15 -44.2 17.25 -44.2 17.25 -30.3 M19.35 -43.05 Q22.05 -40.45 22.05 -37.05 22.05 -33.85 19.55 -31.3 L19.35 -31.1 19.3 -31.15 18.75 -31.7 Q21.25 -34.05 21.25 -37.05 21.25 -40.05 18.75 -42.45 L19.35 -43.05" fill="#000000" fill-rule="evenodd" stroke="none"/>
    <path d="M17.25 -44.2 L17.35 -44.25 Q18.6 -43.85 19.35 -43.05 L18.75 -42.45 Q21.25 -40.05 21.25 -37.05 21.25 -34.05 18.75 -31.7 L19.3 -31.15 19.1 -31.05 Q18.4 -30.65 17.5 -30.35 L17.25 -30.3 17.25 -44.2" fill="#ffffff" fill-rule="evenodd" stroke="none"/>
  </g>
  <g transform="matrix(1.0, 0.0, 0.0, 1.0, 20.15, 71.15)" data-frame="1">
    <path d="M18.85 -61.7 L18.65 -61.7 18.65 -66.9 Q18.65 -68.8 19.8 -69.95 21.0 -71.15 22.65 -71.15 24.3 -71.15 25.5 -69.95 26.65 -68.8 26.65 -66.9 L26.65 -61.7 26.1 -61.7 25.6 -61.7 25.6 -66.9 Q25.6 -68.35 24.65 -69.25 23.85 -70.1 22.65 -70.1 21.45 -70.1 20.6 -69.25 19.7 -68.35 19.7 -66.9 L19.7 -61.7 18.85 -61.7 M24.55 -58.4 L22.5 -56.3 21.35 -55.35 Q19.95 -54.35 18.45 -53.7 L17.8 -54.85 Q19.35 -55.5 20.65 -56.45 L21.9 -57.45 22.4 -57.95 24.15 -60.05 25.2 -59.35 Q25.55 -59.05 24.9 -58.85 L24.55 -58.4 M24.0 -55.1 L25.55 -56.95 26.45 -56.3 Q26.9 -56.0 26.35 -55.95 L23.9 -53.35 23.5 -53.0 23.05 -52.65 Q21.6 -51.55 19.95 -50.8 L19.35 -51.85 21.4 -53.0 22.55 -53.85 23.35 -54.5 24.0 -55.1 M25.4 -51.9 Q26.6 -53.05 27.2 -54.35 L28.3 -53.65 Q28.85 -53.3 28.2 -53.25 26.55 -50.2 22.15 -48.05 L22.0 -48.0 21.9 -47.95 20.15 -47.2 19.5 -48.35 21.55 -49.3 24.95 -51.5 25.1 -51.65 25.4 -51.9" fill="#000000" fill-rule="evenodd" stroke="none"/>
    <path d="M26.1 -61.7 L25.95 -59.9 25.85 -59.5 25.7 -59.0 24.55 -58.4 24.9 -58.85 Q25.55 -59.05 25.2 -59.35 L24.15 -60.05 22.4 -57.95 21.9 -57.45 20.45 -57.2 20.65 -56.45 Q19.35 -55.5 17.8 -54.85 L18.45 -53.7 Q19.95 -54.35 21.35 -55.35 L22.5 -56.3 24.0 -56.75 23.35 -56.0 22.8 -55.5 22.75 -55.35 24.0 -55.1 23.35 -54.5 21.15 -53.95 21.4 -53.0 19.35 -51.85 19.95 -50.8 Q21.6 -51.55 23.05 -52.65 L23.5 -53.0 23.9 -53.35 24.95 -53.7 24.25 -52.9 23.7 -52.35 23.2 -51.9 25.4 -51.9 25.1 -51.65 24.95 -51.5 20.4 -50.5 20.75 -49.2 21.55 -49.3 19.5 -48.35 20.15 -47.2 21.9 -47.95 21.85 -47.85 20.9 -46.4 19.65 -45.15 19.45 -45.05 18.0 -43.85 17.45 -43.5 17.2 -43.35 17.05 -43.25 17.0 -43.25 15.25 -43.7 15.1 -43.75 Q14.3 -44.15 13.7 -44.9 L13.5 -45.2 Q13.15 -46.15 13.25 -47.25 L13.5 -48.55 13.6 -48.9 13.7 -49.1 14.25 -49.85 16.65 -52.9 17.1 -53.65 17.0 -53.85 15.85 -54.0 15.7 -54.0 16.8 -54.9 17.65 -55.7 19.0 -57.8 18.75 -57.8 Q18.15 -57.65 17.5 -57.8 L17.95 -58.35 18.6 -60.0 18.75 -60.6 18.85 -61.55 18.85 -61.7 19.7 -61.7 19.7 -66.9 Q19.7 -68.35 20.6 -69.25 21.45 -70.1 22.65 -70.1 23.85 -70.1 24.65 -69.25 25.6 -68.35 25.6 -66.9 L25.6 -61.7 26.1 -61.7" fill="#ffffff" fill-rule="evenodd" stroke="none"/>
    <path d="M-6.1 -63.55 L-6.1 -62.9 -1.9 -62.9 -1.9 -63.55 -6.1 -63.55 M-16.4 -59.1 Q-11.4 -62.95 -6.8 -64.25 L0.55 -64.8 Q5.4 -64.65 7.5 -63.75 12.8 -61.4 15.3 -59.0 L14.8 -58.5 Q17.3 -56.1 17.3 -53.1 17.3 -50.1 14.8 -47.75 L15.4 -47.15 14.95 -46.65 14.75 -46.3 15.1 -45.95 16.6 -45.1 16.9 -44.9 16.9 -44.25 16.85 -44.25 16.85 -30.35 16.9 -30.35 16.9 -30.0 16.8 -29.85 16.8 -28.25 15.9 -28.25 15.9 -14.35 17.0 -14.35 17.05 -14.1 17.3 -12.7 17.5 -11.4 17.55 -11.0 17.6 -9.75 16.65 -9.75 16.65 -3.5 Q16.65 -2.4 16.1 -1.85 15.6 -1.35 14.65 -1.35 13.8 -1.35 13.15 -1.9 12.5 -2.45 12.5 -4.2 L11.35 -4.2 11.25 -4.55 11.05 -4.95 10.9 -5.2 10.7 -5.6 9.7 -7.2 9.2 -7.75 9.85 -8.1 Q8.55 -9.45 7.25 -10.2 5.65 -11.15 3.7 -11.15 1.9 -11.15 0.15 -10.2 -1.4 -9.4 -2.4 -8.1 L-2.7 -8.0 -4.25 -7.05 -4.5 -6.9 -6.2 -6.0 Q-7.1 -5.6 -7.7 -4.85 L-8.15 -4.15 -8.15 -4.25 -9.35 -4.8 Q-9.55 -3.0 -10.15 -2.1 -10.8 -1.05 -12.0 -1.0 -13.55 -0.95 -14.05 -1.45 -14.55 -2.0 -14.55 -3.35 L-14.55 -10.9 -15.65 -10.9 -15.7 -12.5 -15.65 -12.75 Q-15.65 -13.65 -15.3 -14.35 L-14.2 -14.35 -14.2 -28.25 -15.15 -28.25 -15.25 -29.7 -15.3 -29.9 -15.5 -30.1 -15.9 -30.3 -17.4 -31.15 -16.8 -31.75 Q-19.35 -34.1 -19.35 -37.1 -19.35 -40.1 -16.8 -42.5 L-17.3 -43.0 -16.25 -44.25 -16.1 -44.3 -15.45 -44.75 -15.05 -45.2 -14.85 -45.4 Q-14.6 -45.6 -14.75 -45.95 L-14.85 -46.15 -15.55 -46.7 -16.35 -47.2 -15.8 -47.75 Q-18.35 -50.1 -18.35 -53.1 -18.35 -56.1 -15.8 -58.5 L-16.4 -59.1 M0.15 -57.95 L-0.9 -57.35 4.15 -48.2 9.2 -57.35 8.15 -57.95 6.9 -55.7 1.4 -55.7 0.15 -57.95 M1.95 -54.55 L6.35 -54.55 4.15 -50.65 1.95 -54.55 M-5.35 -58.7 L-5.1 -59.3 -4.5 -59.5 -3.9 -59.3 -3.7 -58.7 -3.9 -58.1 Q-4.15 -57.85 -4.5 -57.85 L-5.1 -58.1 -5.35 -58.7 M-3.65 -59.55 Q-4.0 -59.95 -4.5 -59.95 -5.0 -59.95 -5.4 -59.55 L-5.75 -58.7 Q-5.75 -58.2 -5.4 -57.8 -5.0 -57.45 -4.5 -57.45 -4.0 -57.45 -3.65 -57.8 -3.25 -58.2 -3.25 -58.7 -3.25 -59.2 -3.65 -59.55 M13.6 -57.8 Q14.0 -58.2 14.0 -58.7 14.0 -59.2 13.6 -59.55 13.25 -59.95 12.75 -59.95 12.25 -59.95 11.85 -59.55 11.5 -59.2 11.5 -58.7 11.5 -58.2 11.85 -57.8 12.25 -57.45 12.75 -57.45 13.25 -57.45 13.6 -57.8 M12.75 -57.85 Q12.35 -57.85 12.15 -58.1 11.9 -58.3 11.9 -58.7 11.9 -59.1 12.15 -59.3 L12.75 -59.5 13.35 -59.3 13.55 -58.7 13.35 -58.1 Q13.1 -57.85 12.75 -57.85" fill="#ffffff" fill-rule="evenodd" stroke="none"/>
    <path d="M-6.1 -63.55 L-1.9 -63.55 -1.9 -62.9 -6.1 -62.9 -6.1 -63.55 M-16.35 -47.2 L-16.4 -47.15 -16.5 -47.25 Q-19.15 -49.8 -19.15 -53.1 -19.15 -56.5 -16.4 -59.1 L-15.8 -58.5 Q-18.35 -56.1 -18.35 -53.1 -18.35 -50.1 -15.8 -47.75 L-16.35 -47.2 M15.3 -59.0 L15.4 -59.1 Q18.1 -56.5 18.1 -53.1 18.1 -49.85 15.55 -47.3 L15.4 -47.15 14.8 -47.75 Q17.3 -50.1 17.3 -53.1 17.3 -56.1 14.8 -58.5 L15.3 -59.0 M16.8 -28.25 L16.9 -28.25 16.9 -28.2 17.0 -28.2 17.0 -14.35 15.9 -14.35 15.9 -28.25 16.8 -28.25 M17.6 -9.75 L17.9 -9.75 17.9 -3.5 Q17.9 -1.9 17.15 -1.1 16.2 -0.2 14.65 -0.2 13.1 -0.2 12.25 -1.05 11.25 -2.05 11.25 -4.2 L11.35 -4.2 12.5 -4.2 Q12.5 -2.45 13.15 -1.9 13.8 -1.35 14.65 -1.35 15.6 -1.35 16.1 -1.85 16.65 -2.4 16.65 -3.5 L16.65 -9.75 17.6 -9.75 M9.2 -7.75 Q7.65 -9.15 6.55 -9.7 L3.7 -10.35 Q2.05 -10.35 0.65 -9.7 L-1.9 -7.75 -2.4 -8.1 Q-1.4 -9.4 0.15 -10.2 1.9 -11.15 3.7 -11.15 5.65 -11.15 7.25 -10.2 8.55 -9.45 9.85 -8.1 L9.2 -7.75 M-8.15 -4.15 Q-8.9 0.25 -12.45 0.25 -14.2 0.3 -14.9 -0.6 -15.55 -1.4 -15.65 -3.35 L-15.65 -10.9 -14.55 -10.9 -14.55 -3.35 Q-14.55 -2.0 -14.05 -1.45 -13.55 -0.95 -12.0 -1.0 -10.8 -1.05 -10.15 -2.1 -9.55 -3.0 -9.35 -4.8 L-8.15 -4.25 -8.15 -4.15 M-15.3 -14.35 L-15.3 -28.25 -15.15 -28.25 -14.2 -28.25 -14.2 -14.35 -15.3 -14.35 M-17.4 -31.15 Q-20.15 -33.75 -20.15 -37.1 -20.15 -40.5 -17.4 -43.1 L-17.3 -43.0 -16.8 -42.5 Q-19.35 -40.1 -19.35 -37.1 -19.35 -34.1 -16.8 -31.75 L-17.4 -31.15 M-3.65 -59.55 Q-3.25 -59.2 -3.25 -58.7 -3.25 -58.2 -3.65 -57.8 -4.0 -57.45 -4.5 -57.45 -5.0 -57.45 -5.4 -57.8 -5.75 -58.2 -5.75 -58.7 L-5.4 -59.55 Q-5.0 -59.95 -4.5 -59.95 -4.0 -59.95 -3.65 -59.55 M-5.35 -58.7 L-5.1 -58.1 -4.5 -57.85 Q-4.15 -57.85 -3.9 -58.1 L-3.7 -58.7 -3.9 -59.3 -4.5 -59.5 -5.1 -59.3 -5.35 -58.7 M1.95 -54.55 L4.15 -50.65 6.35 -54.55 1.95 -54.55 M0.15 -57.95 L1.4 -55.7 6.9 -55.7 8.15 -57.95 9.2 -57.35 4.15 -48.2 -0.9 -57.35 0.15 -57.95 M12.75 -57.85 Q13.1 -57.85 13.35 -58.1 L13.55 -58.7 13.35 -59.3 12.75 -59.5 12.15 -59.3 Q11.9 -59.1 11.9 -58.7 11.9 -58.3 12.15 -58.1 12.35 -57.85 12.75 -57.85 M13.6 -57.8 Q13.25 -57.45 12.75 -57.45 12.25 -57.45 11.85 -57.8 11.5 -58.2 11.5 -58.7 11.5 -59.2 11.85 -59.55 12.25 -59.95 12.75 -59.95 13.25 -59.95 13.6 -59.55 14.0 -59.2 14.0 -58.7 14.0 -58.2 13.6 -57.8" fill="#000000" fill-rule="evenodd" stroke="none"/>
    <path d="M17.25 -44.2 L17.25 -30.3 16.15 -30.3 16.15 -44.2 17.25 -44.2" fill="#000000" fill-rule="evenodd" stroke="none"/>
  </g>
  <g transform="matrix(1.0, 0.0, 0.0, 1.0, 20.15, 71.15)" data-frame="2">
    <path d="M18.65 -61.7 L18.65 -66.9 Q18.65 -68.8 19.8 -69.95 21.0 -71.15 22.65 -71.15 24.3 -71.15 25.5 -69.95 26.65 -68.8 26.65 -66.9 L26.65 -61.7 26.5 -61.7 25.6 -61.7 25.6 -66.9 Q25.6 -68.35 24.65 -69.25 23.85 -70.1 22.65 -70.1 21.45 -70.1 20.6 -69.25 19.7 -68.35 19.7 -66.9 L19.7 -61.7 18.65 -61.7 M25.9 -56.25 Q26.2 -56.2 25.75 -55.9 25.85 -51.7 21.85 -46.6 L21.75 -46.65 20.7 -47.25 Q24.65 -52.45 24.35 -56.3 L25.65 -56.3 25.9 -56.25" fill="#000000" fill-rule="evenodd" stroke="none"/>
    <path d="M26.5 -61.7 L26.35 -59.9 26.3 -59.35 26.15 -58.25 25.85 -56.35 25.9 -56.25 25.65 -56.3 24.35 -56.3 Q24.65 -52.45 20.7 -47.25 L21.75 -46.65 Q21.35 -45.8 20.55 -45.35 L20.45 -45.25 18.9 -44.3 18.05 -43.75 Q17.9 -43.6 17.65 -43.55 L17.5 -43.5 16.7 -43.2 15.8 -43.2 Q15.15 -43.4 14.65 -43.95 L14.45 -44.15 13.15 -45.55 13.1 -45.7 13.0 -47.0 13.0 -48.95 13.05 -50.55 13.1 -52.2 13.15 -52.35 13.65 -52.65 13.85 -52.8 14.0 -52.9 Q14.5 -53.1 14.95 -53.45 L15.15 -53.65 16.65 -54.8 Q17.4 -55.4 17.7 -56.15 L17.8 -56.3 18.2 -57.25 18.25 -57.65 18.35 -57.95 18.45 -58.25 18.55 -58.65 18.7 -60.05 18.65 -61.7 19.7 -61.7 19.7 -66.9 Q19.7 -68.35 20.6 -69.25 21.45 -70.1 22.65 -70.1 23.85 -70.1 24.65 -69.25 25.6 -68.35 25.6 -66.9 L25.6 -61.7 26.5 -61.7" fill="#ffffff" fill-rule="evenodd" stroke="none"/>
    <path d="M-6.1 -63.55 L-6.1 -62.9 -1.9 -62.9 -1.9 -63.55 -6.1 -63.55 M-16.4 -59.1 Q-11.4 -62.95 -6.8 -64.25 L0.55 -64.8 Q5.4 -64.65 7.5 -63.75 12.8 -61.4 15.3 -59.0 L14.8 -58.5 Q17.3 -56.1 17.3 -53.1 17.3 -50.1 14.8 -47.75 L15.4 -47.15 14.95 -46.65 14.75 -46.3 15.1 -45.95 16.6 -45.1 16.9 -44.9 16.9 -44.25 16.85 -44.25 16.85 -30.35 16.9 -30.35 16.9 -30.0 16.8 -29.85 16.8 -28.25 15.9 -28.25 15.9 -14.35 17.0 -14.35 17.05 -14.1 17.3 -12.7 17.5 -11.4 17.55 -11.0 17.6 -9.75 16.65 -9.75 16.65 -3.5 Q16.65 -2.4 16.1 -1.85 15.6 -1.35 14.65 -1.35 13.8 -1.35 13.15 -1.9 12.5 -2.45 12.5 -4.2 L11.35 -4.2 11.25 -4.55 11.05 -4.95 10.9 -5.2 10.7 -5.6 9.7 -7.2 9.2 -7.75 9.85 -8.1 Q8.55 -9.45 7.25 -10.2 5.65 -11.15 3.7 -11.15 1.9 -11.15 0.15 -10.2 -1.4 -9.4 -2.4 -8.1 L-2.7 -8.0 -4.25 -7.05 -4.5 -6.9 -6.2 -6.0 Q-7.1 -5.6 -7.7 -4.85 L-8.15 -4.15 -8.15 -4.25 -9.35 -4.8 Q-9.55 -3.0 -10.15 -2.1 -10.8 -1.05 -12.0 -1.0 -13.55 -0.95 -14.05 -1.45 -14.55 -2.0 -14.55 -3.35 L-14.55 -10.9 -15.65 -10.9 -15.7 -12.5 -15.65 -12.75 Q-15.65 -13.65 -15.3 -14.35 L-14.2 -14.35 -14.2 -28.25 -15.15 -28.25 -15.25 -29.7 -15.3 -29.9 -15.5 -30.1 -15.9 -30.3 -17.4 -31.15 -16.8 -31.75 Q-19.35 -34.1 -19.35 -37.1 -19.35 -40.1 -16.8 -42.5 L-17.3 -43.0 -16.25 -44.25 -16.1 -44.3 -15.45 -44.75 -15.05 -45.2 -14.85 -45.4 Q-14.6 -45.6 -14.75 -45.95 L-14.85 -46.15 -15.55 -46.7 -16.35 -47.2 -15.8 -47.75 Q-18.35 -50.1 -18.35 -53.1 -18.35 -56.1 -15.8 -58.5 L-16.4 -59.1 M4.15 -50.65 L1.95 -54.55 6.35 -54.55 4.15 -50.65 M0.15 -57.95 L-0.9 -57.35 4.15 -48.2 9.2 -57.35 8.15 -57.95 6.9 -55.7 1.4 -55.7 0.15 -57.95 M-5.35 -58.7 L-5.1 -59.3 -4.5 -59.5 -3.9 -59.3 -3.7 -58.7 -3.9 -58.1 Q-4.15 -57.85 -4.5 -57.85 L-5.1 -58.1 -5.35 -58.7 M-3.65 -59.55 Q-4.0 -59.95 -4.5 -59.95 -5.0 -59.95 -5.4 -59.55 L-5.75 -58.7 Q-5.75 -58.2 -5.4 -57.8 -5.0 -57.45 -4.5 -57.45 -4.0 -57.45 -3.65 -57.8 -3.25 -58.2 -3.25 -58.7 -3.25 -59.2 -3.65 -59.55 M13.6 -57.8 Q14.0 -58.2 14.0 -58.7 14.0 -59.2 13.6 -59.55 13.25 -59.95 12.75 -59.95 12.25 -59.95 11.85 -59.55 11.5 -59.2 11.5 -58.7 11.5 -58.2 11.85 -57.8 12.25 -57.45 12.75 -57.45 13.25 -57.45 13.6 -57.8 M12.75 -57.85 Q12.35 -57.85 12.15 -58.1 11.9 -58.3 11.9 -58.7 11.9 -59.1 12.15 -59.3 L12.75 -59.5 13.35 -59.3 13.55 -58.7 13.35 -58.1 Q13.1 -57.85 12.75 -57.85" fill="#ffffff" fill-rule="evenodd" stroke="none"/>
    <path d="M-6.1 -63.55 L-1.9 -63.55 -1.9 -62.9 -6.1 -62.9 -6.1 -63.55 M-16.35 -47.2 L-16.4 -47.15 -16.5 -47.25 Q-19.15 -49.8 -19.15 -53.1 -19.15 -56.5 -16.4 -59.1 L-15.8 -58.5 Q-18.35 -56.1 -18.35 -53.1 -18.35 -50.1 -15.8 -47.75 L-16.35 -47.2 M15.3 -59.0 L15.4 -59.1 Q18.1 -56.5 18.1 -53.1 18.1 -49.85 15.55 -47.3 L15.4 -47.15 14.8 -47.75 Q17.3 -50.1 17.3 -53.1 17.3 -56.1 14.8 -58.5 L15.3 -59.0 M16.8 -28.25 L16.9 -28.25 16.9 -28.2 17.0 -28.2 17.0 -14.35 15.9 -14.35 15.9 -28.25 16.8 -28.25 M17.6 -9.75 L17.9 -9.75 17.9 -3.5 Q17.9 -1.9 17.15 -1.1 16.2 -0.2 14.65 -0.2 13.1 -0.2 12.25 -1.05 11.25 -2.05 11.25 -4.2 L11.35 -4.2 12.5 -4.2 Q12.5 -2.45 13.15 -1.9 13.8 -1.35 14.65 -1.35 15.6 -1.35 16.1 -1.85 16.65 -2.4 16.65 -3.5 L16.65 -9.75 17.6 -9.75 M9.2 -7.75 Q7.65 -9.15 6.55 -9.7 L3.7 -10.35 Q2.05 -10.35 0.65 -9.7 L-1.9 -7.75 -2.4 -8.1 Q-1.4 -9.4 0.15 -10.2 1.9 -11.15 3.7 -11.15 5.65 -11.15 7.25 -10.2 8.55 -9.45 9.85 -8.1 L9.2 -7.75 M-8.15 -4.15 Q-8.9 0.25 -12.45 0.25 -14.2 0.3 -14.9 -0.6 -15.55 -1.4 -15.65 -3.35 L-15.65 -10.9 -14.55 -10.9 -14.55 -3.35 Q-14.55 -2.0 -14.05 -1.45 -13.55 -0.95 -12.0 -1.0 -10.8 -1.05 -10.15 -2.1 -9.55 -3.0 -9.35 -4.8 L-8.15 -4.25 -8.15 -4.15 M-15.3 -14.35 L-15.3 -28.25 -15.15 -28.25 -14.2 -28.25 -14.2 -14.35 -15.3 -14.35 M-17.4 -31.15 Q-20.15 -33.75 -20.15 -37.1 -20.15 -40.5 -17.4 -43.1 L-17.3 -43.0 -16.8 -42.5 Q-19.35 -40.1 -19.35 -37.1 -19.35 -34.1 -16.8 -31.75 L-17.4 -31.15 M-3.65 -59.55 Q-3.25 -59.2 -3.25 -58.7 -3.25 -58.2 -3.65 -57.8 -4.0 -57.45 -4.5 -57.45 -5.0 -57.45 -5.4 -57.8 -5.75 -58.2 -5.75 -58.7 L-5.4 -59.55 Q-5.0 -59.95 -4.5 -59.95 -4.0 -59.95 -3.65 -59.55 M-5.35 -58.7 L-5.1 -58.1 -4.5 -57.85 Q-4.15 -57.85 -3.9 -58.1 L-3.7 -58.7 -3.9 -59.3 -4.5 -59.5 -5.1 -59.3 -5.35 -58.7 M0.15 -57.95 L1.4 -55.7 6.9 -55.7 8.15 -57.95 9.2 -57.35 4.15 -48.2 -0.9 -57.35 0.15 -57.95 M4.15 -50.65 L6.35 -54.55 1.95 -54.55 4.15 -50.65 M12.75 -57.85 Q13.1 -57.85 13.35 -58.1 L13.55 -58.7 13.35 -59.3 12.75 -59.5 12.15 -59.3 Q11.9 -59.1 11.9 -58.7 11.9 -58.3 12.15 -58.1 12.35 -57.85 12.75 -57.85 M13.6 -57.8 Q13.25 -57.45 12.75 -57.45 12.25 -57.45 11.85 -57.8 11.5 -58.2 11.5 -58.7 11.5 -59.2 11.85 -59.55 12.25 -59.95 12.75 -59.95 13.25 -59.95 13.6 -59.55 14.0 -59.2 14.0 -58.7 14.0 -58.2 13.6 -57.8" fill="#000000" fill-rule="evenodd" stroke="none"/>
    <path d="M17.25 -44.2 L17.25 -30.3 16.15 -30.3 16.15 -44.2 17.25 -44.2" fill="#000000" fill-rule="evenodd" stroke="none"/>
  </g>
  <g transform="matrix(1.0, 0.0, 0.0, 1.0, 20.15, 71.15)" data-frame="3">
    <path d="M-6.1 -63.55 L-6.1 -62.9 -1.9 -62.9 -1.9 -63.55 -6.1 -63.55 M-16.4 -59.1 Q-11.4 -62.95 -6.8 -64.25 L0.55 -64.8 Q5.4 -64.65 7.5 -63.75 12.8 -61.4 15.3 -59.0 L14.8 -58.5 Q17.3 -56.1 17.3 -53.1 17.3 -50.1 14.8 -47.75 L15.4 -47.15 14.95 -46.65 14.75 -46.3 15.1 -45.95 16.6 -45.1 16.9 -44.9 16.9 -44.25 16.85 -44.25 16.85 -30.35 16.9 -30.35 16.9 -30.0 16.8 -29.85 16.8 -28.25 15.9 -28.25 15.9 -14.35 17.0 -14.35 17.05 -14.1 17.3 -12.7 17.5 -11.4 17.55 -11.0 17.6 -9.75 16.65 -9.75 16.65 -3.5 Q16.65 -2.4 16.1 -1.85 15.6 -1.35 14.65 -1.35 13.8 -1.35 13.15 -1.9 12.5 -2.45 12.5 -4.2 L11.35 -4.2 11.25 -4.55 11.05 -4.95 10.9 -5.2 10.7 -5.6 9.7 -7.2 9.2 -7.75 9.85 -8.1 Q8.55 -9.45 7.25 -10.2 5.65 -11.15 3.7 -11.15 1.9 -11.15 0.15 -10.2 -1.4 -9.4 -2.4 -8.1 L-2.7 -8.0 -4.25 -7.05 -4.5 -6.9 -6.2 -6.0 Q-7.1 -5.6 -7.7 -4.85 L-8.15 -4.15 -8.15 -4.25 -9.35 -4.8 Q-9.55 -3.0 -10.15 -2.1 -10.8 -1.05 -12.0 -1.0 -13.55 -0.95 -14.05 -1.45 -14.55 -2.0 -14.55 -3.35 L-14.55 -10.9 -15.65 -10.9 -15.7 -12.5 -15.65 -12.75 Q-15.65 -13.65 -15.3 -14.35 L-14.2 -14.35 -14.2 -28.25 -15.15 -28.25 -15.25 -29.7 -15.3 -29.9 -15.5 -30.1 -15.9 -30.3 -17.4 -31.15 -16.8 -31.75 Q-19.35 -34.1 -19.35 -37.1 -19.35 -40.1 -16.8 -42.5 L-17.3 -43.0 -16.25 -44.25 -16.1 -44.3 -15.45 -44.75 -15.05 -45.2 -14.85 -45.4 Q-14.6 -45.6 -14.75 -45.95 L-14.85 -46.15 -15.55 -46.7 -16.35 -47.2 -15.8 -47.75 Q-18.35 -50.1 -18.35 -53.1 -18.35 -56.1 -15.8 -58.5 L-16.4 -59.1 M4.15 -50.65 L1.95 -54.55 6.35 -54.55 4.15 -50.65 M0.15 -57.95 L-0.9 -57.35 4.15 -48.2 9.2 -57.35 8.15 -57.95 6.9 -55.7 1.4 -55.7 0.15 -57.95 M-5.35 -58.7 L-5.1 -59.3 -4.5 -59.5 -3.9 -59.3 -3.7 -58.7 -3.9 -58.1 Q-4.15 -57.85 -4.5 -57.85 L-5.1 -58.1 -5.35 -58.7 M-3.65 -59.55 Q-4.0 -59.95 -4.5 -59.95 -5.0 -59.95 -5.4 -59.55 L-5.75 -58.7 Q-5.75 -58.2 -5.4 -57.8 -5.0 -57.45 -4.5 -57.45 -4.0 -57.45 -3.65 -57.8 -3.25 -58.2 -3.25 -58.7 -3.25 -59.2 -3.65 -59.55 M13.6 -57.8 Q14.0 -58.2 14.0 -58.7 14.0 -59.2 13.6 -59.55 13.25 -59.95 12.75 -59.95 12.25 -59.95 11.85 -59.55 11.5 -59.2 11.5 -58.7 11.5 -58.2 11.85 -57.8 12.25 -57.45 12.75 -57.45 13.25 -57.45 13.6 -57.8 M12.75 -57.85 Q12.35 -57.85 12.15 -58.1 11.9 -58.3 11.9 -58.7 11.9 -59.1 12.15 -59.3 L12.75 -59.5 13.35 -59.3 13.55 -58.7 13.35 -58.1 Q13.1 -57.85 12.75 -57.85" fill="#ffffff" fill-rule="evenodd" stroke="none"/>
    <path d="M-6.1 -63.55 L-1.9 -63.55 -1.9 -62.9 -6.1 -62.9 -6.1 -63.55 M-16.35 -47.2 L-16.4 -47.15 -16.5 -47.25 Q-19.15 -49.8 -19.15 -53.1 -19.15 -56.5 -16.4 -59.1 L-15.8 -58.5 Q-18.35 -56.1 -18.35 -53.1 -18.35 -50.1 -15.8 -47.75 L-16.35 -47.2 M15.3 -59.0 L15.4 -59.1 Q18.1 -56.5 18.1 -53.1 18.1 -49.85 15.55 -47.3 L15.4 -47.15 14.8 -47.75 Q17.3 -50.1 17.3 -53.1 17.3 -56.1 14.8 -58.5 L15.3 -59.0 M16.8 -28.25 L16.9 -28.25 16.9 -28.2 17.0 -28.2 17.0 -14.35 15.9 -14.35 15.9 -28.25 16.8 -28.25 M17.6 -9.75 L17.9 -9.75 17.9 -3.5 Q17.9 -1.9 17.15 -1.1 16.2 -0.2 14.65 -0.2 13.1 -0.2 12.25 -1.05 11.25 -2.05 11.25 -4.2 L11.35 -4.2 12.5 -4.2 Q12.5 -2.45 13.15 -1.9 13.8 -1.35 14.65 -1.35 15.6 -1.35 16.1 -1.85 16.65 -2.4 16.65 -3.5 L16.65 -9.75 17.6 -9.75 M9.2 -7.75 Q7.65 -9.15 6.55 -9.7 L3.7 -10.35 Q2.05 -10.35 0.65 -9.7 L-1.9 -7.75 -2.4 -8.1 Q-1.4 -9.4 0.15 -10.2 1.9 -11.15 3.7 -11.15 5.65 -11.15 7.25 -10.2 8.55 -9.45 9.85 -8.1 L9.2 -7.75 M-8.15 -4.15 Q-8.9 0.25 -12.45 0.25 -14.2 0.3 -14.9 -0.6 -15.55 -1.4 -15.65 -3.35 L-15.65 -10.9 -14.55 -10.9 -14.55 -3.35 Q-14.55 -2.0 -14.05 -1.45 -13.55 -0.95 -12.0 -1.0 -10.8 -1.05 -10.15 -2.1 -9.55 -3.0 -9.35 -4.8 L-8.15 -4.25 -8.15 -4.15 M-15.3 -14.35 L-15.3 -28.25 -15.15 -28.25 -14.2 -28.25 -14.2 -14.35 -15.3 -14.35 M-17.4 -31.15 Q-20.15 -33.75 -20.15 -37.1 -20.15 -40.5 -17.4 -43.1 L-17.3 -43.0 -16.8 -42.5 Q-19.35 -40.1 -19.35 -37.1 -19.35 -34.1 -16.8 -31.75 L-17.4 -31.15 M-3.65 -59.55 Q-3.25 -59.2 -3.25 -58.7 -3.25 -58.2 -3.65 -57.8 -4.0 -57.45 -4.5 -57.45 -5.0 -57.45 -5.4 -57.8 -5.75 -58.2 -5.75 -58.7 L-5.4 -59.55 Q-5.0 -59.95 -4.5 -59.95 -4.0 -59.95 -3.65 -59.55 M-5.35 -58.7 L-5.1 -58.1 -4.5 -57.85 Q-4.15 -57.85 -3.9 -58.1 L-3.7 -58.7 -3.9 -59.3 -4.5 -59.5 -5.1 -59.3 -5.35 -58.7 M0.15 -57.95 L1.4 -55.7 6.9 -55.7 8.15 -57.95 9.2 -57.35 4.15 -48.2 -0.9 -57.35 0.15 -57.95 M4.15 -50.65 L6.35 -54.55 1.95 -54.55 4.15 -50.65 M12.75 -57.85 Q13.1 -57.85 13.35 -58.1 L13.55 -58.7 13.35 -59.3 12.75 -59.5 12.15 -59.3 Q11.9 -59.1 11.9 -58.7 11.9 -58.3 12.15 -58.1 12.35 -57.85 12.75 -57.85 M13.6 -57.8 Q13.25 -57.45 12.75 -57.45 12.25 -57.45 11.85 -57.8 11.5 -58.2 11.5 -58.7 11.5 -59.2 11.85 -59.55 12.25 -59.95 12.75 -59.95 13.25 -59.95 13.6 -59.55 14.0 -59.2 14.0 -58.7 14.0 -58.2 13.6 -57.8" fill="#000000" fill-rule="evenodd" stroke="none"/>
    <path d="M21.65 -34.95 Q18.75 -31.9 12.3 -31.15 L11.95 -32.45 Q18.4 -33.3 20.95 -36.25 L21.85 -35.3 Q22.3 -34.8 21.65 -34.95 M20.55 -38.0 Q17.1 -35.35 13.0 -34.7 L12.7 -35.9 Q17.2 -36.8 20.0 -39.2 L20.75 -38.35 Q21.1 -37.9 20.55 -38.0 M19.45 -42.55 L20.3 -41.6 Q20.6 -41.2 19.9 -41.2 16.25 -38.45 12.35 -37.9 L12.0 -39.15 Q16.05 -39.7 19.45 -42.55 M4.95 -39.65 L-0.25 -39.65 Q-1.7 -39.65 -2.6 -38.7 -3.45 -37.9 -3.45 -36.7 -3.45 -35.45 -2.6 -34.65 -1.7 -33.7 -0.25 -33.7 L4.95 -33.7 4.95 -32.7 -0.25 -32.7 Q-2.2 -32.7 -3.35 -33.85 -4.55 -35.05 -4.55 -36.7 -4.55 -38.3 -3.35 -39.5 -2.2 -40.65 -0.25 -40.65 L4.95 -40.65 4.95 -39.65" fill="#000000" fill-rule="evenodd" stroke="none"/>
  </g>
  <g transform="matrix(1.0, 0.0, 0.0, 1.0, 20.15, 71.15)" data-frame="4">
    <path d="M-6.1 -63.55 L-6.1 -62.9 -1.9 -62.9 -1.9 -63.55 -6.1 -63.55 M-16.4 -59.1 Q-11.4 -62.95 -6.8 -64.25 L0.55 -64.8 Q5.4 -64.65 7.5 -63.75 12.8 -61.4 15.3 -59.0 L14.8 -58.5 Q17.3 -56.1 17.3 -53.1 17.3 -50.1 14.8 -47.75 L15.4 -47.15 14.95 -46.65 14.75 -46.3 15.1 -45.95 16.6 -45.1 16.9 -44.9 16.9 -44.25 16.85 -44.25 16.85 -30.35 16.9 -30.35 16.9 -30.0 16.8 -29.85 16.8 -28.25 15.9 -28.25 15.9 -14.35 17.0 -14.35 17.05 -14.1 17.3 -12.7 17.5 -11.4 17.55 -11.0 17.6 -9.75 16.65 -9.75 16.65 -3.5 Q16.65 -2.4 16.1 -1.85 15.6 -1.35 14.65 -1.35 13.8 -1.35 13.15 -1.9 12.5 -2.45 12.5 -4.2 L11.35 -4.2 11.25 -4.55 11.05 -4.95 10.9 -5.2 10.7 -5.6 9.7 -7.2 9.2 -7.75 9.85 -8.1 Q8.55 -9.45 7.25 -10.2 5.65 -11.15 3.7 -11.15 1.9 -11.15 0.15 -10.2 -1.4 -9.4 -2.4 -8.1 L-2.7 -8.0 -4.25 -7.05 -4.5 -6.9 -6.2 -6.0 Q-7.1 -5.6 -7.7 -4.85 L-8.15 -4.15 -8.15 -4.25 -9.35 -4.8 Q-9.55 -3.0 -10.15 -2.1 -10.8 -1.05 -12.0 -1.0 -13.55 -0.95 -14.05 -1.45 -14.55 -2.0 -14.55 -3.35 L-14.55 -10.9 -15.65 -10.9 -15.7 -12.5 -15.65 -12.75 Q-15.65 -13.65 -15.3 -14.35 L-14.2 -14.35 -14.2 -28.25 -15.15 -28.25 -15.25 -29.7 -15.3 -29.9 -15.5 -30.1 -15.9 -30.3 -17.4 -31.15 -16.8 -31.75 Q-19.35 -34.1 -19.35 -37.1 -19.35 -40.1 -16.8 -42.5 L-17.3 -43.0 -16.25 -44.25 -16.1 -44.3 -15.45 -44.75 -15.05 -45.2 -14.85 -45.4 Q-14.6 -45.6 -14.75 -45.95 L-14.85 -46.15 -15.55 -46.7 -16.35 -47.2 -15.8 -47.75 Q-18.35 -50.1 -18.35 -53.1 -18.35 -56.1 -15.8 -58.5 L-16.4 -59.1 M1.4 -55.7 L0.15 -57.95 -0.9 -57.35 4.15 -48.2 9.2 -57.35 8.15 -57.95 6.9 -55.7 1.4 -55.7 M4.15 -50.65 L1.95 -54.55 6.35 -54.55 4.15 -50.65 M-5.35 -58.7 L-5.1 -59.3 -4.5 -59.5 -3.9 -59.3 -3.7 -58.7 -3.9 -58.1 Q-4.15 -57.85 -4.5 -57.85 L-5.1 -58.1 -5.35 -58.7 M-3.65 -59.55 Q-4.0 -59.95 -4.5 -59.95 -5.0 -59.95 -5.4 -59.55 L-5.75 -58.7 Q-5.75 -58.2 -5.4 -57.8 -5.0 -57.45 -4.5 -57.45 -4.0 -57.45 -3.65 -57.8 -3.25 -58.2 -3.25 -58.7 -3.25 -59.2 -3.65 -59.55 M13.6 -57.8 Q14.0 -58.2 14.0 -58.7 14.0 -59.2 13.6 -59.55 13.25 -59.95 12.75 -59.95 12.25 -59.95 11.85 -59.55 11.5 -59.2 11.5 -58.7 11.5 -58.2 11.85 -57.8 12.25 -57.45 12.75 -57.45 13.25 -57.45 13.6 -57.8 M12.75 -57.85 Q12.35 -57.85 12.15 -58.1 11.9 -58.3 11.9 -58.7 11.9 -59.1 12.15 -59.3 L12.75 -59.5 13.35 -59.3 13.55 -58.7 13.35 -58.1 Q13.1 -57.85 12.75 -57.85" fill="#ffffff" fill-rule="evenodd" stroke="none"/>
    <path d="M-6.1 -63.55 L-1.9 -63.55 -1.9 -62.9 -6.1 -62.9 -6.1 -63.55 M-16.35 -47.2 L-16.4 -47.15 -16.5 -47.25 Q-19.15 -49.8 -19.15 -53.1 -19.15 -56.5 -16.4 -59.1 L-15.8 -58.5 Q-18.35 -56.1 -18.35 -53.1 -18.35 -50.1 -15.8 -47.75 L-16.35 -47.2 M15.3 -59.0 L15.4 -59.1 Q18.1 -56.5 18.1 -53.1 18.1 -49.85 15.55 -47.3 L15.4 -47.15 14.8 -47.75 Q17.3 -50.1 17.3 -53.1 17.3 -56.1 14.8 -58.5 L15.3 -59.0 M16.8 -28.25 L16.9 -28.25 16.9 -28.2 17.0 -28.2 17.0 -14.35 15.9 -14.35 15.9 -28.25 16.8 -28.25 M17.6 -9.75 L17.9 -9.75 17.9 -3.5 Q17.9 -1.9 17.15 -1.1 16.2 -0.2 14.65 -0.2 13.1 -0.2 12.25 -1.05 11.25 -2.05 11.25 -4.2 L11.35 -4.2 12.5 -4.2 Q12.5 -2.45 13.15 -1.9 13.8 -1.35 14.65 -1.35 15.6 -1.35 16.1 -1.85 16.65 -2.4 16.65 -3.5 L16.65 -9.75 17.6 -9.75 M9.2 -7.75 Q7.65 -9.15 6.55 -9.7 L3.7 -10.35 Q2.05 -10.35 0.65 -9.7 L-1.9 -7.75 -2.4 -8.1 Q-1.4 -9.4 0.15 -10.2 1.9 -11.15 3.7 -11.15 5.65 -11.15 7.25 -10.2 8.55 -9.45 9.85 -8.1 L9.2 -7.75 M-8.15 -4.15 Q-8.9 0.25 -12.45 0.25 -14.2 0.3 -14.9 -0.6 -15.55 -1.4 -15.65 -3.35 L-15.65 -10.9 -14.55 -10.9 -14.55 -3.35 Q-14.55 -2.0 -14.05 -1.45 -13.55 -0.95 -12.0 -1.0 -10.8 -1.05 -10.15 -2.1 -9.55 -3.0 -9.35 -4.8 L-8.15 -4.25 -8.15 -4.15 M-15.3 -14.35 L-15.3 -28.25 -15.15 -28.25 -14.2 -28.25 -14.2 -14.35 -15.3 -14.35 M-17.4 -31.15 Q-20.15 -33.75 -20.15 -37.1 -20.15 -40.5 -17.4 -43.1 L-17.3 -43.0 -16.8 -42.5 Q-19.35 -40.1 -19.35 -37.1 -19.35 -34.1 -16.8 -31.75 L-17.4 -31.15 M-3.65 -59.55 Q-3.25 -59.2 -3.25 -58.7 -3.25 -58.2 -3.65 -57.8 -4.0 -57.45 -4.5 -57.45 -5.0 -57.45 -5.4 -57.8 -5.75 -58.2 -5.75 -58.7 L-5.4 -59.55 Q-5.0 -59.95 -4.5 -59.95 -4.0 -59.95 -3.65 -59.55 M-5.35 -58.7 L-5.1 -58.1 -4.5 -57.85 Q-4.15 -57.85 -3.9 -58.1 L-3.7 -58.7 -3.9 -59.3 -4.5 -59.5 -5.1 -59.3 -5.35 -58.7 M4.15 -50.65 L6.35 -54.55 1.95 -54.55 4.15 -50.65 M1.4 -55.7 L6.9 -55.7 8.15 -57.95 9.2 -57.35 4.15 -48.2 -0.9 -57.35 0.15 -57.95 1.4 -55.7 M12.75 -57.85 Q13.1 -57.85 13.35 -58.1 L13.55 -58.7 13.35 -59.3 12.75 -59.5 12.15 -59.3 Q11.9 -59.1 11.9 -58.7 11.9 -58.3 12.15 -58.1 12.35 -57.85 12.75 -57.85 M13.6 -57.8 Q13.25 -57.45 12.75 -57.45 12.25 -57.45 11.85 -57.8 11.5 -58.2 11.5 -58.7 11.5 -59.2 11.85 -59.55 12.25 -59.95 12.75 -59.95 13.25 -59.95 13.6 -59.55 14.0 -59.2 14.0 -58.7 14.0 -58.2 13.6 -57.8" fill="#000000" fill-rule="evenodd" stroke="none"/>
    <path d="M4.95 -39.65 L-0.25 -39.65 Q-1.7 -39.65 -2.6 -38.7 -3.45 -37.9 -3.45 -36.7 -3.45 -35.45 -2.6 -34.65 -1.7 -33.7 -0.25 -33.7 L4.95 -33.7 4.95 -32.7 -0.25 -32.7 Q-2.2 -32.7 -3.35 -33.85 -4.55 -35.05 -4.55 -36.7 -4.55 -38.3 -3.35 -39.5 -2.2 -40.65 -0.25 -40.65 L4.95 -40.65 4.95 -39.65 M7.2 -33.8 Q11.7 -34.7 14.5 -37.1 L15.25 -36.25 Q15.6 -35.8 15.05 -35.9 11.6 -33.25 7.5 -32.6 L7.2 -33.8" fill="#000000" fill-rule="evenodd" stroke="none"/>
    <path d="M17.25 -44.2 L17.25 -30.3 16.15 -30.3 16.15 -44.2 17.25 -44.2" fill="#000000" fill-rule="evenodd" stroke="none"/>
  </g>
</svg>
