<svg xmlns:xlink="http://www.w3.org/1999/xlink" height="92px" width="168px" xmlns="http://www.w3.org/2000/svg" data-current-frame="0" data-user-id="$id">
  <g transform="matrix(1.0, 0.0, 0.0, 1.0, 83.9, 91.2)" data-frame="0">
    <path d="M-1.75 -28.95 L-1.9 -29.5 Q-3.3 -29.65 -4.2 -30.6 -6.2 -32.6 -6.2 -36.45 L-5.25 -36.45 Q-5.25 -32.85 -3.55 -31.2 -2.85 -30.45 -2.05 -30.35 L-4.35 -39.4 -3.4 -39.4 -1.15 -30.35 Q-0.65 -30.4 -0.25 -30.85 0.1 -31.2 0.1 -31.85 0.1 -32.85 -0.35 -33.9 L-1.0 -35.8 -0.8 -36.4 -0.1 -36.65 Q0.65 -36.65 1.85 -35.35 L1.15 -34.8 0.2 -35.7 0.05 -35.65 -0.05 -35.5 0.65 -33.75 Q1.0 -32.9 1.0 -31.8 1.0 -30.9 0.4 -30.25 -0.25 -29.65 -1.0 -29.55 L-0.8 -28.95 -0.85 -28.95 -0.9 -28.85 -0.85 -28.8 -0.75 -28.8 -0.55 -27.9 -1.45 -27.9 -1.7 -28.8 -1.65 -28.8 -1.65 -28.85 -1.65 -28.95 -1.7 -28.95 -1.75 -28.95 M4.2 -28.85 L7.9 -28.85 7.9 -28.35 7.85 -28.35 7.8 -28.3 7.8 -28.25 4.1 -28.25 4.1 -28.8 4.15 -28.8 4.2 -28.85 M6.85 -24.6 Q5.65 -23.5 5.15 -22.5 4.6 -21.35 4.6 -19.75 4.6 -18.4 5.15 -17.2 5.65 -16.15 6.85 -14.8 L6.8 -14.75 6.8 -14.7 6.85 -14.7 6.35 -14.2 Q5.1 -15.6 4.55 -16.8 3.85 -18.2 3.85 -19.75 3.85 -21.5 4.55 -22.85 5.05 -23.95 6.35 -25.15 L6.8 -24.75 6.8 -24.7 6.8 -24.65 6.85 -24.6 M9.05 -10.8 Q10.3 -9.65 10.85 -8.55 11.5 -7.2 11.5 -5.45 11.5 -3.9 10.85 -2.5 10.25 -1.3 9.05 0.05 L9.05 0.0 8.95 0.0 8.9 0.05 8.45 -0.45 Q9.7 -1.8 10.2 -2.9 10.75 -4.1 10.75 -5.45 10.75 -7.05 10.2 -8.2 L8.45 -10.35 8.95 -10.8 9.0 -10.75 9.05 -10.8 M7.35 0.8 L-5.2 0.8 -5.2 0.75 -5.25 0.7 -5.3 0.7 -5.3 0.25 7.4 0.25 7.4 0.7 7.35 0.75 7.35 0.8 M-6.95 0.05 L-8.7 -2.5 Q-9.4 -3.9 -9.4 -5.45 -9.4 -7.2 -8.7 -8.55 -8.2 -9.65 -6.95 -10.8 L-6.9 -10.8 -6.85 -10.75 -6.8 -10.8 -6.35 -10.35 Q-7.6 -9.2 -8.05 -8.2 -8.65 -7.05 -8.65 -5.45 -8.65 -4.1 -8.05 -2.9 -7.6 -1.8 -6.35 -0.45 L-6.8 0.05 -6.85 0.0 -6.9 0.0 -6.95 0.05 M-3.75 -14.8 Q-2.55 -16.15 -2.05 -17.2 -1.5 -18.4 -1.5 -19.75 -1.5 -21.35 -2.05 -22.5 L-3.7 -24.6 -3.7 -24.65 -3.7 -24.7 -3.7 -24.75 -3.25 -25.15 Q-1.95 -23.95 -1.4 -22.85 -0.75 -21.5 -0.75 -19.75 -0.75 -18.2 -1.4 -16.8 -2.0 -15.6 -3.25 -14.2 L-3.75 -14.65 -3.7 -14.7 -3.7 -14.75 -3.75 -14.8 M-9.55 -50.85 L-9.15 -50.85 -8.5 -50.65 Q-8.95 -49.45 -8.95 -47.9 -9.0 -46.0 -8.2 -45.2 -7.75 -44.75 -7.1 -44.75 -6.5 -44.75 -6.15 -45.05 -5.8 -45.4 -5.8 -45.95 L-6.25 -46.85 -6.5 -48.35 Q-6.5 -49.35 -6.1 -49.35 -5.75 -49.35 -5.4 -48.65 -5.0 -47.9 -4.95 -47.3 L-4.95 -46.1 -4.3 -45.15 Q-3.9 -44.7 -3.2 -44.7 -2.75 -44.7 -2.45 -45.0 -2.15 -45.3 -2.15 -46.3 -2.15 -48.25 -4.1 -50.45 L-3.45 -50.85 -3.25 -50.85 -3.2 -50.85 Q-1.25 -48.55 -1.25 -46.3 -1.25 -44.95 -1.8 -44.4 -2.4 -43.85 -3.2 -43.85 -4.1 -43.85 -4.7 -44.45 L-5.2 -45.05 -5.7 -44.3 Q-6.2 -43.85 -7.15 -43.85 -8.25 -43.85 -8.95 -44.55 -10.05 -45.65 -10.0 -47.9 -10.05 -49.45 -9.55 -50.85" fill="#000000" fill-rule="evenodd" stroke="none"/>
    <path d="M-1.75 -28.95 L-1.7 -28.95 -1.65 -28.95 -1.65 -28.85 -1.65 -28.8 -1.7 -28.8 -1.45 -27.9 -0.55 -27.9 -0.75 -28.8 -0.85 -28.8 -0.9 -28.85 -0.85 -28.95 -0.8 -28.95 4.1 -28.95 4.15 -28.95 4.2 -28.85 4.15 -28.8 4.1 -28.8 4.1 -28.25 7.8 -28.25 7.8 -28.3 7.85 -28.35 7.9 -28.35 7.95 -28.35 8.0 -28.3 8.0 -28.25 7.0 -24.65 6.95 -24.6 6.9 -24.6 6.85 -24.6 6.8 -24.65 6.8 -24.7 6.8 -24.75 6.9 -25.0 6.35 -25.15 Q5.05 -23.95 4.55 -22.85 3.85 -21.5 3.85 -19.75 3.85 -18.2 4.55 -16.8 5.1 -15.6 6.35 -14.2 L6.95 -14.5 6.85 -14.7 6.8 -14.7 6.8 -14.75 6.85 -14.8 6.9 -14.85 6.95 -14.8 9.05 -10.9 9.1 -10.85 9.05 -10.8 9.0 -10.75 8.95 -10.8 8.45 -10.35 10.2 -8.2 Q10.75 -7.05 10.75 -5.45 10.75 -4.1 10.2 -2.9 9.7 -1.8 8.45 -0.45 L8.9 0.05 8.95 0.0 9.05 0.0 9.05 0.05 9.1 0.1 9.1 0.15 9.05 0.2 7.45 0.9 7.4 0.9 7.35 0.85 7.35 0.8 7.35 0.75 7.4 0.7 7.55 0.6 7.4 0.25 -5.3 0.25 -5.45 0.6 -5.3 0.7 -5.25 0.7 -5.2 0.75 -5.2 0.8 -5.2 0.85 -5.25 0.9 -5.35 0.9 -6.9 0.2 -6.95 0.15 -6.95 0.1 -6.95 0.05 -6.9 0.0 -6.85 0.0 -6.8 0.05 -6.35 -0.45 Q-7.6 -1.8 -8.05 -2.9 -8.65 -4.1 -8.65 -5.45 -8.65 -7.05 -8.05 -8.2 -7.6 -9.2 -6.35 -10.35 L-6.8 -10.8 -6.85 -10.75 -6.9 -10.8 -6.95 -10.8 -6.95 -10.85 -6.95 -10.9 -3.85 -14.8 -3.8 -14.85 -3.75 -14.8 -3.7 -14.75 -3.7 -14.7 -3.75 -14.65 -3.25 -14.2 Q-2.0 -15.6 -1.4 -16.8 -0.75 -18.2 -0.75 -19.75 -0.75 -21.5 -1.4 -22.85 -1.95 -23.95 -3.25 -25.15 L-3.8 -24.9 -3.7 -24.75 -3.7 -24.7 -3.7 -24.65 -3.7 -24.6 -3.75 -24.6 -3.85 -24.6 -3.9 -24.65 -5.85 -28.85 -5.85 -28.9 -5.85 -28.95 -5.8 -28.95 -1.75 -28.95 M-9.15 -50.85 L-9.55 -50.85 -9.6 -50.9 -9.55 -51.0 -9.5 -51.0 -3.25 -51.0 -3.2 -51.0 -3.15 -50.9 -3.2 -50.85 -3.25 -50.85 -3.45 -50.85 -4.1 -50.85 -4.1 -50.45 Q-2.15 -48.25 -2.15 -46.3 -2.15 -45.3 -2.45 -45.0 -2.75 -44.7 -3.2 -44.7 -3.9 -44.7 -4.3 -45.15 L-4.95 -46.1 -4.95 -47.3 Q-5.0 -47.9 -5.4 -48.65 -5.75 -49.35 -6.1 -49.35 -6.5 -49.35 -6.5 -48.35 L-6.25 -46.85 -5.8 -45.95 Q-5.8 -45.4 -6.15 -45.05 -6.5 -44.75 -7.1 -44.75 -7.75 -44.75 -8.2 -45.2 -9.0 -46.0 -8.95 -47.9 -8.95 -49.45 -8.5 -50.65 L-8.5 -50.85 -9.15 -50.85" fill="#ffffff" fill-rule="evenodd" stroke="none"/>
  </g>
  <g transform="matrix(1.0, 0.0, 0.0, 1.0, 83.9, 45.6)" data-frame="1">
    <path d="M67.35 -14.55 L67.4 -14.5 69.05 -15.9 Q67.8 -17.6 65.85 -19.3 L61.2 -22.75 61.15 -22.7 59.85 -21.45 Q64.8 -18.15 67.35 -14.55 M67.9 -20.9 L67.95 -20.85 68.8 -21.8 66.15 -23.7 66.1 -23.65 65.4 -22.85 67.35 -21.4 67.9 -20.9 M66.8 -24.6 L66.75 -24.45 69.2 -22.5 69.25 -22.45 70.0 -23.25 69.95 -23.35 69.95 -23.45 70.0 -23.5 70.05 -23.5 70.15 -23.5 70.2 -23.45 76.35 -7.15 76.35 -7.05 76.35 -7.0 76.3 -6.95 76.2 -6.95 76.15 -7.0 76.1 -6.95 75.55 -6.45 Q77.2 -4.9 77.85 -3.55 78.6 -2.0 78.6 0.1 78.6 1.9 77.85 3.5 77.2 4.95 75.55 6.75 L76.2 7.45 76.25 7.5 Q77.9 5.65 78.7 4.0 79.3 2.7 79.5 1.25 L79.45 0.5 79.5 0.45 79.6 0.4 79.65 0.4 79.7 0.5 81.1 17.9 83.7 32.7 83.75 33.15 83.75 33.2 83.75 33.3 83.65 33.35 83.6 33.35 83.55 33.3 83.5 33.25 83.25 31.7 82.05 31.9 82.05 31.95 Q80.8 36.35 78.75 38.85 76.7 41.3 73.7 42.85 L73.7 42.9 73.7 44.0 75.05 44.0 75.3 44.0 75.35 44.0 75.4 44.05 75.4 44.1 75.4 44.2 75.3 44.25 -57.05 45.6 -81.25 43.5 -81.35 43.45 -81.4 43.35 -81.35 43.25 -81.3 43.25 -81.25 43.25 -81.05 43.25 -80.3 42.95 -74.95 41.9 -74.9 41.9 -73.9 40.1 Q-78.3 38.7 -79.95 34.95 L-80.0 34.75 -80.1 34.55 -80.75 32.15 Q-80.35 31.7 -80.75 31.75 L-80.95 31.75 -81.0 31.75 -82.45 32.1 -82.45 32.65 Q-80.9 38.7 -77.05 40.5 L-77.1 40.5 -81.65 41.75 -82.3 42.1 -82.3 42.15 -82.3 42.25 -82.35 42.25 -82.4 42.3 -82.5 42.25 -82.55 42.15 -82.7 32.1 -83.7 19.1 -83.9 6.25 -83.85 6.2 -83.75 6.15 -83.7 6.15 -83.65 6.25 -83.65 6.35 -83.65 6.65 -83.15 6.65 -83.1 6.65 -76.05 -5.9 -76.6 -6.2 -76.65 -6.15 -76.8 -6.15 -76.85 -6.25 -76.85 -6.35 -71.95 -17.8 -57.4 -39.9 -57.3 -39.95 -57.25 -39.95 -57.2 -39.95 -57.3 -39.85 -57.2 -39.75 -57.2 -39.7 -57.3 -39.55 -56.5 -39.05 -56.35 -38.95 -55.1 -39.95 -55.05 -39.95 -54.65 -39.75 Q-54.2 -39.25 -54.25 -35.7 -55.7 -32.15 -55.7 -30.55 L-55.45 -29.7 -55.35 -29.65 -54.65 -30.1 Q-53.65 -31.1 -53.2 -35.4 -51.6 -38.2 -47.75 -40.35 L-48.6 -41.45 -48.6 -41.4 Q-51.5 -39.65 -53.1 -37.35 L-53.1 -37.4 Q-52.9 -40.05 -53.7 -40.85 L-53.75 -41.35 -54.35 -41.25 -54.75 -41.35 -54.8 -41.35 -54.9 -41.35 -54.9 -41.4 -54.8 -41.45 -26.55 -45.0 -25.9 -45.1 18.75 -45.55 18.8 -45.55 18.85 -45.45 18.8 -45.45 18.85 -45.4 18.85 -45.35 22.1 -42.5 23.55 -42.5 23.65 -42.5 21.2 -45.45 21.1 -45.45 21.0 -45.45 21.1 -45.55 21.15 -45.55 32.0 -42.4 32.1 -42.35 32.1 -42.3 31.85 -42.2 31.8 -42.2 31.45 -41.95 26.55 -37.15 27.8 -35.7 27.85 -35.7 31.55 -39.85 32.25 -40.4 32.35 -40.4 33.1 -39.85 39.6 -33.9 39.65 -33.9 41.15 -35.2 41.0 -35.3 41.1 -35.3 67.5 -25.4 67.55 -25.35 67.55 -25.25 67.55 -25.2 67.5 -25.15 67.4 -25.15 67.35 -25.2 67.05 -25.3 66.8 -24.6 M55.0 -7.05 L54.35 -6.45 Q56.0 -4.9 56.65 -3.55 57.4 -2.0 57.4 0.1 57.4 1.9 56.65 3.5 56.0 4.95 54.35 6.75 L55.0 7.45 55.05 7.5 Q56.7 5.65 57.5 4.0 58.4 2.2 58.4 0.1 58.4 -2.2 57.5 -4.0 56.8 -5.5 55.05 -7.1 L55.0 -7.05 M10.3 -41.0 L10.35 -41.0 11.1 -41.45 7.9 -44.0 6.15 -44.75 4.25 -45.05 7.4 -45.15 -0.6 -45.05 2.7 -45.05 1.0 -44.7 -0.75 -44.0 Q-2.65 -43.0 -3.9 -41.45 L-3.2 -41.0 -3.15 -41.0 Q-1.5 -42.7 -0.1 -43.4 L1.2 -43.9 2.05 -44.05 3.5 -44.2 3.6 -44.2 5.3 -44.0 5.35 -44.0 7.0 -43.4 Q8.35 -42.7 10.3 -41.0 M16.3 -26.05 L15.65 -25.45 Q17.3 -23.9 17.95 -22.55 18.7 -21.0 18.7 -18.9 18.7 -17.1 17.95 -15.5 17.3 -14.05 15.65 -12.25 L16.3 -11.55 16.35 -11.5 Q18.0 -13.35 18.8 -15.0 19.7 -16.8 19.7 -18.9 19.7 -21.2 18.8 -23.0 18.1 -24.5 16.35 -26.1 L16.3 -26.05 M43.9 -20.9 L43.95 -20.85 44.8 -21.8 Q43.65 -22.8 42.15 -23.7 L42.1 -23.65 41.4 -22.85 43.35 -21.4 43.9 -20.9 M45.2 -22.5 L45.25 -22.45 46.1 -23.4 43.45 -25.3 43.4 -25.25 42.75 -24.45 45.2 -22.5 M43.35 -14.55 L43.4 -14.5 45.05 -15.9 Q43.8 -17.6 41.85 -19.3 L37.2 -22.75 37.15 -22.7 35.85 -21.45 Q40.8 -18.15 43.35 -14.55 M38.2 4.5 L38.25 4.55 39.9 3.2 Q37.45 -0.25 32.05 -3.65 L32.0 -3.6 30.65 -2.4 Q35.65 0.9 38.2 4.5 M38.2 17.1 L38.25 17.15 39.1 16.2 Q37.95 15.2 36.45 14.3 L36.4 14.35 35.7 15.15 Q36.65 15.7 37.65 16.6 L38.2 17.1 M31.45 15.3 L30.15 16.55 Q35.1 19.85 37.65 23.45 L37.7 23.5 39.35 22.1 Q38.1 20.4 36.15 18.7 34.2 16.95 31.5 15.25 L31.45 15.3 M39.5 15.5 L39.55 15.55 40.4 14.6 37.75 12.7 37.7 12.75 37.05 13.55 39.5 15.5 M15.8 7.7 L15.9 7.7 16.75 5.9 16.75 4.45 16.65 4.45 15.25 4.45 15.25 5.9 15.9 5.9 15.25 7.7 15.8 7.7 M12.35 7.7 L12.45 7.7 13.3 5.9 13.3 4.45 13.2 4.45 11.8 4.45 11.8 5.9 12.45 5.9 11.8 7.7 12.35 7.7 M7.45 25.1 Q10.5 23.15 12.75 20.3 14.45 18.05 15.85 14.2 16.5 13.95 16.05 13.7 L14.25 12.9 14.25 12.95 Q13.0 17.35 10.95 19.85 8.85 22.3 5.85 23.85 L7.45 25.1 M28.45 44.2 L28.5 44.25 Q32.7 40.5 34.0 33.0 34.45 32.9 34.0 32.6 L32.6 31.95 32.6 32.0 Q31.25 39.65 27.45 42.85 L28.45 44.2 M37.45 42.45 L36.05 42.45 36.05 43.9 37.45 43.9 37.55 43.9 37.55 42.45 37.45 42.45 M70.7 4.5 L70.75 4.55 72.4 3.2 Q69.95 -0.25 64.55 -3.65 L64.5 -3.6 63.15 -2.4 Q68.15 0.9 70.7 4.5 M77.65 11.95 L77.0 12.55 Q78.65 14.1 79.3 15.45 80.05 17.0 80.05 19.1 80.05 20.9 79.3 22.5 78.65 23.95 77.0 25.75 L77.65 26.45 77.7 26.5 Q79.35 24.65 80.15 23.0 81.05 21.2 81.05 19.1 L81.05 18.95 80.75 16.95 80.75 16.9 80.6 14.95 80.15 15.0 Q79.45 13.5 77.7 11.9 L77.65 11.95 M54.4 26.45 L54.45 26.5 Q56.1 24.65 56.9 23.0 57.8 21.2 57.8 19.1 57.8 16.8 56.9 15.0 56.2 13.5 54.45 11.9 L54.4 11.95 53.75 12.55 Q55.4 14.1 56.05 15.45 56.8 17.0 56.8 19.1 56.8 20.9 56.05 22.5 55.4 23.95 53.75 25.75 L54.4 26.45 M55.05 44.2 L55.1 44.2 Q59.25 40.4 60.55 33.0 61.0 32.9 60.55 32.6 L59.15 31.95 59.15 32.0 Q57.8 39.65 54.0 42.85 L55.0 44.2 55.05 44.2 M52.2 42.45 L50.8 42.45 50.8 43.9 52.2 43.9 52.3 43.9 52.3 42.45 52.2 42.45 M74.6 24.9 L74.7 24.9 74.7 23.45 74.6 23.45 73.2 23.45 73.2 24.9 74.6 24.9 M-80.3 26.45 L-80.25 26.45 -79.5 25.7 Q-82.6 22.85 -82.55 19.2 -82.6 15.55 -79.5 12.7 L-80.25 11.95 -80.3 11.95 -83.1 16.2 -83.45 17.75 -83.25 21.7 -82.8 23.0 -80.3 26.45 M-75.55 36.0 L-75.5 36.0 -74.7 35.05 -76.1 33.95 -77.45 33.0 -78.1 33.95 Q-76.75 34.85 -75.55 36.0 M-74.7 32.4 Q-75.4 31.85 -76.05 31.4 L-76.7 32.35 Q-75.35 33.3 -74.15 34.35 L-74.15 34.4 -74.1 34.4 -73.35 33.5 -74.7 32.4 M-27.15 -43.9 L-24.8 -44.2 -24.75 -44.2 -23.0 -44.0 -21.3 -43.4 Q-19.95 -42.7 -18.05 -41.0 L-17.3 -41.45 Q-18.85 -43.05 -20.45 -44.0 L-21.25 -44.4 -22.8 -44.9 -23.55 -45.0 -24.75 -45.1 -24.8 -45.1 -26.5 -44.9 -27.5 -44.65 -27.55 -44.65 -28.3 -44.35 -29.05 -44.0 Q-30.95 -43.0 -32.2 -41.45 L-31.5 -41.0 Q-29.85 -42.7 -28.45 -43.4 L-27.15 -43.9 M-33.8 -23.2 L-33.75 -23.2 -31.4 -26.5 -31.45 -26.5 -33.25 -26.5 -34.95 -23.2 -33.8 -23.2 M-7.95 -24.9 L-5.6 -25.2 -5.55 -25.2 -3.8 -25.0 -2.1 -24.4 Q-0.75 -23.7 1.15 -22.0 L1.9 -22.45 -1.25 -25.0 -2.75 -25.65 -5.55 -26.1 -5.6 -26.1 -8.25 -25.65 -9.85 -25.0 Q-11.75 -24.0 -13.0 -22.45 L-12.3 -22.0 Q-10.65 -23.7 -9.25 -24.4 L-7.95 -24.9 M-15.8 -3.0 Q-14.15 -4.7 -12.75 -5.4 L-11.45 -5.9 -9.1 -6.2 -9.05 -6.2 -7.3 -6.0 Q-6.4 -5.8 -5.6 -5.4 -4.25 -4.7 -2.35 -3.0 L-1.6 -3.45 Q-3.15 -5.05 -4.75 -6.0 L-6.25 -6.65 -9.05 -7.1 -9.1 -7.1 -11.75 -6.65 -13.35 -6.0 Q-15.25 -5.0 -16.5 -3.45 L-15.8 -3.0 M-63.8 -11.9 L-63.75 -11.9 -63.75 -20.95 Q-61.75 -22.65 -60.5 -24.3 -59.5 -24.5 -60.05 -24.9 L-61.3 -26.0 -61.3 -25.95 Q-64.85 -20.7 -71.65 -17.8 L-71.75 -17.65 -71.7 -17.7 -71.75 -17.6 -70.7 -16.4 Q-67.65 -17.9 -65.35 -19.6 L-65.3 -19.65 -65.3 -11.9 -63.8 -11.9 M-60.45 7.45 L-59.7 6.7 Q-62.75 3.85 -62.75 0.2 -62.75 -3.45 -59.7 -6.3 L-60.45 -7.05 -60.45 -7.0 Q-63.75 -3.95 -63.75 0.2 -63.75 4.3 -60.45 7.45 M-36.95 -23.2 L-36.9 -23.2 -34.6 -26.5 -34.65 -26.5 -36.45 -26.5 -38.1 -23.2 -36.95 -23.2 M-45.45 -23.2 L-45.4 -23.2 -43.1 -26.5 -43.15 -26.5 -44.95 -26.5 -46.6 -23.2 -45.45 -23.2 M-42.3 -23.2 L-42.25 -23.2 -39.9 -26.5 -39.95 -26.5 -41.75 -26.5 -43.45 -23.2 -42.3 -23.2 M-30.15 6.7 L-30.1 6.7 -29.65 4.9 Q-32.45 3.4 -35.55 2.6 L-35.55 2.65 -35.8 4.15 Q-32.75 5.15 -30.15 6.7 M-31.7 -5.1 L-35.3 -6.05 -35.55 -4.45 -34.45 -4.15 -30.9 -2.95 -30.85 -2.95 -30.45 -4.65 -31.7 -5.1 M-30.9 1.5 L-30.85 1.5 -30.3 -0.1 -35.2 -1.75 -35.2 -1.7 -35.55 -0.25 Q-33.05 0.65 -30.9 1.5 M-50.15 26.1 L-50.1 26.1 -50.1 16.8 -47.85 13.5 Q-47.3 13.5 -47.7 13.1 L-48.9 12.1 -48.9 12.15 Q-51.75 17.6 -55.6 20.25 L-54.7 21.45 Q-52.95 20.05 -51.5 18.45 L-51.45 18.4 -51.45 26.1 -50.15 26.1 M-56.95 45.35 L-56.3 45.35 -56.3 44.7 Q-59.35 41.85 -59.35 38.2 -59.35 34.55 -56.3 31.7 L-57.05 30.95 -57.05 31.0 Q-60.35 34.05 -60.35 38.2 -60.35 42.2 -57.2 45.35 L-56.95 45.35 M-53.3 42.45 L-54.75 42.45 -54.75 43.9 -53.3 43.9 -53.25 43.9 -53.25 42.45 -53.3 42.45 M-14.15 18.8 L-14.1 18.8 -14.1 17.35 -14.15 17.35 -15.6 17.35 -15.6 18.8 -14.15 18.8 M-10.7 17.35 L-12.15 17.35 -12.15 18.8 -10.7 18.8 -10.65 18.8 -10.65 17.35 -10.7 17.35 M-14.15 23.45 L-15.6 23.45 -15.6 24.9 -14.95 24.9 -15.6 26.7 -15.0 26.7 -14.95 26.7 -14.1 24.9 -14.1 23.45 -14.15 23.45 M-21.2 26.7 L-20.25 25.45 Q-21.65 23.5 -22.5 22.65 L-22.5 22.7 -23.35 23.85 Q-22.55 24.7 -21.2 26.7 M-23.3 44.7 L-23.25 44.7 -22.8 42.9 Q-25.6 41.4 -28.7 40.6 L-28.7 40.65 -28.95 42.15 Q-25.9 43.15 -23.3 44.7 M-24.85 32.9 L-28.45 31.95 -28.7 33.55 -27.6 33.85 -24.05 35.05 -24.0 35.05 -23.6 33.35 -24.85 32.9 M-24.05 39.5 L-24.0 39.5 -23.45 37.9 -28.35 36.25 -28.35 36.3 -28.7 37.75 -24.05 39.5 M3.2 26.7 L3.25 26.7 4.1 24.9 4.1 23.45 4.05 23.45 2.6 23.45 2.6 24.9 3.25 24.9 2.6 26.7 3.2 26.7 M-10.7 23.45 L-12.15 23.45 -12.15 24.9 -11.5 24.9 -12.15 26.7 -11.55 26.7 -11.5 26.7 -10.65 24.9 -10.65 23.45 -10.7 23.45 M3.05 43.9 L3.1 43.9 3.1 42.45 3.05 42.45 1.6 42.45 1.6 43.9 3.05 43.9" fill="#ffffff" fill-rule="evenodd" stroke="none"/>
    <path d="M61.15 -22.7 L65.8 -19.3 Q67.75 -17.6 68.95 -15.9 L67.35 -14.55 Q64.8 -18.15 59.85 -21.45 L61.15 -22.7 M67.9 -20.9 L67.35 -21.4 65.4 -22.85 66.1 -23.65 68.7 -21.8 67.9 -20.9 M69.2 -22.5 L66.75 -24.45 66.8 -24.6 67.25 -25.2 67.3 -25.15 67.4 -25.15 67.5 -25.15 67.55 -25.2 69.9 -23.5 69.9 -23.45 69.9 -23.35 69.9 -23.25 69.2 -22.5 M39.6 -33.9 L33.1 -39.85 32.35 -40.4 32.25 -40.4 32.2 -40.4 31.45 -39.85 27.8 -35.7 26.55 -37.15 31.45 -41.95 31.8 -42.2 31.85 -42.2 32.1 -42.3 32.25 -42.35 32.35 -42.35 33.25 -42.0 40.9 -35.3 41.05 -35.2 39.6 -33.9 M21.0 -45.45 L21.1 -45.45 23.55 -42.5 22.1 -42.5 18.85 -45.35 18.85 -45.4 18.8 -45.45 18.85 -45.45 21.0 -45.45 M-54.9 -41.35 L-54.8 -41.35 -54.75 -41.35 -54.4 -41.25 -53.75 -40.85 Q-52.95 -40.05 -53.15 -37.35 L-53.1 -37.4 -53.1 -37.35 Q-51.5 -39.65 -48.6 -41.4 L-47.8 -40.35 Q-51.65 -38.2 -53.25 -35.4 -53.7 -31.1 -54.7 -30.1 -55.1 -29.7 -55.35 -29.65 L-55.45 -29.7 -55.7 -30.55 Q-55.7 -32.15 -54.25 -35.7 -54.2 -39.25 -54.65 -39.75 L-55.05 -39.95 -55.1 -39.95 Q-55.6 -39.95 -56.35 -38.95 L-56.5 -39.05 -57.2 -39.7 -57.2 -39.75 -57.3 -39.85 -57.2 -39.95 -57.25 -39.95 Q-56.1 -41.3 -54.95 -41.35 L-54.9 -41.35 M-76.8 -6.15 L-76.65 -6.15 -76.6 -6.2 -76.1 -5.9 -83.15 6.65 -83.65 6.35 -83.65 6.25 -83.7 6.15 -83.75 6.15 -76.8 -6.15 M-82.35 42.25 L-82.3 42.25 -82.3 42.15 -82.3 42.1 -81.65 41.75 -77.1 40.5 -77.05 40.5 Q-80.9 38.7 -82.45 32.65 L-82.45 32.1 -81.0 31.75 -80.95 31.75 -80.75 31.75 Q-80.4 31.7 -80.8 32.15 L-80.1 34.55 -80.05 34.75 -79.95 34.95 Q-78.3 38.7 -73.95 40.1 L-74.95 41.9 -80.3 42.95 -81.05 43.25 -81.25 43.25 -81.3 43.25 -81.35 43.25 -82.35 42.25 M75.35 44.0 L75.3 44.0 75.05 44.0 73.7 42.9 73.7 42.85 Q76.7 41.3 78.75 38.85 80.8 36.35 82.05 31.95 L83.3 32.5 83.45 33.25 83.5 33.3 83.5 33.35 Q82.1 37.1 80.45 39.3 78.3 42.1 75.35 44.0 M83.75 33.15 L83.7 32.7 83.75 32.7 Q84.1 32.9 83.75 33.15 M76.2 7.45 L75.55 6.75 Q77.2 4.95 77.85 3.5 78.6 1.9 78.6 0.1 78.6 -2.0 77.85 -3.55 77.2 -4.9 75.55 -6.45 L76.1 -6.95 76.2 -6.95 76.3 -6.95 Q77.95 -5.45 78.6 -4.0 79.5 -2.2 79.5 0.1 L79.5 0.4 79.4 0.45 79.4 0.5 79.45 1.25 78.6 4.0 Q77.8 5.65 76.2 7.45 M55.0 7.45 L54.35 6.75 Q56.0 4.95 56.65 3.5 57.4 1.9 57.4 0.1 57.4 -2.0 56.65 -3.55 56.0 -4.9 54.35 -6.45 L55.0 -7.05 Q56.7 -5.5 57.4 -4.0 58.3 -2.2 58.3 0.1 58.3 2.2 57.4 4.0 56.6 5.65 55.0 7.45 M6.15 -44.75 L7.85 -44.0 11.0 -41.45 10.3 -41.0 Q8.35 -42.7 7.0 -43.4 L5.35 -44.0 5.3 -44.0 3.6 -44.2 3.5 -44.2 2.05 -44.05 1.15 -43.9 -0.15 -43.4 Q-1.55 -42.7 -3.15 -41.0 L-3.2 -41.0 -3.9 -41.45 Q-2.65 -43.0 -0.75 -44.0 L1.0 -44.7 2.7 -45.05 3.5 -45.1 3.7 -45.1 4.2 -45.05 4.25 -45.05 6.15 -44.75 M16.3 -11.55 L15.65 -12.25 Q17.3 -14.05 17.95 -15.5 18.7 -17.1 18.7 -18.9 18.7 -21.0 17.95 -22.55 17.3 -23.9 15.65 -25.45 L16.3 -26.05 Q18.0 -24.5 18.7 -23.0 19.6 -21.2 19.6 -18.9 19.6 -16.8 18.7 -15.0 17.9 -13.35 16.3 -11.55 M43.9 -20.9 L43.35 -21.4 41.4 -22.85 42.1 -23.65 44.7 -21.8 43.9 -20.9 M45.2 -22.5 L42.75 -24.45 43.4 -25.25 46.0 -23.4 45.2 -22.5 M43.35 -14.55 Q40.8 -18.15 35.85 -21.45 L37.15 -22.7 Q39.85 -21.05 41.8 -19.3 43.75 -17.6 44.95 -15.9 L43.35 -14.55 M32.0 -3.6 Q37.35 -0.25 39.8 3.2 L38.2 4.5 Q35.65 0.9 30.65 -2.4 L32.0 -3.6 M38.2 17.1 L37.65 16.6 Q36.65 15.7 35.7 15.15 L36.4 14.35 39.0 16.2 38.2 17.1 M37.65 23.45 Q35.1 19.85 30.15 16.55 L31.45 15.3 Q34.15 16.95 36.1 18.7 38.05 20.4 39.25 22.1 L37.65 23.45 M39.5 15.5 L37.05 13.55 37.7 12.75 Q39.2 13.6 40.3 14.6 L39.5 15.5 M16.65 4.45 L16.65 5.9 15.8 7.7 15.25 7.7 15.9 5.9 15.25 5.9 15.25 4.45 16.65 4.45 M13.2 4.45 L13.2 5.9 12.35 7.7 11.8 7.7 12.45 5.9 11.8 5.9 11.8 4.45 13.2 4.45 M7.45 25.1 L5.85 23.85 Q8.85 22.3 10.95 19.85 13.0 17.35 14.25 12.95 L15.95 13.7 Q16.4 13.95 15.75 14.2 14.35 18.05 12.65 20.3 10.45 23.15 7.45 25.1 M28.45 44.2 L27.45 42.85 Q31.25 39.65 32.6 32.0 L33.9 32.6 Q34.35 32.9 33.9 33.0 32.6 40.45 28.45 44.2 M37.45 43.9 L36.05 43.9 36.05 42.45 37.45 42.45 37.45 43.9 M64.5 -3.6 Q69.85 -0.25 72.3 3.2 L70.7 4.5 Q68.15 0.9 63.15 -2.4 L64.5 -3.6 M77.65 26.45 L77.0 25.75 Q78.65 23.95 79.3 22.5 80.05 20.9 80.05 19.1 80.05 17.0 79.3 15.45 78.65 14.1 77.0 12.55 L77.65 11.95 Q79.35 13.5 80.05 15.0 L80.65 16.6 80.7 16.9 80.7 16.95 80.95 18.95 80.95 19.1 Q80.95 21.2 80.05 23.0 79.25 24.65 77.65 26.45 M54.4 26.45 L53.75 25.75 Q55.4 23.95 56.05 22.5 56.8 20.9 56.8 19.1 56.8 17.0 56.05 15.45 55.4 14.1 53.75 12.55 L54.4 11.95 Q56.1 13.5 56.8 15.0 57.7 16.8 57.7 19.1 57.7 21.2 56.8 23.0 56.0 24.65 54.4 26.45 M55.05 44.2 L55.0 44.2 54.0 42.85 Q57.8 39.65 59.15 32.0 L60.45 32.6 Q60.9 32.9 60.45 33.0 59.15 40.4 55.05 44.2 M52.2 43.9 L50.8 43.9 50.8 42.45 52.2 42.45 52.2 43.9 M74.6 23.45 L74.6 24.9 73.2 24.9 73.2 23.45 74.6 23.45 M-80.3 11.95 L-79.55 12.7 Q-82.6 15.55 -82.6 19.2 -82.6 22.85 -79.55 25.7 L-80.3 26.45 -82.8 23.0 -83.25 21.7 -83.45 17.75 -83.1 16.2 -80.3 11.95 M-75.55 36.0 Q-76.75 34.85 -78.1 33.95 L-77.45 33.0 -76.1 33.95 -74.75 35.05 -75.55 36.0 M-74.15 34.4 L-74.15 34.35 Q-75.35 33.3 -76.7 32.35 L-76.05 31.4 Q-75.4 31.85 -74.7 32.4 L-73.4 33.5 -74.15 34.4 M-18.05 -41.0 Q-19.95 -42.7 -21.3 -43.4 L-23.0 -44.0 -24.75 -44.2 -24.8 -44.2 -27.15 -43.9 -28.5 -43.4 Q-29.9 -42.7 -31.5 -41.0 L-32.2 -41.45 Q-30.95 -43.0 -29.05 -44.0 L-28.3 -44.35 -27.55 -44.65 -27.5 -44.65 -26.5 -44.9 -24.8 -45.1 -24.75 -45.1 -23.55 -45.0 -22.85 -44.9 -21.3 -44.4 -20.5 -44.0 -17.35 -41.45 -18.05 -41.0 M-31.45 -26.5 L-33.8 -23.2 -34.95 -23.2 -33.25 -26.5 -31.45 -26.5 M1.15 -22.0 Q-0.75 -23.7 -2.1 -24.4 L-3.8 -25.0 -5.55 -25.2 -5.6 -25.2 -7.95 -24.9 -9.3 -24.4 Q-10.7 -23.7 -12.3 -22.0 L-13.0 -22.45 Q-11.75 -24.0 -9.85 -25.0 L-8.25 -25.65 -5.6 -26.1 -5.55 -26.1 -2.75 -25.65 -1.3 -25.0 1.85 -22.45 1.15 -22.0 M-11.45 -5.9 L-12.8 -5.4 Q-14.2 -4.7 -15.8 -3.0 L-16.5 -3.45 Q-15.25 -5.0 -13.35 -6.0 L-11.75 -6.65 -9.1 -7.1 -9.05 -7.1 -6.25 -6.65 -4.8 -6.0 Q-3.2 -5.05 -1.65 -3.45 L-2.35 -3.0 Q-4.25 -4.7 -5.6 -5.4 -6.4 -5.8 -7.3 -6.0 L-9.05 -6.2 -9.1 -6.2 -11.45 -5.9 M-61.3 -25.95 L-60.1 -24.9 Q-59.55 -24.5 -60.55 -24.3 -61.8 -22.65 -63.8 -20.95 L-63.8 -11.9 -65.3 -11.9 -65.3 -19.65 -65.35 -19.6 -65.35 -19.65 Q-67.65 -17.9 -70.7 -16.4 L-71.75 -17.6 -71.7 -17.7 -71.75 -17.65 -71.65 -17.8 Q-64.85 -20.7 -61.3 -25.95 M-60.45 -7.0 L-59.75 -6.3 Q-62.8 -3.45 -62.8 0.2 -62.8 3.85 -59.75 6.7 L-60.45 7.45 Q-63.75 4.3 -63.75 0.2 -63.75 -3.95 -60.45 -7.0 M-36.95 -23.2 L-38.1 -23.2 -36.45 -26.5 -34.65 -26.5 -36.95 -23.2 M-45.45 -23.2 L-46.6 -23.2 -44.95 -26.5 -43.15 -26.5 -45.45 -23.2 M-42.3 -23.2 L-43.45 -23.2 -41.75 -26.5 -39.95 -26.5 -42.3 -23.2 M-30.15 6.7 Q-32.75 5.15 -35.8 4.15 L-35.55 2.65 Q-32.5 3.4 -29.7 4.9 L-30.15 6.7 M-30.9 -2.95 L-34.45 -4.15 -35.55 -4.45 -35.3 -6.05 -31.7 -5.1 -30.5 -4.65 -30.9 -2.95 M-30.9 1.5 Q-33.05 0.65 -35.55 -0.25 L-35.2 -1.7 -30.35 -0.1 -30.9 1.5 M-50.15 26.1 L-51.45 26.1 -51.45 18.4 -51.5 18.45 -51.5 18.4 -54.7 21.45 -55.6 20.25 Q-51.75 17.6 -48.9 12.15 L-47.75 13.1 Q-47.35 13.5 -47.85 13.5 L-47.9 13.5 -50.15 16.8 -50.15 26.1 M-57.05 31.0 L-56.35 31.7 Q-59.4 34.55 -59.4 38.2 -59.4 41.85 -56.35 44.7 L-56.95 45.35 -57.2 45.35 Q-60.35 42.2 -60.35 38.2 -60.35 34.05 -57.05 31.0 M-53.3 43.9 L-54.75 43.9 -54.75 42.45 -53.3 42.45 -53.3 43.9 M-14.15 17.35 L-14.15 18.8 -15.6 18.8 -15.6 17.35 -14.15 17.35 M-10.7 18.8 L-12.15 18.8 -12.15 17.35 -10.7 17.35 -10.7 18.8 M-15.0 26.7 L-15.6 26.7 -14.95 24.9 -15.6 24.9 -15.6 23.45 -14.15 23.45 -14.15 24.9 -15.0 26.7 M-22.5 22.7 L-20.3 25.45 -21.2 26.7 Q-22.55 24.7 -23.35 23.85 L-22.5 22.7 M-23.3 44.7 Q-25.9 43.15 -28.95 42.15 L-28.7 40.65 Q-25.65 41.4 -22.85 42.9 L-23.3 44.7 M-24.05 35.05 L-27.6 33.85 -28.7 33.55 -28.45 31.95 -24.85 32.9 -23.65 33.35 -24.05 35.05 M-24.05 39.5 L-28.7 37.75 -28.35 36.3 -23.5 37.9 -24.05 39.5 M4.05 23.45 L4.05 24.9 3.2 26.7 2.6 26.7 3.25 24.9 2.6 24.9 2.6 23.45 4.05 23.45 M-11.55 26.7 L-12.15 26.7 -11.5 24.9 -12.15 24.9 -12.15 23.45 -10.7 23.45 -10.7 24.9 -11.55 26.7 M3.05 42.45 L3.05 43.9 1.6 43.9 1.6 42.45 3.05 42.45" fill="#000000" fill-rule="evenodd" stroke="none"/>
  </g>
  <g transform="matrix(1.0, 0.0, 0.0, 1.0, 83.9, 91.2)" data-frame="2">
    <path d="M41.1 -75.25 L43.1 -75.7 42.6 -75.2 Q44.45 -73.45 44.7 -71.25 L44.7 -70.65 Q44.7 -68.1 42.6 -66.1 L43.1 -65.55 42.1 -61.35 41.6 -61.95 31.45 -53.5 31.55 -53.4 31.95 -52.95 31.95 -52.9 31.75 -52.75 31.6 -52.6 31.3 -52.6 24.8 -49.4 23.7 -44.6 23.7 -44.55 23.65 -44.35 23.6 -44.25 23.6 -44.2 23.55 -44.15 23.5 -44.05 23.5 -44.0 21.95 -41.9 21.7 -41.65 21.4 -41.4 21.4 -47.7 21.35 -47.7 Q21.75 -47.95 21.3 -48.0 L20.45 -48.15 20.45 -40.6 20.25 -40.45 21.15 -39.75 19.5 -32.85 19.45 -32.5 19.65 -32.45 19.9 -31.8 20.0 -31.6 20.5 -31.85 20.55 -31.85 22.55 -32.65 22.65 -32.7 25.35 -33.25 26.15 -33.2 Q26.95 -33.1 27.35 -32.7 28.05 -31.95 28.05 -30.85 28.05 -29.85 27.35 -29.15 26.65 -28.45 25.0 -28.2 L22.8 -28.0 23.05 -26.9 21.55 -21.9 21.4 -21.95 20.55 -22.05 20.55 -17.25 Q20.55 -14.75 18.9 -13.3 L18.6 -13.05 19.3 -12.15 23.6 -9.3 23.25 -8.75 24.9 -6.75 24.9 -6.65 25.4 -4.75 25.4 -4.2 Q25.4 -2.95 24.9 -1.8 L24.75 -1.55 24.6 -1.25 23.95 -0.3 23.85 -0.2 23.25 0.45 23.65 0.9 23.45 0.9 23.4 0.9 23.35 0.9 23.25 0.8 23.2 0.8 23.15 0.85 21.2 0.35 21.7 -0.25 11.6 -8.75 11.05 -8.1 9.9 -7.85 9.7 -8.05 8.75 -8.5 8.65 -7.95 8.0 -5.4 7.85 -5.0 7.8 -4.85 7.05 -3.2 6.75 -2.7 6.6 -2.5 5.75 -1.45 5.7 -1.35 5.65 -1.35 5.15 -0.85 5.35 -0.6 5.65 -0.15 5.3 -0.25 5.25 -0.25 Q5.15 -0.25 5.05 -0.35 4.95 -0.4 4.95 -0.4 L4.9 -0.3 1.75 -1.65 1.05 -2.55 Q-0.85 -0.5 -2.65 -0.5 -3.65 -0.55 -4.15 -1.0 -4.6 -1.45 -4.6 -2.6 L-4.6 -8.45 Q-4.25 -8.75 -4.65 -8.8 L-5.65 -8.8 -8.05 -17.2 -9.75 -13.45 -9.75 -18.65 -10.65 -18.65 -10.65 -13.45 -12.25 -13.45 -19.1 -8.1 -19.6 -8.75 -29.75 -0.25 -29.25 0.35 -31.85 1.0 -31.35 0.45 -31.45 0.35 -31.9 -0.2 -32.05 -0.35 -32.65 -1.25 -32.9 -1.7 -32.95 -1.8 -33.05 -2.1 Q-33.45 -3.1 -33.45 -4.2 L-33.45 -4.35 Q-33.45 -5.75 -32.95 -6.75 L-31.35 -8.75 -31.85 -9.25 -27.8 -13.55 -27.25 -12.95 -26.35 -13.7 -17.15 -21.4 -17.65 -22.05 -11.55 -27.45 -8.05 -27.45 -7.95 -27.35 -7.9 -27.45 -7.1 -27.45 -7.1 -28.3 -11.55 -28.3 Q-12.35 -28.3 -12.95 -28.65 L-13.5 -29.05 -13.55 -29.1 -13.8 -29.4 -14.1 -29.9 -14.15 -30.2 -14.25 -30.85 -13.8 -32.25 -13.7 -32.35 -13.55 -32.55 -13.25 -32.8 Q-12.55 -33.35 -11.55 -33.35 L-7.1 -33.35 -7.1 -34.25 -11.55 -34.25 -11.7 -34.25 Q-12.8 -34.2 -13.6 -33.65 L-21.9 -39.55 -21.8 -39.75 -21.45 -40.2 -31.55 -48.65 -32.2 -48.45 -33.45 -52.9 -33.0 -53.5 -43.1 -61.95 -43.6 -61.35 -43.65 -61.4 -47.7 -65.55 -47.15 -66.05 -47.35 -66.3 -48.3 -67.5 -48.75 -68.25 -48.75 -68.35 Q-49.3 -69.45 -49.3 -70.7 -49.3 -72.2 -48.75 -73.25 L-48.25 -74.1 -47.15 -75.3 -47.7 -75.75 -45.05 -75.25 -45.6 -74.65 -35.45 -66.2 -34.95 -66.8 -31.2 -61.95 -31.7 -61.35 -21.55 -52.9 -21.1 -53.5 -19.9 -60.45 -19.9 -60.55 -19.85 -60.45 -19.15 -58.8 -19.1 -58.65 -18.85 -57.9 -17.85 -58.65 -18.5 -60.3 -19.0 -61.3 -19.65 -60.75 -19.65 -61.15 -14.45 -73.9 -14.4 -73.85 -14.1 -74.35 -14.1 -73.75 -13.65 -73.75 -14.1 -72.35 -13.65 -72.35 -13.05 -73.75 -13.05 -74.8 -14.1 -74.8 -9.4 -76.0 -11.15 -73.95 -10.1 -73.95 -10.05 -74.05 -7.75 -76.0 1.65 -74.65 4.8 -66.6 5.65 -66.6 8.8 -74.65 20.0 -73.35 19.0 -72.45 19.3 -72.25 19.55 -72.1 19.8 -71.9 20.65 -71.3 20.75 -71.25 22.55 -69.65 23.15 -69.05 23.7 -68.4 23.75 -68.35 23.8 -68.25 24.0 -68.05 24.25 -67.65 24.3 -67.6 25.35 -68.45 25.45 -68.5 27.35 -64.25 27.25 -64.25 27.25 -63.75 27.45 -63.9 27.9 -63.0 27.5 -63.95 31.0 -66.75 31.05 -66.75 31.5 -66.2 41.6 -74.65 41.1 -75.25 M-12.25 -13.45 L-12.25 -21.4 -13.15 -21.4 -13.15 -13.45 -12.25 -13.45 M-8.1 -17.25 L-8.05 -17.2 -7.45 -16.5 -3.45 -12.55 -2.6 -13.4 -2.85 -13.7 -5.6 -16.25 -6.8 -17.25 -6.9 -17.35 -6.95 -17.65 -6.8 -18.0 -6.6 -18.15 -6.5 -18.25 -4.5 -20.25 -4.35 -20.4 -4.3 -20.45 -4.15 -20.6 -4.0 -20.7 -3.65 -21.1 -3.1 -21.8 Q-2.5 -21.7 -2.85 -22.15 L-2.9 -22.2 -3.7 -22.8 -3.95 -22.5 -4.05 -22.35 -4.05 -22.3 -4.2 -22.15 -5.15 -21.0 -5.45 -20.7 -5.7 -20.45 -6.95 -19.2 -7.65 -18.55 -8.1 -17.85 -8.3 -17.75 -8.1 -17.25 M5.3 -68.3 L2.75 -74.8 7.8 -74.8 7.7 -74.65 5.3 -68.3 M11.4 -73.15 L11.1 -73.35 10.15 -72.45 10.6 -72.15 13.75 -69.6 15.45 -67.6 16.6 -68.55 16.0 -69.3 15.35 -70.0 15.2 -70.2 12.05 -72.7 11.4 -73.15 M4.7 -59.6 L4.3 -59.85 4.1 -59.6 2.9 -57.65 Q2.4 -56.6 2.4 -55.5 2.4 -54.25 2.95 -53.75 3.45 -53.2 4.25 -53.2 5.05 -53.2 5.65 -53.75 L6.1 -54.35 Q6.15 -54.05 6.55 -53.65 7.0 -53.2 7.9 -53.2 8.9 -53.2 9.6 -53.85 10.5 -54.8 10.6 -56.7 L10.6 -57.0 10.6 -57.65 10.55 -58.1 10.1 -59.8 10.1 -59.85 9.2 -59.6 9.3 -59.2 9.35 -59.0 9.6 -57.0 Q9.6 -55.2 8.9 -54.45 8.45 -54.05 7.85 -54.05 7.3 -54.05 7.0 -54.35 6.65 -54.7 6.65 -55.15 L7.05 -56.05 7.3 -57.4 7.3 -57.45 Q7.3 -58.35 6.9 -58.35 L6.3 -57.7 6.05 -57.15 5.85 -56.45 5.85 -55.3 5.25 -54.45 Q4.8 -54.05 4.25 -54.0 3.8 -54.0 3.55 -54.3 3.25 -54.6 3.25 -55.5 3.25 -57.35 5.05 -59.4 L5.05 -59.6 4.7 -59.6 M0.2 -59.25 L0.2 -59.4 -1.25 -59.25 -5.1 -59.25 -5.1 -58.5 0.2 -58.5 0.2 -59.25 M12.7 -55.65 L18.0 -55.65 18.0 -56.4 12.7 -56.4 12.7 -55.65 M18.0 -58.5 L18.0 -59.25 12.7 -59.25 12.7 -58.5 18.0 -58.5 M19.55 -59.2 L19.75 -59.05 20.0 -58.9 20.1 -58.85 20.75 -58.35 21.8 -57.55 21.9 -57.45 Q21.95 -57.4 22.1 -57.3 L23.1 -56.35 23.2 -56.25 24.3 -55.05 24.45 -54.8 24.8 -54.4 24.85 -54.3 26.0 -55.3 25.2 -56.3 24.05 -57.45 23.8 -57.65 23.75 -57.7 22.0 -59.1 20.5 -60.1 19.55 -59.2 M0.2 -55.65 L0.2 -56.4 -5.1 -56.4 -5.1 -55.65 0.2 -55.65 M9.6 -49.85 L8.8 -49.55 Q8.5 -49.25 8.5 -48.8 8.5 -48.4 8.8 -48.0 9.15 -47.7 9.6 -47.7 9.95 -47.7 10.3 -48.0 L10.65 -48.8 10.3 -49.55 Q9.95 -49.85 9.6 -49.85 M25.3 -68.8 L25.35 -68.75 25.35 -68.7 25.3 -68.8 M25.6 -61.45 L24.9 -61.9 24.4 -61.3 25.4 -60.6 25.65 -60.4 25.75 -60.25 26.0 -60.05 26.05 -60.0 26.15 -59.9 26.75 -60.55 26.6 -60.7 26.5 -60.75 26.35 -60.9 25.6 -61.45 M27.55 -52.8 L28.05 -52.25 28.1 -52.3 28.4 -52.6 28.5 -52.75 28.55 -52.8 28.7 -52.9 28.7 -52.95 28.85 -53.1 28.9 -53.15 29.0 -53.3 29.0 -53.35 29.3 -53.7 29.35 -53.8 29.45 -53.9 29.75 -54.5 Q30.35 -55.85 30.35 -57.35 L30.35 -57.45 30.25 -58.5 29.55 -60.5 28.55 -61.9 28.35 -62.15 28.3 -62.2 28.2 -62.25 28.2 -62.3 28.05 -62.4 27.55 -61.9 27.7 -61.75 27.8 -61.65 27.85 -61.6 28.05 -61.45 28.35 -61.05 29.0 -60.0 29.6 -58.15 29.65 -57.45 29.65 -57.35 Q29.65 -55.55 28.6 -54.0 L28.45 -53.8 28.3 -53.6 28.2 -53.5 28.15 -53.4 28.05 -53.3 28.0 -53.2 27.65 -52.9 27.55 -52.8 M25.8 -59.45 L25.8 -59.5 25.65 -59.6 25.6 -59.65 25.4 -59.8 25.3 -59.85 25.1 -60.0 25.05 -60.05 23.95 -60.8 23.45 -60.2 24.75 -59.25 24.8 -59.15 24.9 -59.1 24.95 -59.05 25.0 -59.0 25.05 -58.95 25.25 -58.75 25.8 -59.45 M5.65 -40.95 L6.05 -41.45 6.65 -42.7 7.05 -45.05 7.05 -46.4 0.25 -46.4 0.25 -43.0 1.2 -43.0 1.2 -45.45 6.1 -45.45 6.1 -45.05 6.0 -43.95 Q5.8 -42.75 5.2 -41.9 L5.15 -41.85 Q4.2 -40.6 2.35 -40.0 L2.95 -39.2 Q4.6 -39.85 5.6 -40.9 L5.65 -40.85 5.65 -40.95 M9.05 -48.25 Q8.9 -48.45 8.9 -48.8 L9.05 -49.3 Q9.25 -49.5 9.6 -49.5 9.9 -49.5 10.05 -49.3 L10.25 -48.8 10.05 -48.25 9.6 -48.1 9.05 -48.25 M15.85 -46.7 L15.9 -46.9 16.05 -47.65 16.2 -47.8 16.05 -47.95 15.1 -48.4 15.0 -47.9 14.7 -46.6 13.75 -43.9 Q12.85 -41.95 11.45 -40.8 L12.2 -39.8 13.75 -41.6 Q15.15 -43.65 15.85 -46.7 M19.45 -47.25 L19.65 -47.4 19.4 -47.55 18.6 -47.65 18.5 -47.65 18.5 -44.85 Q18.5 -43.55 18.15 -42.35 L17.65 -41.2 17.6 -41.1 17.05 -40.15 18.0 -39.4 18.7 -40.8 18.7 -40.9 18.8 -41.1 18.95 -41.5 19.1 -42.05 19.15 -42.15 19.2 -42.5 19.4 -43.75 19.45 -44.85 19.45 -47.25 M3.85 -29.6 L3.85 -25.75 4.8 -25.75 4.8 -31.1 5.3 -32.15 5.5 -32.25 5.4 -32.4 4.6 -32.85 3.5 -30.95 Q2.7 -29.9 1.6 -29.15 L2.15 -28.3 3.65 -29.55 3.85 -29.6 M8.95 -34.8 L8.95 -35.85 Q9.25 -36.1 8.9 -36.1 L8.0 -36.1 8.0 -34.8 5.7 -34.8 5.7 -35.85 Q6.0 -36.1 5.65 -36.1 L4.8 -36.1 4.8 -34.8 1.85 -34.8 1.85 -33.9 4.8 -33.9 4.8 -32.95 5.7 -32.95 5.7 -33.9 8.0 -33.9 8.0 -32.95 8.95 -32.95 8.95 -33.9 11.9 -33.9 11.9 -34.8 8.95 -34.8 M0.6 -34.55 L0.15 -35.0 -4.5 -30.75 0.15 -26.45 0.6 -26.9 -3.55 -30.75 0.6 -34.55 M7.9 -32.45 Q8.15 -32.7 7.9 -32.75 L6.95 -32.75 6.95 -26.9 Q6.95 -26.45 7.25 -26.2 L7.85 -26.05 10.9 -26.05 11.3 -26.1 Q11.8 -26.25 11.9 -26.85 L12.05 -27.95 11.05 -28.2 10.9 -27.2 10.55 -26.9 8.1 -26.9 7.9 -27.15 7.9 -29.6 9.45 -30.1 11.3 -31.1 11.4 -31.15 11.45 -31.15 Q11.75 -31.15 11.6 -31.4 L10.9 -32.15 9.4 -31.15 7.9 -30.45 7.9 -32.45 M7.6 -12.7 L4.05 -12.7 4.05 -12.15 7.6 -12.15 7.6 -12.7 M3.75 -21.7 L3.3 -22.0 -1.6 -13.2 -1.15 -12.9 3.75 -21.7 M9.55 -23.5 L8.65 -23.5 8.65 -11.7 9.55 -11.7 9.55 -23.5 M12.2 -22.95 L11.45 -22.5 14.25 -17.55 11.45 -12.6 12.2 -12.2 15.3 -17.55 12.2 -22.95 M18.5 -21.35 L18.25 -21.5 17.4 -21.55 17.4 -16.35 18.3 -16.35 18.3 -21.15 18.5 -21.35 M13.7 -35.0 L13.25 -34.55 17.4 -30.75 13.25 -26.9 13.7 -26.45 18.3 -30.75 13.7 -35.0 M2.9 -7.25 L3.35 -7.25 2.9 -5.85 3.35 -5.85 3.95 -7.25 3.95 -8.25 2.9 -8.25 2.9 -7.25 M-18.8 -53.35 L-18.15 -52.4 -17.1 -53.3 Q-15.7 -54.85 -15.05 -57.15 L-14.75 -58.7 -14.7 -58.9 -14.55 -60.55 -14.4 -60.65 -14.55 -60.85 -15.5 -61.3 -15.7 -59.2 -15.85 -58.35 -15.9 -58.2 -15.9 -58.0 -16.05 -57.45 Q-16.9 -54.7 -18.8 -53.4 L-18.8 -53.35 M-12.1 -60.05 L-12.1 -61.25 -13.0 -61.25 -13.0 -60.05 -12.1 -60.05 M-12.1 -58.55 L-13.0 -58.55 -13.0 -53.35 -12.1 -53.35 -12.1 -58.55 M-6.15 -61.25 L-7.15 -61.7 -7.75 -59.1 Q-8.05 -58.1 -8.45 -57.25 L-9.3 -55.7 Q-9.95 -54.75 -10.75 -54.1 L-10.0 -53.1 -9.9 -53.2 Q-8.2 -54.8 -7.15 -57.35 L-7.1 -57.5 -6.45 -59.55 -6.35 -60.1 -6.15 -61.0 Q-5.85 -61.05 -6.15 -61.25 M-17.45 -40.05 L-16.4 -40.05 -16.4 -41.05 -17.45 -41.05 -17.45 -40.05 M-16.3 -48.0 L-17.6 -48.0 -17.3 -42.75 -16.55 -42.75 -16.3 -48.0 M-19.05 -45.25 L-19.95 -45.25 -19.95 -40.05 -19.05 -40.05 -19.05 -45.25 M-19.05 -46.75 L-19.05 -47.95 -19.95 -47.95 -19.95 -46.75 -19.05 -46.75 M-11.4 -45.25 L-12.35 -45.25 -12.35 -40.05 -11.4 -40.05 -11.4 -45.25 M-13.95 -45.25 L-14.85 -45.25 -14.85 -40.05 -13.95 -40.05 -13.95 -45.25 M-13.95 -46.75 L-13.95 -47.95 -14.85 -47.95 -14.85 -46.75 -13.95 -46.75 M-12.35 -47.95 L-12.35 -46.75 -11.4 -46.75 -11.4 -47.95 -12.35 -47.95 M-8.9 -48.0 L-9.75 -48.1 -9.75 -42.9 -8.85 -42.9 -8.85 -47.65 -8.65 -47.9 -8.9 -48.0 M-5.65 -48.15 L-5.45 -48.35 -5.7 -48.5 -6.6 -48.6 -6.6 -43.75 Q-6.6 -42.3 -7.15 -41.2 L-7.25 -41.05 -8.55 -39.55 -7.85 -38.65 -7.4 -39.05 -6.8 -39.8 -6.45 -40.25 Q-6.1 -40.9 -5.9 -41.65 -5.65 -42.55 -5.65 -43.6 L-5.65 -48.15 M-3.25 -49.4 L-2.75 -49.2 Q-2.6 -49.05 -2.6 -48.7 -2.6 -48.35 -2.75 -48.2 -2.95 -48.05 -3.15 -48.0 L-3.25 -48.0 -3.8 -48.2 -3.85 -48.25 -3.95 -48.7 -3.8 -49.2 -3.25 -49.4 M-2.5 -47.95 Q-2.2 -48.3 -2.2 -48.7 -2.2 -49.15 -2.5 -49.45 -2.9 -49.8 -3.25 -49.75 -3.7 -49.8 -4.05 -49.45 L-4.35 -48.7 -4.35 -48.55 -4.3 -48.4 -4.05 -47.95 Q-3.7 -47.65 -3.25 -47.65 L-2.65 -47.85 -2.5 -47.95 M-8.15 -31.95 L-8.15 -32.1 -8.2 -32.1 -8.15 -31.95 M-9.75 -20.1 L-9.75 -21.35 -10.65 -21.35 -10.65 -20.1 -9.75 -20.1 M-14.8 -21.4 L-15.7 -21.4 -15.7 -13.45 -14.8 -13.45 -14.8 -21.4" fill="#ffffff" fill-rule="evenodd" stroke="none"/>
    <path d="M41.1 -75.25 L41.6 -74.65 31.5 -66.2 31.05 -66.75 31.0 -66.75 31.0 -66.85 41.1 -75.25 M25.35 -68.45 L24.3 -67.6 24.25 -67.65 24.0 -68.05 23.8 -68.25 23.75 -68.35 23.7 -68.4 23.15 -69.05 22.55 -69.65 20.75 -71.25 20.65 -71.3 19.8 -71.9 19.55 -72.1 19.3 -72.25 19.0 -72.45 20.0 -73.35 21.55 -72.25 21.8 -72.1 22.9 -71.25 23.85 -70.4 25.3 -68.8 25.35 -68.7 25.35 -68.45 M8.8 -74.65 L5.65 -66.6 4.8 -66.6 1.65 -74.65 2.75 -74.65 5.25 -68.2 5.3 -68.3 7.7 -74.65 8.8 -74.65 M-7.75 -76.0 L-10.05 -74.05 -10.1 -73.95 -11.15 -73.95 -9.4 -76.0 -7.75 -76.0 M-14.1 -74.8 L-13.05 -74.8 -13.05 -73.75 -13.65 -72.35 -14.1 -72.35 -13.65 -73.75 -14.1 -73.75 -14.1 -74.35 -14.1 -74.8 M-19.65 -60.75 L-19.0 -61.3 -18.5 -60.3 -17.85 -58.65 -18.85 -57.9 -19.1 -58.65 -19.15 -58.8 -19.85 -60.45 -19.9 -60.55 -19.65 -60.75 M-21.1 -53.5 L-21.55 -52.9 -31.7 -61.35 -31.2 -61.95 -21.1 -53.5 M-34.95 -66.8 L-35.45 -66.2 -45.6 -74.65 -45.05 -75.25 -34.95 -66.8 M-47.7 -75.75 L-47.15 -75.3 -48.25 -74.1 -48.75 -73.25 Q-49.3 -72.2 -49.3 -70.7 -49.3 -69.45 -48.75 -68.35 L-48.75 -68.25 -48.3 -67.5 -47.35 -66.3 -47.15 -66.05 -47.7 -65.55 -48.95 -67.25 -49.4 -68.0 -49.6 -68.5 Q-50.0 -69.55 -50.0 -70.7 -50.0 -72.05 -49.6 -73.1 L-49.4 -73.6 -49.1 -74.15 -47.7 -75.75 M-43.6 -61.35 L-43.1 -61.95 -33.0 -53.5 -33.45 -52.9 -43.6 -61.35 M-31.55 -48.65 L-21.45 -40.2 -21.8 -39.75 -21.9 -39.6 -32.05 -48.0 -31.55 -48.65 M-13.6 -33.65 Q-12.8 -34.2 -11.7 -34.25 L-11.55 -34.25 -7.1 -34.25 -7.1 -33.35 -11.55 -33.35 Q-12.55 -33.35 -13.25 -32.8 L-13.55 -32.55 -13.7 -32.35 -13.8 -32.25 -14.25 -30.85 -14.15 -30.2 -14.1 -29.9 -13.8 -29.4 -13.55 -29.1 -13.5 -29.05 -12.95 -28.65 Q-12.35 -28.3 -11.55 -28.3 L-7.1 -28.3 -7.1 -27.45 -7.9 -27.45 -8.05 -27.45 -11.55 -27.45 Q-12.9 -27.45 -13.75 -28.1 L-14.15 -28.4 Q-15.15 -29.45 -15.15 -30.85 -15.15 -31.95 -14.55 -32.8 L-14.15 -33.25 -13.6 -33.65 M-17.65 -22.05 L-17.15 -21.4 -26.35 -13.7 -26.9 -14.3 -17.65 -22.05 M-31.85 -9.25 L-31.35 -8.75 -32.95 -6.75 Q-33.45 -5.75 -33.45 -4.35 L-33.45 -4.2 Q-33.45 -3.1 -33.05 -2.1 L-32.95 -1.8 -32.9 -1.7 -32.65 -1.25 -32.05 -0.35 -31.9 -0.2 -31.45 0.35 -31.35 0.45 -31.85 1.0 -33.2 -0.75 -33.55 -1.45 -33.95 -2.6 -34.15 -4.2 -34.15 -4.3 Q-34.15 -5.85 -33.55 -7.05 -33.05 -8.15 -31.85 -9.25 M-29.25 0.35 L-29.75 -0.25 -19.6 -8.75 -19.1 -8.1 -29.25 0.35 M-12.25 -13.45 L-13.15 -13.45 -13.15 -21.4 -12.25 -21.4 -12.25 -13.45 M-10.65 -13.45 L-10.65 -18.65 -9.75 -18.65 -9.75 -13.45 -10.65 -13.45 M-8.05 -17.2 L-8.1 -17.25 -8.1 -17.3 -8.15 -17.55 -8.1 -17.85 -7.65 -18.55 -6.95 -19.2 -5.7 -20.45 -5.45 -20.7 -5.15 -21.0 -4.2 -22.15 -4.05 -22.3 -4.05 -22.35 -3.95 -22.5 -3.7 -22.8 -2.9 -22.2 -2.85 -22.15 Q-2.5 -21.7 -3.1 -21.8 L-3.65 -21.1 -4.0 -20.7 -4.15 -20.6 -4.3 -20.45 -4.35 -20.4 -4.5 -20.25 -6.5 -18.25 -6.6 -18.15 -6.8 -18.0 -6.95 -17.65 -6.9 -17.35 -6.8 -17.25 -5.6 -16.25 -2.85 -13.7 -2.6 -13.4 -3.45 -12.55 -7.45 -16.5 -8.05 -17.2 M-5.65 -8.8 L-4.65 -8.8 Q-4.25 -8.75 -4.6 -8.45 L-4.6 -2.6 Q-4.6 -1.45 -4.15 -1.0 -3.65 -0.55 -2.65 -0.5 -0.85 -0.5 1.05 -2.55 L1.75 -1.65 Q-0.25 0.55 -2.6 0.55 -4.25 0.55 -5.05 -0.25 -5.65 -0.9 -5.65 -2.6 L-5.65 -8.8 M5.35 -0.6 L5.15 -0.85 5.65 -1.35 5.7 -1.35 5.75 -1.45 6.6 -2.5 6.75 -2.7 6.85 -2.9 7.05 -3.2 7.8 -4.85 7.85 -5.0 8.0 -5.4 8.65 -7.95 8.75 -8.5 9.7 -8.05 9.9 -7.85 9.75 -7.75 9.7 -7.75 9.05 -5.05 8.45 -3.55 8.05 -2.75 6.45 -0.5 5.85 0.1 5.35 -0.6 M11.05 -8.1 L11.6 -8.75 21.7 -0.25 21.2 0.35 11.05 -8.1 M23.65 0.9 L23.25 0.45 23.85 -0.2 23.95 -0.3 24.6 -1.25 24.65 -1.3 24.75 -1.55 24.9 -1.8 Q25.4 -2.95 25.4 -4.2 L25.4 -4.75 25.35 -5.3 25.1 -6.2 24.9 -6.65 24.9 -6.75 23.25 -8.75 23.75 -9.25 Q24.95 -8.15 25.45 -7.05 L25.9 -5.95 26.05 -5.3 26.1 -4.2 Q26.1 -2.75 25.45 -1.45 L25.4 -1.3 25.35 -1.2 23.75 1.0 23.65 0.9 M19.3 -12.15 L18.6 -13.05 18.9 -13.3 Q20.55 -14.75 20.55 -17.25 L20.55 -22.05 21.4 -21.95 21.55 -21.9 21.5 -21.65 21.5 -17.05 Q21.5 -14.7 20.25 -13.1 L20.0 -12.8 19.3 -12.15 M23.05 -26.9 L22.8 -28.0 25.0 -28.2 Q26.65 -28.45 27.35 -29.15 28.05 -29.85 28.05 -30.85 28.05 -31.95 27.35 -32.7 26.95 -33.1 26.15 -33.2 L25.35 -33.25 22.65 -32.7 22.55 -32.65 22.3 -32.6 20.8 -32.0 20.55 -31.85 20.5 -31.85 20.0 -31.6 19.9 -31.8 19.5 -32.85 22.1 -33.55 22.6 -33.7 25.5 -34.25 26.3 -34.2 Q27.55 -34.05 28.25 -33.35 29.15 -32.45 29.15 -31.0 29.15 -29.4 28.3 -28.55 L26.7 -27.55 24.75 -27.05 23.05 -26.9 M21.15 -39.75 L20.25 -40.45 20.45 -40.6 20.45 -48.15 21.3 -48.0 Q21.75 -47.95 21.35 -47.7 L21.35 -41.35 21.4 -41.4 21.7 -41.65 21.95 -41.9 23.5 -44.0 23.5 -44.05 23.55 -44.15 23.6 -44.2 23.6 -44.25 24.25 -43.3 23.6 -42.25 23.4 -42.05 23.2 -41.75 22.8 -41.3 22.6 -41.1 21.8 -40.3 21.15 -39.75 M31.95 -52.9 L31.95 -52.95 31.55 -53.4 31.45 -53.5 41.6 -61.95 42.1 -61.35 32.0 -52.9 31.95 -52.9 M43.1 -65.55 L42.6 -66.1 Q44.7 -68.1 44.7 -70.65 L44.7 -71.25 Q44.45 -73.45 42.6 -75.2 L43.1 -75.7 Q45.15 -73.8 45.4 -71.25 L45.4 -70.65 Q45.4 -67.8 43.1 -65.55 M12.05 -72.7 L15.2 -70.2 15.35 -70.0 16.0 -69.3 16.6 -68.55 15.45 -67.6 13.75 -69.6 10.6 -72.15 10.15 -72.45 11.1 -73.35 11.4 -73.15 11.65 -73.0 12.05 -72.7 M5.05 -59.4 Q3.25 -57.35 3.25 -55.5 3.25 -54.6 3.55 -54.3 3.8 -54.0 4.25 -54.0 4.8 -54.05 5.25 -54.45 L5.85 -55.3 5.85 -56.45 6.05 -57.15 6.3 -57.7 6.9 -58.35 Q7.3 -58.35 7.3 -57.45 L7.3 -57.4 7.05 -56.05 6.65 -55.15 Q6.65 -54.7 7.0 -54.35 7.3 -54.05 7.85 -54.05 8.45 -54.05 8.9 -54.45 9.6 -55.2 9.6 -57.0 L9.35 -59.0 9.3 -59.2 9.2 -59.6 10.1 -59.85 10.1 -59.8 10.55 -58.1 10.6 -57.65 10.6 -57.0 10.6 -56.7 Q10.5 -54.8 9.6 -53.85 8.9 -53.2 7.9 -53.2 7.0 -53.2 6.55 -53.65 6.15 -54.05 6.1 -54.35 L5.65 -53.75 Q5.05 -53.2 4.25 -53.2 3.45 -53.2 2.95 -53.75 2.4 -54.25 2.4 -55.5 2.4 -56.6 2.9 -57.65 L4.1 -59.6 4.3 -59.85 4.7 -59.6 5.05 -59.4 M0.2 -59.25 L0.2 -58.5 -5.1 -58.5 -5.1 -59.25 -1.25 -59.25 0.2 -59.25 M9.6 -49.85 Q9.95 -49.85 10.3 -49.55 L10.65 -48.8 10.3 -48.0 Q9.95 -47.7 9.6 -47.7 9.15 -47.7 8.8 -48.0 8.5 -48.4 8.5 -48.8 8.5 -49.25 8.8 -49.55 L9.6 -49.85 M0.2 -55.65 L-5.1 -55.65 -5.1 -56.4 0.2 -56.4 0.2 -55.65 M19.55 -59.2 L20.5 -60.1 22.0 -59.1 23.75 -57.7 23.8 -57.65 24.05 -57.45 25.2 -56.3 26.0 -55.3 24.85 -54.3 24.8 -54.4 24.45 -54.8 24.3 -55.05 23.2 -56.25 23.1 -56.35 22.1 -57.3 Q21.95 -57.4 21.9 -57.45 L21.8 -57.55 20.75 -58.35 20.1 -58.85 20.0 -58.9 19.75 -59.05 19.55 -59.2 M18.0 -58.5 L12.7 -58.5 12.7 -59.25 18.0 -59.25 18.0 -58.5 M12.7 -55.65 L12.7 -56.4 18.0 -56.4 18.0 -55.65 12.7 -55.65 M26.35 -60.9 L26.5 -60.75 26.6 -60.7 26.75 -60.55 26.15 -59.9 26.05 -60.0 26.0 -60.05 25.75 -60.25 25.65 -60.4 25.4 -60.6 24.4 -61.3 24.9 -61.9 25.6 -61.45 25.9 -61.25 26.35 -60.9 M27.65 -52.9 L28.0 -53.2 28.05 -53.3 28.15 -53.4 28.2 -53.5 28.3 -53.6 28.45 -53.8 28.6 -54.0 Q29.65 -55.55 29.65 -57.35 L29.65 -57.45 29.6 -58.15 29.0 -60.0 28.35 -61.05 28.05 -61.45 27.85 -61.6 27.8 -61.65 27.7 -61.75 27.55 -61.9 28.05 -62.4 28.2 -62.3 28.2 -62.25 28.3 -62.2 28.35 -62.15 28.55 -61.9 29.55 -60.5 30.25 -58.5 30.35 -57.45 30.35 -57.35 Q30.35 -55.85 29.75 -54.5 L29.45 -53.9 29.35 -53.8 29.3 -53.7 29.0 -53.35 29.0 -53.3 28.9 -53.15 28.85 -53.1 28.7 -52.95 28.7 -52.9 28.55 -52.8 28.5 -52.75 28.4 -52.6 28.1 -52.3 28.05 -52.25 27.55 -52.8 27.6 -52.85 27.65 -52.9 M25.8 -59.45 L25.25 -58.75 25.05 -58.95 25.0 -59.0 24.95 -59.05 24.9 -59.1 24.8 -59.15 24.75 -59.25 23.45 -60.2 23.95 -60.8 25.05 -60.05 25.1 -60.0 25.3 -59.85 25.4 -59.8 25.6 -59.65 25.65 -59.6 25.8 -59.5 25.8 -59.45 M19.45 -47.25 L19.45 -44.85 19.4 -43.75 19.2 -42.5 19.15 -42.15 19.1 -42.05 18.95 -41.5 18.8 -41.1 18.7 -40.9 18.7 -40.8 18.0 -39.4 17.05 -40.15 17.6 -41.1 17.65 -41.2 18.15 -42.35 Q18.5 -43.55 18.5 -44.85 L18.5 -47.65 18.6 -47.65 19.4 -47.55 19.65 -47.4 19.45 -47.25 M15.85 -46.7 Q15.15 -43.65 13.75 -41.6 L12.2 -39.8 11.45 -40.8 Q12.85 -41.95 13.75 -43.9 L14.7 -46.6 15.0 -47.9 15.1 -48.4 16.05 -47.95 16.2 -47.8 16.05 -47.65 15.9 -46.9 15.85 -46.7 M9.05 -48.25 L9.6 -48.1 10.05 -48.25 10.25 -48.8 10.05 -49.3 Q9.9 -49.5 9.6 -49.5 9.25 -49.5 9.05 -49.3 L8.9 -48.8 Q8.9 -48.45 9.05 -48.25 M5.6 -40.9 Q4.6 -39.85 2.95 -39.2 L2.35 -40.0 Q4.2 -40.6 5.15 -41.85 L5.2 -41.9 Q5.8 -42.75 6.0 -43.95 L6.1 -45.05 6.1 -45.45 1.2 -45.45 1.2 -43.0 0.25 -43.0 0.25 -46.4 7.05 -46.4 7.05 -45.05 6.65 -42.7 6.05 -41.45 5.65 -40.95 5.6 -40.9 M8.95 -34.8 L11.9 -34.8 11.9 -33.9 8.95 -33.9 8.95 -32.95 8.0 -32.95 8.0 -33.9 5.7 -33.9 5.7 -32.95 4.8 -32.95 4.8 -33.9 1.85 -33.9 1.85 -34.8 4.8 -34.8 4.8 -36.1 5.65 -36.1 Q6.0 -36.1 5.7 -35.85 L5.7 -34.8 8.0 -34.8 8.0 -36.1 8.9 -36.1 Q9.25 -36.1 8.95 -35.85 L8.95 -34.8 M3.65 -29.55 L2.15 -28.3 1.6 -29.15 Q2.7 -29.9 3.5 -30.95 L4.6 -32.85 5.4 -32.4 5.5 -32.25 5.3 -32.15 4.8 -31.1 4.8 -25.75 3.85 -25.75 3.85 -29.6 3.85 -29.8 3.65 -29.55 M7.9 -32.45 L7.9 -30.45 9.4 -31.15 10.9 -32.15 11.6 -31.4 Q11.75 -31.15 11.45 -31.15 L11.4 -31.15 11.3 -31.1 9.45 -30.1 7.9 -29.6 7.9 -27.15 8.1 -26.9 10.55 -26.9 10.9 -27.2 11.05 -28.2 12.05 -27.95 11.9 -26.85 Q11.8 -26.25 11.3 -26.1 L10.9 -26.05 7.85 -26.05 7.25 -26.2 Q6.95 -26.45 6.95 -26.9 L6.95 -32.75 7.9 -32.75 Q8.15 -32.7 7.9 -32.45 M0.6 -34.55 L-3.55 -30.75 0.6 -26.9 0.15 -26.45 -4.5 -30.75 0.15 -35.0 0.6 -34.55 M13.7 -35.0 L18.3 -30.75 13.7 -26.45 13.25 -26.9 17.4 -30.75 13.25 -34.55 13.7 -35.0 M18.5 -21.35 L18.3 -21.15 18.3 -16.35 17.4 -16.35 17.4 -21.55 18.25 -21.5 18.5 -21.35 M12.2 -22.95 L15.3 -17.55 12.2 -12.2 11.45 -12.6 14.25 -17.55 11.45 -22.5 12.2 -22.95 M9.55 -23.5 L9.55 -11.7 8.65 -11.7 8.65 -23.5 9.55 -23.5 M3.75 -21.7 L-1.15 -12.9 -1.6 -13.2 3.3 -22.0 3.75 -21.7 M7.6 -12.7 L7.6 -12.15 4.05 -12.15 4.05 -12.7 7.6 -12.7 M2.9 -7.25 L2.9 -8.25 3.95 -8.25 3.95 -7.25 3.35 -5.85 2.9 -5.85 3.35 -7.25 2.9 -7.25 M-12.1 -60.05 L-13.0 -60.05 -13.0 -61.25 -12.1 -61.25 -12.1 -60.05 M-18.8 -53.4 Q-16.9 -54.7 -16.05 -57.45 L-15.9 -58.0 -15.9 -58.2 -15.85 -58.35 -15.7 -59.2 -15.5 -61.3 -14.55 -60.85 -14.4 -60.65 -14.55 -60.55 -14.7 -58.9 -14.75 -58.7 -15.05 -57.15 Q-15.7 -54.85 -17.1 -53.3 L-18.15 -52.4 -18.8 -53.35 -18.8 -53.4 M-12.1 -58.55 L-12.1 -53.35 -13.0 -53.35 -13.0 -58.55 -12.1 -58.55 M-6.15 -61.25 Q-5.85 -61.05 -6.15 -61.0 L-6.35 -60.1 -6.45 -59.55 -7.1 -57.5 -7.15 -57.35 Q-8.2 -54.8 -9.9 -53.2 L-10.0 -53.1 -10.75 -54.1 Q-9.95 -54.75 -9.3 -55.7 L-8.45 -57.25 Q-8.05 -58.1 -7.75 -59.1 L-7.15 -61.7 -6.15 -61.25 M-2.5 -47.95 L-2.65 -47.85 -3.25 -47.65 Q-3.7 -47.65 -4.05 -47.95 L-4.3 -48.4 -4.35 -48.55 -4.35 -48.7 -4.05 -49.45 Q-3.7 -49.8 -3.25 -49.75 -2.9 -49.8 -2.5 -49.45 -2.2 -49.15 -2.2 -48.7 -2.2 -48.3 -2.5 -47.95 M-3.25 -49.4 L-3.8 -49.2 -3.95 -48.7 -3.85 -48.25 -3.8 -48.2 -3.25 -48.0 -3.15 -48.0 Q-2.95 -48.05 -2.75 -48.2 -2.6 -48.35 -2.6 -48.7 -2.6 -49.05 -2.75 -49.2 L-3.25 -49.4 M-5.65 -48.15 L-5.65 -43.6 Q-5.65 -42.55 -5.9 -41.65 -6.1 -40.9 -6.45 -40.25 L-6.8 -39.8 -7.4 -39.05 -7.85 -38.65 -8.55 -39.55 -7.25 -41.05 -7.15 -41.2 Q-6.6 -42.3 -6.6 -43.75 L-6.6 -48.6 -5.7 -48.5 -5.45 -48.35 -5.65 -48.15 M-8.9 -48.0 L-8.65 -47.9 -8.85 -47.65 -8.85 -42.9 -9.75 -42.9 -9.75 -48.1 -8.9 -48.0 M-12.35 -47.95 L-11.4 -47.95 -11.4 -46.75 -12.35 -46.75 -12.35 -47.95 M-13.95 -46.75 L-14.85 -46.75 -14.85 -47.95 -13.95 -47.95 -13.95 -46.75 M-13.95 -45.25 L-13.95 -40.05 -14.85 -40.05 -14.85 -45.25 -13.95 -45.25 M-11.4 -45.25 L-11.4 -40.05 -12.35 -40.05 -12.35 -45.25 -11.4 -45.25 M-19.05 -46.75 L-19.95 -46.75 -19.95 -47.95 -19.05 -47.95 -19.05 -46.75 M-19.05 -45.25 L-19.05 -40.05 -19.95 -40.05 -19.95 -45.25 -19.05 -45.25 M-16.3 -48.0 L-16.55 -42.75 -17.3 -42.75 -17.6 -48.0 -16.3 -48.0 M-17.45 -40.05 L-17.45 -41.05 -16.4 -41.05 -16.4 -40.05 -17.45 -40.05 M-9.75 -20.1 L-10.65 -20.1 -10.65 -21.35 -9.75 -21.35 -9.75 -20.1 M-14.8 -21.4 L-14.8 -13.45 -15.7 -13.45 -15.7 -21.4 -14.8 -21.4" fill="#000000" fill-rule="evenodd" stroke="none"/>
  </g>
</svg>
