<svg xmlns:xlink="http://www.w3.org/1999/xlink" height="62px" width="68px" xmlns="http://www.w3.org/2000/svg" data-current-frame="" data-user-id="$id">
  <g transform="matrix(1.0, 0.0, 0.0, 1.0, 36.35, 60.7)" data-frame="0">
    <path d="M-24.6 -52.55 L-23.25 -52.55 -23.25 -51.3 -24.05 -49.7 -24.6 -49.7 -24.05 -51.3 -24.6 -51.3 -24.6 -52.55 M-19.25 -16.15 L-19.25 -15.7 -23.75 -15.7 -23.75 -29.3 -19.25 -29.3 -19.25 -28.8 -20.4 -27.7 Q-22.2 -25.7 -22.2 -22.55 -22.2 -18.45 -19.25 -16.15 M-21.4 -33.55 L-22.05 -32.95 Q-24.95 -35.7 -24.95 -39.3 -24.95 -42.95 -22.05 -45.7 L-21.4 -45.05 Q-24.1 -42.55 -24.1 -39.3 -24.1 -36.1 -21.4 -33.55 M-21.55 -49.7 L-21.0 -51.3 -21.55 -51.3 -21.55 -52.55 -20.85 -52.55 -20.2 -52.55 -20.2 -51.3 -21.0 -49.7 -21.55 -49.7 M-18.35 -56.65 L-18.5 -56.65 -18.5 -57.95 -17.15 -57.95 -17.15 -57.7 -17.15 -56.65 -18.35 -56.65 M-13.4 -58.95 L-12.95 -59.5 Q-11.7 -60.7 -9.65 -60.7 L-4.1 -60.7 -4.1 -59.6 -9.65 -59.6 Q-11.2 -59.6 -12.2 -58.6 -13.05 -57.7 -13.05 -56.45 -13.05 -55.15 -12.2 -54.25 -11.2 -53.25 -9.65 -53.25 L-4.1 -53.25 -4.1 -52.15 -9.65 -52.15 Q-11.7 -52.15 -12.95 -53.4 -14.25 -54.65 -14.25 -56.45 -14.25 -57.85 -13.4 -58.95 M1.5 -60.7 L7.1 -60.7 Q9.15 -60.7 10.35 -59.5 L10.65 -59.2 Q11.65 -58.0 11.65 -56.45 11.65 -54.65 10.35 -53.4 9.15 -52.15 7.1 -52.15 L1.5 -52.15 1.5 -53.25 7.1 -53.25 Q8.6 -53.25 9.6 -54.25 10.5 -55.15 10.5 -56.45 10.5 -57.7 9.6 -58.6 8.6 -59.6 7.1 -59.6 L1.5 -59.6 1.5 -60.7 M14.55 -57.95 L15.9 -57.95 15.9 -56.65 14.55 -56.65 14.55 -57.95 M20.4 -52.2 L21.15 -53.25 23.15 -50.8 22.35 -49.7 20.4 -52.2 M24.45 -45.05 L25.1 -45.7 Q28.05 -42.95 28.05 -39.3 28.05 -35.7 25.1 -32.95 L24.45 -33.55 Q27.15 -36.1 27.15 -39.3 27.15 -42.55 24.45 -45.05 M19.3 -28.15 L19.95 -28.75 Q21.5 -27.35 22.15 -26.0 22.9 -24.4 22.9 -22.35 22.9 -20.55 22.15 -18.95 21.45 -17.5 19.95 -15.85 L19.3 -16.5 Q20.8 -18.1 21.35 -19.4 22.0 -20.8 22.0 -22.35 22.0 -24.25 21.35 -25.6 20.8 -26.85 19.3 -28.15 M10.1 -10.55 L11.45 -10.55 11.45 -9.25 10.65 -7.5 10.1 -7.5 10.65 -9.25 10.1 -9.25 10.1 -10.55 M7.25 -4.95 L8.55 -4.4 Q7.8 0.45 3.9 0.45 2.05 0.5 1.3 -0.45 0.6 -1.35 0.5 -3.45 L0.5 -11.55 1.7 -11.55 1.7 -3.45 Q1.7 -1.95 2.2 -1.4 2.75 -0.85 4.4 -0.9 5.65 -1.0 6.4 -2.1 7.0 -3.05 7.25 -4.95 M-2.45 -10.55 L-2.45 -9.25 -3.25 -7.5 -3.65 -7.5 -3.8 -7.5 -3.25 -9.25 -3.8 -9.25 -3.8 -10.55 -2.45 -10.55 M-6.65 -4.95 L-5.35 -4.4 Q-6.1 0.45 -10.0 0.45 -11.85 0.5 -12.6 -0.45 -13.3 -1.35 -13.4 -3.45 L-13.4 -11.55 -12.2 -11.55 -12.2 -3.45 Q-12.2 -1.95 -11.7 -1.4 -11.15 -0.85 -9.5 -0.9 -8.25 -1.0 -7.5 -2.1 -6.9 -3.05 -6.65 -4.95 M18.95 -52.55 L18.95 -51.3 18.15 -49.7 17.6 -49.7 18.15 -51.3 17.6 -51.3 17.6 -52.55 18.95 -52.55 M-18.5 -49.7 L-17.95 -51.3 -18.5 -51.3 -18.5 -52.55 -17.15 -52.55 -17.15 -51.3 -17.95 -49.7 -18.5 -49.7 M14.55 -49.7 L15.1 -51.3 14.55 -51.3 14.55 -52.55 15.9 -52.55 15.9 -51.3 15.1 -49.7 14.55 -49.7 M16.5 -44.4 Q18.25 -44.4 19.55 -43.1 20.75 -41.9 20.75 -39.85 L20.75 -34.3 19.65 -34.3 19.65 -39.85 Q19.65 -41.35 18.65 -42.35 17.8 -43.25 16.5 -43.25 15.2 -43.25 14.3 -42.35 13.35 -41.35 13.35 -39.85 L13.35 -34.3 12.2 -34.3 12.2 -39.85 Q12.2 -41.9 13.45 -43.1 14.75 -44.4 16.5 -44.4 M6.55 -38.25 L4.0 -38.25 4.0 -40.8 6.55 -40.8 6.55 -38.25 M-0.55 -43.85 L-5.95 -34.05 -11.35 -43.85 -10.25 -44.45 -8.9 -42.05 -3.0 -42.05 -1.65 -44.45 -0.55 -43.85 M2.8 -25.5 Q4.1 -24.2 4.1 -22.45 4.1 -20.65 2.8 -19.4 1.6 -18.15 -0.45 -18.15 L-6.05 -18.15 -6.05 -19.25 -0.45 -19.25 Q1.05 -19.25 2.05 -20.25 2.95 -21.15 2.95 -22.45 2.95 -23.7 2.05 -24.6 1.05 -25.6 -0.45 -25.6 L-6.05 -25.6 -6.05 -26.7 -0.45 -26.7 Q1.6 -26.7 2.8 -25.5 M13.25 -27.4 L14.15 -27.4 13.8 -24.8 15.75 -24.8 16.1 -27.4 17.05 -27.4 16.7 -24.8 17.8 -24.8 17.8 -23.65 16.5 -23.65 16.15 -21.2 17.8 -21.2 17.8 -20.1 16.05 -20.1 15.65 -17.4 14.7 -17.4 15.1 -20.1 13.15 -20.1 12.75 -17.4 11.8 -17.4 12.25 -20.1 11.05 -20.1 11.05 -21.2 12.35 -21.2 12.7 -23.65 11.05 -23.65 11.05 -24.8 12.9 -24.8 13.25 -27.4 M-3.6 -40.85 L-8.3 -40.85 -5.95 -36.7 -3.6 -40.85 M-18.5 -40.8 L-15.95 -40.8 -15.95 -38.25 -18.5 -38.25 -18.5 -40.8 M-13.9 -28.05 Q-16.6 -25.55 -16.6 -22.3 -16.6 -19.1 -13.9 -16.55 L-14.55 -15.95 Q-17.45 -18.7 -17.45 -22.3 -17.45 -25.95 -14.55 -28.7 L-13.9 -28.05 M13.3 -21.2 L15.2 -21.2 15.55 -23.65 13.65 -23.65 13.3 -21.2" fill="#000000" fill-rule="evenodd" stroke="none"/>
    <path d="M-19.25 -29.3 Q-16.35 -30.15 -17.15 -31.3 -19.15 -32.15 -21.4 -33.55 -24.1 -36.1 -24.1 -39.3 -24.1 -42.55 -21.4 -45.05 L-22.05 -45.7 Q-22.05 -47.85 -21.65 -49.7 L-21.55 -49.7 -21.0 -49.7 -20.2 -51.3 -20.2 -52.55 -20.85 -52.55 -19.55 -55.1 -18.35 -56.65 -17.15 -56.65 -17.15 -57.7 -17.05 -57.8 Q-15.4 -58.95 -13.4 -58.95 -14.25 -57.85 -14.25 -56.45 -14.25 -54.65 -12.95 -53.4 -11.7 -52.15 -9.65 -52.15 L-4.1 -52.15 -4.1 -53.25 -9.65 -53.25 Q-11.2 -53.25 -12.2 -54.25 -13.05 -55.15 -13.05 -56.45 -13.05 -57.7 -12.2 -58.6 -11.2 -59.6 -9.65 -59.6 L-4.1 -59.6 -4.1 -60.7 1.5 -60.7 1.5 -59.6 7.1 -59.6 Q8.6 -59.6 9.6 -58.6 10.5 -57.7 10.5 -56.45 10.5 -55.15 9.6 -54.25 8.6 -53.25 7.1 -53.25 L1.5 -53.25 1.5 -52.15 7.1 -52.15 Q9.15 -52.15 10.35 -53.4 11.65 -54.65 11.65 -56.45 11.65 -58.0 10.65 -59.2 12.65 -59.25 14.55 -57.95 L14.55 -56.65 20.4 -52.2 22.35 -49.7 Q23.65 -47.65 24.45 -45.05 27.15 -42.55 27.15 -39.3 27.15 -36.1 24.45 -33.55 22.2 -30.55 17.2 -29.95 L19.3 -28.15 Q20.8 -26.85 21.35 -25.6 22.0 -24.25 22.0 -22.35 22.0 -20.8 21.35 -19.4 20.8 -18.1 19.3 -16.5 18.3 -13.75 15.35 -12.8 12.9 -11.95 10.1 -10.55 L10.1 -9.25 10.65 -9.25 10.1 -7.5 10.3 -7.2 7.25 -4.95 Q7.0 -3.05 6.4 -2.1 5.65 -1.0 4.4 -0.9 2.75 -0.85 2.2 -1.4 1.7 -1.95 1.7 -3.45 L1.7 -11.55 0.5 -11.55 Q-1.8 -11.1 -2.45 -10.55 L-3.8 -10.55 -3.8 -9.25 -3.25 -9.25 -3.8 -7.5 -3.65 -7.5 -3.65 -7.25 -6.65 -4.95 Q-6.9 -3.05 -7.5 -2.1 -8.25 -1.0 -9.5 -0.9 -11.15 -0.85 -11.7 -1.4 -12.2 -1.95 -12.2 -3.45 L-12.2 -11.55 -13.4 -11.55 Q-14.95 -12.65 -17.65 -13.8 L-19.05 -15.85 -19.25 -16.15 Q-22.2 -18.45 -22.2 -22.55 -22.2 -25.7 -20.4 -27.7 L-19.25 -28.8 -19.25 -29.3 M13.3 -21.2 L13.65 -23.65 15.55 -23.65 15.2 -21.2 13.3 -21.2 M-13.9 -28.05 L-14.55 -28.7 Q-17.45 -25.95 -17.45 -22.3 -17.45 -18.7 -14.55 -15.95 L-13.9 -16.55 Q-16.6 -19.1 -16.6 -22.3 -16.6 -25.55 -13.9 -28.05 M-18.5 -40.8 L-18.5 -38.25 -15.95 -38.25 -15.95 -40.8 -18.5 -40.8 M-3.6 -40.85 L-5.95 -36.7 -8.3 -40.85 -3.6 -40.85 M13.25 -27.4 L12.9 -24.8 11.05 -24.8 11.05 -23.65 12.7 -23.65 12.35 -21.2 11.05 -21.2 11.05 -20.1 12.25 -20.1 11.8 -17.4 12.75 -17.4 13.15 -20.1 15.1 -20.1 14.7 -17.4 15.65 -17.4 16.05 -20.1 17.8 -20.1 17.8 -21.2 16.15 -21.2 16.5 -23.65 17.8 -23.65 17.8 -24.8 16.7 -24.8 17.05 -27.4 16.1 -27.4 15.75 -24.8 13.8 -24.8 14.15 -27.4 13.25 -27.4 M2.8 -25.5 Q1.6 -26.7 -0.45 -26.7 L-6.05 -26.7 -6.05 -25.6 -0.45 -25.6 Q1.05 -25.6 2.05 -24.6 2.95 -23.7 2.95 -22.45 2.95 -21.15 2.05 -20.25 1.05 -19.25 -0.45 -19.25 L-6.05 -19.25 -6.05 -18.15 -0.45 -18.15 Q1.6 -18.15 2.8 -19.4 4.1 -20.65 4.1 -22.45 4.1 -24.2 2.8 -25.5 M-0.55 -43.85 L-1.65 -44.45 -3.0 -42.05 -8.9 -42.05 -10.25 -44.45 -11.35 -43.85 -5.95 -34.05 -0.55 -43.85 M6.55 -38.25 L6.55 -40.8 4.0 -40.8 4.0 -38.25 6.55 -38.25 M16.5 -44.4 Q14.75 -44.4 13.45 -43.1 12.2 -41.9 12.2 -39.85 L12.2 -34.3 13.35 -34.3 13.35 -39.85 Q13.35 -41.35 14.3 -42.35 15.2 -43.25 16.5 -43.25 17.8 -43.25 18.65 -42.35 19.65 -41.35 19.65 -39.85 L19.65 -34.3 20.75 -34.3 20.75 -39.85 Q20.75 -41.9 19.55 -43.1 18.25 -44.4 16.5 -44.4 M14.55 -49.7 L15.1 -49.7 15.9 -51.3 15.9 -52.55 14.55 -52.55 14.55 -51.3 15.1 -51.3 14.55 -49.7 M-18.5 -49.7 L-17.95 -49.7 -17.15 -51.3 -17.15 -52.55 -18.5 -52.55 -18.5 -51.3 -17.95 -51.3 -18.5 -49.7 M18.95 -52.55 L17.6 -52.55 17.6 -51.3 18.15 -51.3 17.6 -49.7 18.15 -49.7 18.95 -51.3 18.95 -52.55" fill="#ffffff" fill-rule="evenodd" stroke="none"/>
  </g>
  <g transform="matrix(1.0, 0.0, 0.0, 1.0, 34.9, 31.25)" data-frame="1">
    <path d="M2.4 -30.2 L8.0 -30.2 Q10.05 -30.2 11.25 -29.0 L12.05 -27.95 Q12.55 -27.05 12.55 -25.95 12.55 -24.15 11.25 -22.9 10.05 -21.65 8.0 -21.65 L2.4 -21.65 2.4 -22.75 8.0 -22.75 Q9.5 -22.75 10.5 -23.75 11.4 -24.65 11.4 -25.95 11.4 -27.2 10.5 -28.1 9.5 -29.1 8.0 -29.1 L2.4 -29.1 2.4 -30.2 M15.45 -26.8 L15.45 -27.45 16.8 -27.45 16.8 -26.15 15.45 -26.15 15.45 -26.8 M18.5 -22.05 L19.85 -22.05 19.85 -20.8 19.75 -20.55 19.05 -19.2 18.5 -19.2 19.05 -20.8 18.5 -20.8 18.5 -22.05 M22.9 -14.55 L23.55 -15.2 Q26.5 -12.45 26.5 -8.8 L26.25 -6.7 26.0 -6.45 Q24.35 -4.65 23.25 -2.7 L22.9 -3.05 Q25.6 -5.6 25.6 -8.8 25.6 -11.2 24.15 -13.15 L22.9 -14.55 M17.85 2.45 L18.5 1.8 Q20.5 3.65 21.15 5.95 L21.45 8.2 Q21.45 11.8 18.5 14.55 L17.85 13.95 Q20.55 11.4 20.55 8.2 20.55 4.95 17.85 2.45 M14.9 20.1 L16.0 20.1 16.0 25.65 Q16.0 27.7 14.75 28.95 13.5 30.2 11.7 30.2 9.95 30.2 8.65 28.95 7.45 27.7 7.45 25.65 L7.45 20.1 8.55 20.1 8.55 25.65 Q8.55 27.2 9.55 28.15 10.45 29.05 11.7 29.05 13.0 29.05 13.9 28.15 14.9 27.2 14.9 25.65 L14.9 20.1 M4.0 18.55 L3.3 19.8 Q2.8 20.5 2.2 20.5 L0.85 19.6 Q0.15 18.95 -0.3 18.95 -0.8 18.95 -1.05 19.5 L-1.4 20.3 -2.0 19.7 -1.35 18.4 Q-0.95 17.75 -0.35 17.75 0.25 17.75 0.95 18.45 1.75 19.2 2.3 19.2 L3.05 18.55 3.4 17.8 4.0 18.55 M-5.2 20.1 L-5.2 25.65 Q-5.2 27.7 -6.45 28.95 -7.7 30.2 -9.5 30.2 -11.25 30.2 -12.55 28.95 -13.75 27.7 -13.75 25.65 L-13.75 20.1 -12.65 20.1 -12.65 25.65 Q-12.65 27.2 -11.65 28.15 -10.75 29.05 -9.5 29.05 -8.2 29.05 -7.3 28.15 -6.3 27.2 -6.3 25.65 L-6.3 20.1 -5.2 20.1 M-17.9 13.95 L-18.55 14.55 Q-21.45 11.8 -21.45 8.2 -21.45 5.25 -19.5 2.85 L-18.55 1.8 -17.9 2.45 Q-20.6 4.95 -20.6 8.2 -20.6 11.4 -17.9 13.95 M-22.95 -3.05 L-23.6 -2.45 Q-26.5 -5.2 -26.5 -8.8 -26.5 -12.45 -23.6 -15.2 L-22.95 -14.55 Q-25.65 -12.05 -25.65 -8.8 -25.65 -5.6 -22.95 -3.05 M-20.55 -19.2 L-20.65 -19.2 -20.1 -20.8 -20.65 -20.8 -20.65 -22.05 -19.3 -22.05 -19.3 -21.65 -19.3 -20.8 -20.1 -19.2 -20.55 -19.2 M-17.6 -26.15 L-17.6 -27.45 -16.25 -27.45 -16.25 -26.15 -17.6 -26.15 M-13.2 -26.95 Q-12.95 -28.1 -12.05 -29.0 -10.8 -30.2 -8.75 -30.2 L-3.2 -30.2 -3.2 -29.1 -8.75 -29.1 Q-10.3 -29.1 -11.3 -28.1 L-11.8 -27.35 -12.15 -25.95 Q-12.15 -24.65 -11.3 -23.75 -10.3 -22.75 -8.75 -22.75 L-3.2 -22.75 -3.2 -21.65 -8.75 -21.65 Q-10.8 -21.65 -12.05 -22.9 -13.35 -24.15 -13.35 -25.95 L-13.2 -26.95 M16.8 -22.05 L16.8 -20.8 16.0 -19.2 15.45 -19.2 16.0 -20.8 15.45 -20.8 15.45 -22.05 16.8 -22.05 M24.05 -20.3 L23.25 -19.2 21.3 -21.7 22.05 -22.75 24.05 -20.3 M12.5 -7.75 L9.95 -7.75 9.95 -10.3 12.5 -10.3 12.5 -7.75 M15.9 -11.3 L18.3 -9.75 18.15 -12.55 19.35 -12.55 19.2 -9.75 21.6 -11.3 22.2 -10.2 19.7 -8.95 22.2 -7.65 21.6 -6.6 19.2 -8.1 19.35 -5.1 18.15 -5.1 18.3 -8.1 15.9 -6.6 15.3 -7.65 17.8 -8.95 15.3 -10.2 15.9 -11.3 M5.4 -13.35 L0.0 -3.55 -5.4 -13.35 -4.3 -13.95 -2.95 -11.55 2.95 -11.55 4.3 -13.95 5.4 -13.35 M3.8 3.2 L3.3 5.65 5.8 5.65 5.8 6.8 3.05 6.8 2.45 9.45 5.8 9.45 5.8 10.6 2.25 10.6 1.7 13.2 0.65 13.2 1.15 10.6 -2.15 10.6 -2.7 13.2 -3.75 13.2 -3.2 10.6 -5.55 10.6 -5.55 9.45 -3.0 9.45 -2.4 6.8 -5.55 6.8 -5.55 5.65 -2.15 5.65 -1.65 3.2 -0.6 3.2 -1.1 5.65 2.25 5.65 2.75 3.2 3.8 3.2 M-23.7 -20.8 L-23.7 -22.05 -22.35 -22.05 -22.35 -20.8 -23.15 -19.2 -23.7 -19.2 -23.15 -20.8 -23.7 -20.8 M-16.25 -22.05 L-16.25 -20.8 -17.05 -19.2 -17.6 -19.2 -17.05 -20.8 -17.6 -20.8 -17.6 -22.05 -16.25 -22.05 M-15.9 -11.3 L-15.3 -10.2 -17.8 -8.95 -15.3 -7.65 -15.9 -6.6 -18.3 -8.1 -18.15 -5.1 -19.35 -5.1 -19.2 -8.1 -21.6 -6.6 -22.2 -7.65 -19.7 -8.95 -22.2 -10.2 -21.6 -11.3 -19.2 -9.75 -19.35 -12.55 -18.15 -12.55 -18.3 -9.75 -15.9 -11.3 M-10.0 -7.75 L-12.55 -7.75 -12.55 -10.3 -10.0 -10.3 -10.0 -7.75 M0.0 -6.2 L2.35 -10.35 -2.35 -10.35 0.0 -6.2 M1.4 9.45 L2.0 6.8 -1.35 6.8 -1.95 9.45 1.4 9.45" fill="#000000" fill-rule="evenodd" stroke="none"/>
    <path d="M12.05 -27.95 L15.45 -26.8 15.45 -26.15 16.8 -26.15 18.5 -22.9 16.8 -22.05 18.5 -22.05 18.5 -20.8 19.05 -20.8 18.5 -19.2 19.05 -19.2 19.75 -20.55 22.9 -14.55 24.15 -13.15 Q25.6 -11.2 25.6 -8.8 25.6 -5.6 22.9 -3.05 L16.2 -0.4 Q16.45 0.85 17.85 2.45 20.55 4.95 20.55 8.2 20.55 11.4 17.85 13.95 16.85 16.15 15.5 17.9 L14.9 20.1 14.9 25.65 Q14.9 27.2 13.9 28.15 13.0 29.05 11.7 29.05 10.45 29.05 9.55 28.15 8.55 27.2 8.55 25.65 L8.55 20.1 7.45 20.1 7.25 20.45 4.0 18.55 3.4 17.8 3.05 18.55 2.3 19.2 Q1.75 19.2 0.95 18.45 0.25 17.75 -0.35 17.75 -0.95 17.75 -1.35 18.4 L-2.0 19.7 Q-3.25 20.4 -4.8 20.95 L-5.2 20.1 -6.3 20.1 -6.3 25.65 Q-6.3 27.2 -7.3 28.15 -8.2 29.05 -9.5 29.05 -10.75 29.05 -11.65 28.15 -12.65 27.2 -12.65 25.65 L-12.65 20.1 -13.75 20.1 -17.9 13.95 Q-20.6 11.4 -20.6 8.2 -20.6 4.95 -17.9 2.45 L-18.35 1.75 Q-17.8 1.5 -17.15 0.35 L-18.65 0.2 -22.95 -3.05 Q-25.65 -5.6 -25.65 -8.8 -25.65 -12.05 -22.95 -14.55 L-20.6 -19.15 -20.55 -19.2 -20.1 -19.2 -19.3 -20.8 -19.3 -21.65 -17.8 -24.6 -17.6 -26.15 -16.25 -26.15 -13.2 -26.95 -13.35 -25.95 Q-13.35 -24.15 -12.05 -22.9 -10.8 -21.65 -8.75 -21.65 L-3.2 -21.65 -3.2 -22.75 -8.75 -22.75 Q-10.3 -22.75 -11.3 -23.75 -12.15 -24.65 -12.15 -25.95 L-11.8 -27.35 -11.3 -28.1 Q-10.3 -29.1 -8.75 -29.1 L-3.2 -29.1 -3.2 -30.2 2.4 -30.2 2.4 -29.1 8.0 -29.1 Q9.5 -29.1 10.5 -28.1 11.4 -27.2 11.4 -25.95 11.4 -24.65 10.5 -23.75 9.5 -22.75 8.0 -22.75 L2.4 -22.75 2.4 -21.65 8.0 -21.65 Q10.05 -21.65 11.25 -22.9 12.55 -24.15 12.55 -25.95 12.55 -27.05 12.05 -27.95 M16.8 -22.05 L15.45 -22.05 15.45 -20.8 16.0 -20.8 15.45 -19.2 16.0 -19.2 16.8 -20.8 16.8 -22.05 M3.8 3.2 L2.75 3.2 2.25 5.65 -1.1 5.65 -0.6 3.2 -1.65 3.2 -2.15 5.65 -5.55 5.65 -5.55 6.8 -2.4 6.8 -3.0 9.45 -5.55 9.45 -5.55 10.6 -3.2 10.6 -3.75 13.2 -2.7 13.2 -2.15 10.6 1.15 10.6 0.65 13.2 1.7 13.2 2.25 10.6 5.8 10.6 5.8 9.45 2.45 9.45 3.05 6.8 5.8 6.8 5.8 5.65 3.3 5.65 3.8 3.2 M5.4 -13.35 L4.3 -13.95 2.95 -11.55 -2.95 -11.55 -4.3 -13.95 -5.4 -13.35 0.0 -3.55 5.4 -13.35 M15.9 -11.3 L15.3 -10.2 17.8 -8.95 15.3 -7.65 15.9 -6.6 18.3 -8.1 18.15 -5.1 19.35 -5.1 19.2 -8.1 21.6 -6.6 22.2 -7.65 19.7 -8.95 22.2 -10.2 21.6 -11.3 19.2 -9.75 19.35 -12.55 18.15 -12.55 18.3 -9.75 15.9 -11.3 M12.5 -7.75 L12.5 -10.3 9.95 -10.3 9.95 -7.75 12.5 -7.75 M1.4 9.45 L-1.95 9.45 -1.35 6.8 2.0 6.8 1.4 9.45 M0.0 -6.2 L-2.35 -10.35 2.35 -10.35 0.0 -6.2 M-10.0 -7.75 L-10.0 -10.3 -12.55 -10.3 -12.55 -7.75 -10.0 -7.75 M-15.9 -11.3 L-18.3 -9.75 -18.15 -12.55 -19.35 -12.55 -19.2 -9.75 -21.6 -11.3 -22.2 -10.2 -19.7 -8.95 -22.2 -7.65 -21.6 -6.6 -19.2 -8.1 -19.35 -5.1 -18.15 -5.1 -18.3 -8.1 -15.9 -6.6 -15.3 -7.65 -17.8 -8.95 -15.3 -10.2 -15.9 -11.3 M-16.25 -22.05 L-17.6 -22.05 -17.6 -20.8 -17.05 -20.8 -17.6 -19.2 -17.05 -19.2 -16.25 -20.8 -16.25 -22.05" fill="#ffffff" fill-rule="evenodd" stroke="none"/>
  </g>
  <g transform="matrix(1.0, 0.0, 0.0, 1.0, 36.35, 60.7)" data-frame="2">
    <path d="M24.55 -35.9 L24.8 -36.15 Q24.15 -33.85 22.1 -31.9 L21.8 -32.15 Q22.9 -34.1 24.55 -35.9" fill="#000000" fill-rule="evenodd" stroke="none"/>
  </g>
  <g transform="matrix(1.0, 0.0, 0.0, 1.0, 36.35, 60.7)" data-frame="2">
    <path d="M8.4 -44.25 L9.45 -44.1 Q10.3 -43.9 11.1 -43.25 L11.45 -42.95 Q12.65 -41.75 12.65 -39.7 L12.65 -34.15 11.55 -34.15 11.55 -39.7 Q11.55 -41.2 10.55 -42.2 9.7 -43.1 8.4 -43.1 7.1 -43.1 6.2 -42.2 5.25 -41.2 5.25 -39.7 L5.25 -34.15 4.1 -34.15 4.1 -39.7 Q4.1 -41.75 5.35 -42.95 6.65 -44.25 8.4 -44.25 M-9.0 -42.2 Q-9.85 -43.1 -11.15 -43.1 -12.45 -43.1 -13.35 -42.2 -14.3 -41.2 -14.3 -39.7 L-14.3 -34.15 -15.45 -34.15 -15.45 -39.7 Q-15.45 -41.75 -14.2 -42.95 -12.9 -44.25 -11.15 -44.25 -9.4 -44.25 -8.1 -42.95 -6.9 -41.75 -6.9 -39.7 L-6.9 -34.15 -8.0 -34.15 -8.0 -39.7 Q-8.0 -41.2 -9.0 -42.2" fill="#000000" fill-rule="evenodd" stroke="none"/>
    <path d="M11.1 -43.25 L11.8 -44.3 Q16.6 -43.45 20.65 -40.7 21.65 -40.0 21.85 -38.8 L21.9 -36.35 Q20.0 -32.3 15.55 -31.35 9.05 -30.0 2.45 -31.05 L-2.45 -31.55 -12.55 -32.2 -18.45 -32.7 Q-21.15 -32.9 -23.65 -34.15 -25.25 -36.25 -24.9 -38.95 -24.4 -42.4 -21.15 -44.05 -18.35 -45.45 -15.15 -45.45 L-11.15 -45.45 -2.05 -45.1 8.45 -44.6 8.4 -44.25 Q6.65 -44.25 5.35 -42.95 4.1 -41.75 4.1 -39.7 L4.1 -34.15 5.25 -34.15 5.25 -39.7 Q5.25 -41.2 6.2 -42.2 7.1 -43.1 8.4 -43.1 9.7 -43.1 10.55 -42.2 11.55 -41.2 11.55 -39.7 L11.55 -34.15 12.65 -34.15 12.65 -39.7 Q12.65 -41.75 11.45 -42.95 L11.1 -43.25 M-9.0 -42.2 Q-8.0 -41.2 -8.0 -39.7 L-8.0 -34.15 -6.9 -34.15 -6.9 -39.7 Q-6.9 -41.75 -8.1 -42.95 -9.4 -44.25 -11.15 -44.25 -12.9 -44.25 -14.2 -42.95 -15.45 -41.75 -15.45 -39.7 L-15.45 -34.15 -14.3 -34.15 -14.3 -39.7 Q-14.3 -41.2 -13.35 -42.2 -12.45 -43.1 -11.15 -43.1 -9.85 -43.1 -9.0 -42.2" fill="#ffffff" fill-rule="evenodd" stroke="none"/>
  </g>
  <g transform="matrix(1.0, 0.0, 0.0, 1.0, 36.35, 60.7)" data-frame="3">
    <path d="M24.8 -36.15 Q24.25 -34.25 22.8 -32.6 L22.1 -31.9 21.8 -32.15 22.1 -32.6 24.55 -35.9 24.8 -36.15 M21.2 -24.0 L24.95 -25.3 27.8 -25.8 Q29.35 -25.8 30.35 -24.9 31.7 -23.75 31.55 -21.3 31.45 -18.85 29.7 -17.55 L29.5 -17.4 28.4 -16.85 25.05 -16.35 24.95 -16.9 24.75 -17.7 Q28.15 -17.7 29.4 -19.1 30.35 -20.05 30.3 -21.8 30.3 -23.0 29.65 -23.8 29.05 -24.5 28.0 -24.55 L25.0 -23.95 21.7 -22.55 21.2 -24.0 M-26.2 -17.1 L-31.75 -17.1 Q-33.8 -17.1 -35.05 -18.35 -36.35 -19.6 -36.35 -21.4 -36.35 -23.15 -35.05 -24.45 -33.8 -25.65 -31.75 -25.65 L-26.2 -25.65 -26.2 -25.1 -26.2 -24.55 -31.75 -24.55 Q-33.3 -24.55 -34.3 -23.55 -35.15 -22.65 -35.15 -21.4 -35.15 -20.1 -34.3 -19.2 -33.3 -18.2 -31.75 -18.2 L-26.2 -18.2 -26.2 -17.1" fill="#000000" fill-rule="evenodd" stroke="none"/>
    <path d="M24.95 -16.9 L22.75 -17.25 17.1 -15.95 Q15.6 -16.1 14.45 -16.85 13.95 -18.35 14.15 -20.1 L15.95 -21.75 15.95 -21.85 21.2 -24.0 21.7 -22.55 25.0 -23.95 28.0 -24.55 Q29.05 -24.5 29.65 -23.8 30.3 -23.0 30.3 -21.8 30.35 -20.05 29.4 -19.1 28.15 -17.7 24.75 -17.7 L24.95 -16.9 M-26.2 -25.1 L-18.35 -26.3 Q-17.9 -25.35 -17.15 -24.5 L-17.15 -20.7 Q-18.2 -18.8 -19.8 -17.7 L-26.2 -17.1 -26.2 -18.2 -31.75 -18.2 Q-33.3 -18.2 -34.3 -19.2 -35.15 -20.1 -35.15 -21.4 -35.15 -22.65 -34.3 -23.55 -33.3 -24.55 -31.75 -24.55 L-26.2 -24.55 -26.2 -25.1" fill="#ffffff" fill-rule="evenodd" stroke="none"/>
  </g>
</svg>
