<svg xmlns:xlink="http://www.w3.org/1999/xlink" height="105px" width="125px" xmlns="http://www.w3.org/2000/svg" data-current-frame="" data-user-id="$id">
  <g transform="matrix(1.0, 0.0, 0.0, 1.0, 66.95, 49.4)" data-frame="0">
    <path d="M21.55 -49.4 L23.05 -49.4 25.25 -46.25 25.35 -46.25 27.6 -49.4 29.05 -49.4 25.95 -45.2 29.5 -40.7 28.0 -40.7 25.35 -44.25 25.25 -44.25 22.65 -40.7 21.2 -40.7 24.65 -45.2 21.55 -49.4 M15.75 -25.7 L14.8 -25.7 14.8 -30.55 Q14.8 -31.55 15.15 -32.3 L15.85 -33.35 Q17.0 -34.5 18.5 -34.5 20.0 -34.5 21.15 -33.35 L22.1 -31.7 22.2 -30.55 22.2 -25.7 21.25 -25.7 21.25 -30.55 21.0 -31.85 20.4 -32.7 Q19.6 -33.45 18.5 -33.45 17.4 -33.45 16.6 -32.7 L16.25 -32.25 Q15.75 -31.55 15.75 -30.55 L15.75 -25.7 M20.95 -20.75 L22.05 -20.75 Q22.6 -20.65 22.1 -20.35 L22.1 -16.15 21.85 -14.0 21.35 -12.65 Q20.35 -10.7 18.05 -9.75 L17.45 -10.9 Q19.15 -11.5 20.05 -12.8 L20.65 -14.0 20.95 -16.2 20.95 -20.75 M13.15 -3.9 L15.55 -3.9 Q17.35 -3.9 18.4 -2.8 19.5 -1.7 19.5 -0.15 19.5 1.35 18.4 2.45 17.35 3.55 15.55 3.55 L13.15 3.55 10.75 3.55 10.75 2.55 15.55 2.55 Q16.9 2.55 17.75 1.7 18.5 0.95 18.5 -0.15 18.5 -1.3 17.75 -2.05 16.9 -2.9 15.55 -2.9 L10.75 -2.9 10.75 -3.9 13.15 -3.9 M13.55 10.2 L13.65 10.25 8.25 19.85 7.75 19.55 13.15 9.95 13.55 10.2 M6.65 25.25 Q6.45 28.45 4.9 31.0 3.4 33.55 0.9 35.0 L0.1 34.0 Q5.15 31.15 5.45 24.9 L6.65 25.25 M-2.8 40.6 L-1.65 40.6 -1.65 46.75 Q-1.65 47.9 -2.35 48.6 -3.15 49.4 -4.9 49.4 -6.6 49.4 -7.4 48.6 -8.15 47.9 -8.15 46.75 L-8.15 40.6 -6.95 40.6 -6.95 46.7 Q-6.95 47.4 -6.5 47.9 -5.95 48.45 -4.9 48.45 -3.8 48.45 -3.25 47.9 -2.8 47.4 -2.8 46.7 L-2.8 40.6 M-10.0 40.6 L-10.0 46.75 Q-10.0 47.9 -10.7 48.6 -11.5 49.4 -13.25 49.4 -14.95 49.4 -15.75 48.6 -16.5 47.9 -16.5 46.75 L-16.5 40.6 -15.3 40.6 -15.3 46.7 Q-15.3 47.4 -14.85 47.9 -14.3 48.45 -13.25 48.45 -12.15 48.45 -11.6 47.9 -11.15 47.4 -11.15 46.7 L-11.15 40.6 -10.0 40.6 M-12.1 34.55 L-12.9 33.5 Q-9.95 31.05 -8.95 25.15 L-7.85 25.65 -7.7 25.8 -7.85 25.95 Q-8.9 31.7 -12.1 34.55 M-12.5 20.5 L-14.4 17.85 Q-15.05 16.45 -15.05 14.9 -15.05 13.1 -14.4 11.75 -13.85 10.55 -12.5 9.35 L-11.95 9.85 Q-13.25 11.0 -13.75 12.1 -14.3 13.25 -14.3 14.9 -14.3 16.25 -13.75 17.45 -13.25 18.6 -11.95 19.95 L-12.5 20.5 M-12.3 4.95 L-12.85 5.5 -14.75 2.85 Q-15.4 1.45 -15.4 -0.1 -15.4 -1.9 -14.75 -3.25 -14.2 -4.45 -12.85 -5.65 L-12.3 -5.15 Q-13.6 -4.0 -14.1 -2.9 -14.65 -1.75 -14.65 -0.1 -14.65 1.25 -14.1 2.45 -13.6 3.6 -12.3 4.95 M-12.45 -8.75 L-12.45 -21.65 -11.4 -21.65 -11.4 -8.75 -12.45 -8.75 M-15.85 -25.8 L-24.5 -25.8 -15.95 -35.35 -15.25 -34.65 -22.3 -26.8 -15.0 -26.8 -15.0 -25.8 -15.85 -25.8 M-13.05 -36.15 L-13.05 -36.7 -0.1 -36.7 -0.1 -36.15 -13.05 -36.15 M0.6 -34.45 L1.15 -35.1 12.25 -25.85 11.7 -25.2 0.6 -34.45 M11.45 -21.65 L12.5 -21.65 12.5 -15.75 12.5 -8.75 11.45 -8.75 11.45 -21.65 M6.5 -19.4 L6.5 -13.25 Q6.5 -12.1 5.8 -11.4 5.0 -10.6 3.25 -10.6 1.55 -10.6 0.75 -11.4 0.0 -12.1 0.0 -13.25 L0.0 -19.4 1.2 -19.4 1.2 -13.3 Q1.2 -12.6 1.65 -12.1 2.2 -11.55 3.25 -11.55 4.35 -11.55 4.9 -12.1 5.35 -12.6 5.35 -13.3 L5.35 -19.4 6.5 -19.4 M8.9 -21.0 Q8.55 -21.0 8.35 -20.8 L8.15 -20.25 8.35 -19.7 Q8.55 -19.5 8.9 -19.5 L9.5 -19.7 Q9.7 -19.9 9.7 -20.25 L9.5 -20.8 8.9 -21.0 M7.75 -20.25 Q7.75 -20.7 8.1 -21.05 8.45 -21.4 8.9 -21.4 9.4 -21.4 9.75 -21.05 L10.1 -20.25 Q10.1 -19.8 9.75 -19.45 9.4 -19.1 8.9 -19.1 8.45 -19.1 8.1 -19.45 L7.8 -19.95 7.75 -20.25 M5.9 -3.15 L-2.4 -3.15 -2.4 -4.3 5.9 -4.3 5.9 -3.15 M7.2 3.75 L-3.8 3.75 -3.8 2.6 7.2 2.6 7.2 3.75 M4.8 18.3 Q2.9 15.5 -1.0 12.95 L0.1 12.0 Q4.2 14.6 6.1 17.2 L4.8 18.3 M-4.2 -19.75 L-9.6 -10.15 -10.1 -10.45 -4.7 -20.05 -4.2 -19.75 M-3.6 -20.25 L-3.25 -21.05 Q-2.9 -21.4 -2.45 -21.4 -1.95 -21.4 -1.6 -21.05 -1.25 -20.7 -1.25 -20.25 L-1.25 -19.95 -1.6 -19.45 Q-1.95 -19.1 -2.45 -19.1 -2.9 -19.1 -3.25 -19.45 L-3.55 -20.0 -3.6 -20.25 M-2.45 -21.0 L-3.0 -20.8 -3.2 -20.25 -3.0 -19.7 -2.45 -19.5 -1.85 -19.7 -1.65 -20.25 -1.85 -20.8 -2.45 -21.0 M-29.5 0.45 L-28.35 -1.0 Q-27.6 -1.7 -26.65 -1.7 -25.6 -1.7 -24.35 -0.95 -23.0 -0.1 -22.05 -0.1 -21.4 -0.1 -20.75 -0.8 L-20.15 -1.65 -19.1 -0.8 -20.3 0.55 Q-21.1 1.3 -22.2 1.3 -23.1 1.3 -24.6 0.4 -25.75 -0.3 -26.55 -0.3 -27.4 -0.3 -27.85 0.25 L-28.4 1.1 -29.5 0.45 M-8.3 -5.9 L-6.45 -3.65 -7.6 -3.65 -10.15 -5.9 -8.3 -5.9 M-6.65 25.75 L-6.15 25.25 -1.1 29.95 -6.15 34.6 -6.65 34.1 -2.1 29.95 -6.65 25.75" fill="#000000" fill-rule="evenodd" stroke="none"/>
    <path d="M21.25 -25.7 Q20.95 -23.5 20.95 -20.75 L20.95 -16.2 20.65 -14.0 20.05 -12.8 Q19.15 -11.5 17.45 -10.9 L18.05 -9.75 Q15.9 -7.75 12.95 -7.45 L13.15 -3.9 10.75 -3.9 10.75 -2.9 15.55 -2.9 Q16.9 -2.9 17.75 -2.05 18.5 -1.3 18.5 -0.15 18.5 0.95 17.75 1.7 16.9 2.55 15.55 2.55 L10.75 2.55 10.75 3.55 13.15 3.55 Q13.65 7.0 13.65 9.95 L13.55 10.2 13.15 9.95 7.75 19.55 7.35 19.65 Q7.85 21.95 6.65 25.25 L5.45 24.9 Q5.15 31.15 0.1 34.0 L0.9 35.0 0.8 35.05 Q-2.45 36.85 -2.75 40.4 L-2.8 40.6 -2.8 46.7 Q-2.8 47.4 -3.25 47.9 -3.8 48.45 -4.9 48.45 -5.95 48.45 -6.5 47.9 -6.95 47.4 -6.95 46.7 L-6.95 40.6 -8.15 40.6 -9.0 39.35 -9.4 39.75 -10.0 40.6 -11.15 40.6 -11.15 46.7 Q-11.15 47.4 -11.6 47.9 -12.15 48.45 -13.25 48.45 -14.3 48.45 -14.85 47.9 -15.3 47.4 -15.3 46.7 L-15.3 40.6 -16.45 40.3 Q-15.6 35.95 -12.3 34.65 L-12.1 34.55 Q-8.9 31.7 -7.85 25.95 L-6.65 25.75 -7.7 25.8 -7.85 25.65 -8.95 25.15 Q-10.7 22.5 -12.5 20.5 L-11.95 19.95 Q-13.25 18.6 -13.75 17.45 -14.3 16.25 -14.3 14.9 -14.3 13.25 -13.75 12.1 -13.25 11.0 -11.95 9.85 -11.5 7.6 -11.65 5.6 L-12.3 4.95 Q-13.6 3.6 -14.1 2.45 -14.65 1.25 -14.65 -0.1 -14.65 -1.75 -14.1 -2.9 -13.6 -4.0 -12.3 -5.15 L-12.15 -5.55 Q-11.85 -7.0 -12.35 -8.5 L-12.45 -8.75 -11.4 -8.75 -11.4 -21.65 -11.45 -21.85 Q-12.0 -23.65 -12.15 -25.5 L-14.9 -25.7 -15.85 -25.8 -15.0 -25.8 -15.0 -26.8 -22.3 -26.8 -15.25 -34.65 -15.95 -35.35 Q-15.05 -35.95 -13.25 -36.6 L-13.05 -36.15 -0.1 -36.15 Q0.15 -35.45 0.95 -35.15 L0.6 -34.45 11.7 -25.2 11.5 -21.75 11.45 -21.65 11.45 -8.75 12.5 -8.75 12.6 -7.4 12.95 -7.45 12.5 -8.75 12.5 -15.75 13.4 -17.1 Q15.9 -20.55 14.85 -25.55 L15.75 -25.7 15.75 -30.55 Q15.75 -31.55 16.25 -32.25 L16.6 -32.7 Q17.4 -33.45 18.5 -33.45 19.6 -33.45 20.4 -32.7 L21.0 -31.85 21.25 -30.55 21.25 -25.7 M7.75 -20.25 L7.8 -19.95 8.1 -19.45 Q8.45 -19.1 8.9 -19.1 9.4 -19.1 9.75 -19.45 10.1 -19.8 10.1 -20.25 L9.75 -21.05 Q9.4 -21.4 8.9 -21.4 8.45 -21.4 8.1 -21.05 7.75 -20.7 7.75 -20.25 M8.9 -21.0 L9.5 -20.8 9.7 -20.25 Q9.7 -19.9 9.5 -19.7 L8.9 -19.5 Q8.55 -19.5 8.35 -19.7 L8.15 -20.25 8.35 -20.8 Q8.55 -21.0 8.9 -21.0 M6.5 -19.4 L5.35 -19.4 5.35 -13.3 Q5.35 -12.6 4.9 -12.1 4.35 -11.55 3.25 -11.55 2.2 -11.55 1.65 -12.1 1.2 -12.6 1.2 -13.3 L1.2 -19.4 0.0 -19.4 0.0 -13.25 Q0.0 -12.1 0.75 -11.4 1.55 -10.6 3.25 -10.6 5.0 -10.6 5.8 -11.4 6.5 -12.1 6.5 -13.25 L6.5 -19.4 M-2.45 -21.0 L-1.85 -20.8 -1.65 -20.25 -1.85 -19.7 -2.45 -19.5 -3.0 -19.7 -3.2 -20.25 -3.0 -20.8 -2.45 -21.0 M-3.6 -20.25 L-3.55 -20.0 -3.25 -19.45 Q-2.9 -19.1 -2.45 -19.1 -1.95 -19.1 -1.6 -19.45 L-1.25 -19.95 -1.25 -20.25 Q-1.25 -20.7 -1.6 -21.05 -1.95 -21.4 -2.45 -21.4 -2.9 -21.4 -3.25 -21.05 L-3.6 -20.25 M-4.2 -19.75 L-4.7 -20.05 -10.1 -10.45 -9.6 -10.15 -4.2 -19.75 M4.8 18.3 L6.1 17.2 Q4.2 14.6 0.1 12.0 L-1.0 12.95 Q2.9 15.5 4.8 18.3 M7.2 3.75 L7.2 2.6 -3.8 2.6 -3.8 3.75 7.2 3.75 M5.9 -3.15 L5.9 -4.3 -2.4 -4.3 -2.4 -3.15 5.9 -3.15 M-8.3 -5.9 L-10.15 -5.9 -7.6 -3.65 -6.45 -3.65 -8.3 -5.9 M-6.65 25.75 L-2.1 29.95 -6.65 34.1 -6.15 34.6 -1.1 29.95 -6.15 25.25 -6.65 25.75" fill="#ffffff" fill-rule="evenodd" stroke="none"/>
  </g>
  <g transform="matrix(1.0, 0.0, 0.0, 1.0, 69, 104.7)">
    <path d="M15.75 -0.6 L0.55 0.0 -14.65 -0.6 Q-20.95 -1.15 -20.95 -2.0 -20.95 -2.85 -14.65 -3.45 L0.55 -4.0 15.75 -3.45 Q22.05 -2.85 22.05 -2.0 22.05 -1.15 15.75 -0.6" fill="#000000" fill-rule="evenodd" stroke="none"/>
  </g>
  <g transform="matrix(1.0, 0.0, 0.0, 1.0, 62.5, 59.85)" data-frame="1">
    <use xlink:href="#$id0"/>
  </g>
  <g transform="matrix(-1.0, 0.0, 0.0, 1.0, 62.5, 59.85)" data-frame="2">
    <use xlink:href="#$id0"/>
  </g>
  <g transform="matrix(1.0, 0.0, 0.0, 1.0, 69, 104.7)" data-frame="3">
    <path d="M13.7 -81.0 L12.75 -81.0 12.75 -85.85 Q12.75 -86.85 13.1 -87.6 L13.8 -88.65 Q14.95 -89.8 16.45 -89.8 17.95 -89.8 19.1 -88.65 19.8 -87.95 20.05 -87.0 L20.15 -85.85 20.15 -81.0 19.2 -81.0 19.2 -85.85 18.95 -87.15 18.35 -88.0 Q17.55 -88.75 16.45 -88.75 15.35 -88.75 14.55 -88.0 L14.2 -87.55 Q13.7 -86.85 13.7 -85.85 L13.7 -81.0 M18.9 -76.05 L20.0 -76.05 Q20.55 -75.95 20.05 -75.65 L20.05 -71.45 19.8 -69.3 19.3 -67.95 Q18.3 -66.0 16.0 -65.05 L15.4 -66.2 Q17.1 -66.8 18.0 -68.1 L18.6 -69.3 18.9 -71.5 18.9 -76.05 M11.1 -59.2 L13.5 -59.2 Q15.3 -59.2 16.35 -58.1 17.45 -57.0 17.45 -55.45 17.45 -53.95 16.35 -52.85 15.3 -51.75 13.5 -51.75 L11.1 -51.75 8.7 -51.75 8.7 -52.75 13.5 -52.75 Q14.85 -52.75 15.7 -53.6 16.45 -54.35 16.45 -55.45 16.45 -56.6 15.7 -57.35 14.85 -58.2 13.5 -58.2 L8.7 -58.2 8.7 -59.2 11.1 -59.2 M11.5 -45.1 L11.6 -45.05 6.2 -35.45 5.7 -35.75 11.1 -45.35 11.5 -45.1 M4.6 -30.05 Q4.4 -26.85 2.85 -24.3 1.35 -21.75 -1.15 -20.3 L-1.95 -21.3 Q3.1 -24.15 3.4 -30.4 L4.6 -30.05 M-4.85 -14.7 L-3.7 -14.7 -3.7 -8.55 Q-3.7 -7.4 -4.4 -6.7 -5.2 -5.9 -6.95 -5.9 -8.65 -5.9 -9.45 -6.7 -10.2 -7.4 -10.2 -8.55 L-10.2 -14.7 -9.0 -14.7 -9.0 -8.6 Q-9.0 -7.9 -8.55 -7.4 -8.0 -6.85 -6.95 -6.85 -5.85 -6.85 -5.3 -7.4 -4.85 -7.9 -4.85 -8.6 L-4.85 -14.7 M-12.05 -14.7 L-12.05 -8.55 Q-12.05 -7.4 -12.75 -6.7 -13.55 -5.9 -15.3 -5.9 -17.0 -5.9 -17.8 -6.7 -18.55 -7.4 -18.55 -8.55 L-18.55 -14.7 -17.35 -14.7 -17.35 -8.6 Q-17.35 -7.9 -16.9 -7.4 -16.35 -6.85 -15.3 -6.85 -14.2 -6.85 -13.65 -7.4 -13.2 -7.9 -13.2 -8.6 L-13.2 -14.7 -12.05 -14.7 M-14.15 -20.75 L-14.95 -21.8 Q-12.0 -24.25 -11.0 -30.15 L-9.9 -29.65 -9.75 -29.5 Q-9.65 -29.4 -9.9 -29.35 -10.95 -23.6 -14.15 -20.75 M-14.55 -34.8 Q-15.85 -36.2 -16.45 -37.45 -17.1 -38.85 -17.1 -40.4 -17.1 -42.2 -16.45 -43.55 -15.9 -44.75 -14.55 -45.95 L-14.0 -45.45 Q-15.3 -44.3 -15.8 -43.2 -16.35 -42.05 -16.35 -40.4 -16.35 -39.05 -15.8 -37.85 -15.3 -36.7 -14.0 -35.35 L-14.55 -34.8 M-14.35 -50.35 L-14.9 -49.8 Q-16.2 -51.2 -16.8 -52.45 -17.45 -53.85 -17.45 -55.4 -17.45 -57.2 -16.8 -58.55 -16.25 -59.75 -14.9 -60.95 L-14.35 -60.45 Q-15.65 -59.3 -16.15 -58.2 -16.7 -57.05 -16.7 -55.4 -16.7 -54.05 -16.15 -52.85 -15.65 -51.7 -14.35 -50.35 M-14.5 -64.05 L-14.5 -76.95 -13.45 -76.95 -13.45 -64.05 -14.5 -64.05 M-17.9 -81.1 L-26.55 -81.1 -18.0 -90.65 -17.3 -89.95 -24.35 -82.1 -17.05 -82.1 -17.05 -81.1 -17.9 -81.1 M-15.1 -91.45 L-15.1 -92.0 -2.15 -92.0 -2.15 -91.45 -15.1 -91.45 M-1.45 -89.75 L-0.9 -90.4 10.2 -81.15 9.65 -80.5 -1.45 -89.75 M9.4 -76.95 L10.45 -76.95 10.45 -71.05 10.45 -64.05 9.4 -64.05 9.4 -76.95 M-6.25 -75.05 L-11.65 -65.45 -12.15 -65.75 -6.75 -75.35 -6.25 -75.05 M-4.0 -74.45 L-4.0 -65.75 -5.05 -65.75 -5.05 -74.45 -4.0 -74.45 M-21.15 -56.1 L-22.35 -54.75 Q-23.15 -54.0 -24.25 -54.0 -25.15 -54.0 -26.65 -54.9 -27.8 -55.6 -28.6 -55.6 -29.45 -55.6 -29.9 -55.05 L-30.45 -54.2 -31.55 -54.85 -30.4 -56.3 Q-29.65 -57.0 -28.7 -57.0 -27.65 -57.0 -26.4 -56.25 -25.05 -55.4 -24.1 -55.4 -23.45 -55.4 -22.8 -56.1 L-22.2 -56.95 -21.15 -56.1 M-4.45 -59.6 L3.85 -59.6 3.85 -58.45 -4.45 -58.45 -4.45 -59.6 M-5.85 -52.7 L5.15 -52.7 5.15 -51.55 -5.85 -51.55 -5.85 -52.7 M-10.35 -61.2 L-8.5 -58.95 -9.65 -58.95 -12.2 -61.2 -10.35 -61.2 M7.0 -65.75 L5.95 -65.75 5.95 -74.45 7.0 -74.45 7.0 -65.75 M4.25 -73.05 L3.2 -73.05 3.2 -74.4 4.25 -74.4 4.25 -73.05 M4.25 -71.45 L4.25 -65.75 3.2 -65.75 3.2 -71.45 4.25 -71.45 M-1.25 -71.45 L-1.25 -65.75 -2.3 -65.75 -2.3 -71.45 -1.25 -71.45 M-2.3 -74.4 L-1.25 -74.4 -1.25 -73.05 -2.3 -73.05 -2.3 -74.4 M0.45 -74.45 L1.5 -74.45 1.5 -65.75 0.45 -65.75 0.45 -74.45 M-1.95 -43.3 Q2.15 -40.7 4.05 -38.1 L2.75 -37.0 Q0.85 -39.8 -3.05 -42.35 L-1.95 -43.3 M-8.7 -29.55 L-8.2 -30.05 -3.15 -25.35 -8.2 -20.7 -8.7 -21.2 -4.15 -25.35 -8.7 -29.55" fill="#000000" fill-rule="evenodd" stroke="none"/>
    <path d="M19.2 -81.0 Q18.9 -78.8 18.9 -76.05 L18.9 -71.5 18.6 -69.3 18.0 -68.1 Q17.1 -66.8 15.4 -66.2 L16.0 -65.05 Q13.85 -63.05 10.9 -62.75 L11.1 -59.2 8.7 -59.2 8.7 -58.2 13.5 -58.2 Q14.85 -58.2 15.7 -57.35 16.45 -56.6 16.45 -55.45 16.45 -54.35 15.7 -53.6 14.85 -52.75 13.5 -52.75 L8.7 -52.75 8.7 -51.75 11.1 -51.75 Q11.55 -48.3 11.6 -45.35 L11.5 -45.1 11.1 -45.35 5.7 -35.75 5.3 -35.65 Q5.8 -33.35 4.6 -30.05 L3.4 -30.4 Q3.1 -24.15 -1.95 -21.3 L-1.15 -20.3 -1.25 -20.25 Q-4.5 -18.45 -4.8 -14.9 L-4.85 -14.7 -4.85 -8.6 Q-4.85 -7.9 -5.3 -7.4 -5.85 -6.85 -6.95 -6.85 -8.0 -6.85 -8.55 -7.4 -9.0 -7.9 -9.0 -8.6 L-9.0 -14.7 -10.2 -14.7 -11.05 -15.95 -11.45 -15.55 -12.05 -14.7 -13.2 -14.7 -13.2 -8.6 Q-13.2 -7.9 -13.65 -7.4 -14.2 -6.85 -15.3 -6.85 -16.35 -6.85 -16.9 -7.4 -17.35 -7.9 -17.35 -8.6 L-17.35 -14.7 -18.5 -15.0 Q-17.65 -19.35 -14.35 -20.65 L-14.15 -20.75 Q-10.95 -23.6 -9.9 -29.35 L-8.7 -29.55 -9.75 -29.5 -9.9 -29.65 -11.0 -30.15 Q-12.75 -32.8 -14.55 -34.8 L-14.0 -35.35 Q-15.3 -36.7 -15.8 -37.85 -16.35 -39.05 -16.35 -40.4 -16.35 -42.05 -15.8 -43.2 -15.3 -44.3 -14.0 -45.45 -13.55 -47.7 -13.7 -49.7 L-14.35 -50.35 Q-15.65 -51.7 -16.15 -52.85 -16.7 -54.05 -16.7 -55.4 -16.7 -57.05 -16.15 -58.2 -15.65 -59.3 -14.35 -60.45 L-14.2 -60.85 Q-13.9 -62.3 -14.4 -63.8 L-14.5 -64.05 -13.45 -64.05 -13.45 -76.95 -13.5 -77.15 Q-14.05 -78.95 -14.2 -80.8 L-16.95 -81.0 -17.9 -81.1 -17.05 -81.1 -17.05 -82.1 -24.35 -82.1 -17.3 -89.95 -18.0 -90.65 -15.3 -91.9 -15.1 -91.45 -2.15 -91.45 Q-1.9 -90.75 -1.1 -90.45 L-1.45 -89.75 9.65 -80.5 9.45 -77.05 9.4 -76.95 9.4 -64.05 10.45 -64.05 10.45 -71.05 11.35 -72.4 Q13.85 -75.85 12.8 -80.85 L13.7 -81.0 13.7 -85.85 Q13.7 -86.85 14.2 -87.55 L14.55 -88.0 Q15.35 -88.75 16.45 -88.75 17.55 -88.75 18.35 -88.0 L18.95 -87.15 19.2 -85.85 19.2 -81.0 M-4.0 -74.45 L-5.05 -74.45 -5.05 -65.75 -4.0 -65.75 -4.0 -74.45 M-6.25 -75.05 L-6.75 -75.35 -12.15 -65.75 -11.65 -65.45 -6.25 -75.05 M-10.35 -61.2 L-12.2 -61.2 -9.65 -58.95 -8.5 -58.95 -10.35 -61.2 M-5.85 -52.7 L-5.85 -51.55 5.15 -51.55 5.15 -52.7 -5.85 -52.7 M-4.45 -59.6 L-4.45 -58.45 3.85 -58.45 3.85 -59.6 -4.45 -59.6 M10.45 -64.05 L10.55 -62.7 10.9 -62.75 10.45 -64.05 M-1.95 -43.3 L-3.05 -42.35 Q0.85 -39.8 2.75 -37.0 L4.05 -38.1 Q2.15 -40.7 -1.95 -43.3 M0.45 -74.45 L0.45 -65.75 1.5 -65.75 1.5 -74.45 0.45 -74.45 M-2.3 -74.4 L-2.3 -73.05 -1.25 -73.05 -1.25 -74.4 -2.3 -74.4 M-1.25 -71.45 L-2.3 -71.45 -2.3 -65.75 -1.25 -65.75 -1.25 -71.45 M4.25 -71.45 L3.2 -71.45 3.2 -65.75 4.25 -65.75 4.25 -71.45 M4.25 -73.05 L4.25 -74.4 3.2 -74.4 3.2 -73.05 4.25 -73.05 M7.0 -65.75 L7.0 -74.45 5.95 -74.45 5.95 -65.75 7.0 -65.75 M-8.7 -29.55 L-4.15 -25.35 -8.7 -21.2 -8.2 -20.7 -3.15 -25.35 -8.2 -30.05 -8.7 -29.55" fill="#ffffff" fill-rule="evenodd" stroke="none"/>
  </g>
  <defs>
    <g id="$id0">
      <path d="M59.95 -28.05 Q62.5 -25.65 62.5 -22.5 62.5 -19.35 59.95 -17.0 L59.4 -17.55 Q61.75 -19.75 61.75 -22.5 61.75 -25.3 59.4 -27.5 L59.95 -28.05 M48.85 -37.6 Q48.85 -36.1 47.75 -35.0 46.7 -33.9 44.9 -33.9 L40.1 -33.9 40.1 -34.9 44.9 -34.9 Q46.25 -34.9 47.1 -35.75 47.85 -36.5 47.85 -37.6 47.85 -38.75 47.1 -39.5 46.25 -40.35 44.9 -40.35 L40.1 -40.35 40.1 -41.35 44.9 -41.35 Q46.7 -41.35 47.75 -40.25 48.85 -39.15 48.85 -37.6 M39.85 -22.2 L32.15 -22.2 32.15 -23.35 39.85 -23.35 39.85 -22.2 M40.55 -26.05 L31.5 -26.05 31.5 -27.2 40.55 -27.2 40.55 -26.05 M45.95 -22.5 Q45.95 -19.35 43.4 -17.0 L42.85 -17.55 Q45.2 -19.75 45.2 -22.5 45.2 -25.3 42.85 -27.5 L43.4 -28.05 Q45.95 -25.65 45.95 -22.5 M56.0 -28.05 Q58.55 -25.65 58.55 -22.5 58.55 -19.35 56.0 -17.0 L55.45 -17.55 Q57.8 -19.75 57.8 -22.5 57.8 -25.3 55.45 -27.5 L56.0 -28.05 M37.1 -33.1 L28.3 -33.1 28.3 -34.2 37.1 -34.2 37.1 -33.1 M36.6 -11.05 L27.55 -11.05 27.55 -12.2 36.6 -12.2 36.6 -11.05 M39.45 -13.05 Q42.0 -10.65 42.0 -7.5 42.0 -4.35 39.45 -2.0 L38.9 -2.55 Q41.25 -4.75 41.25 -7.5 41.25 -10.3 38.9 -12.5 L39.45 -13.05 M41.5 -18.1 L30.5 -18.1 30.5 -19.2 41.5 -19.2 41.5 -18.1 M37.55 -3.1 L26.55 -3.1 26.55 -4.2 37.55 -4.2 37.55 -3.1 M51.3 1.95 Q53.85 4.35 53.85 7.5 53.85 10.65 51.3 13.0 L50.75 12.45 Q53.1 10.25 53.1 7.5 53.1 4.7 50.75 2.5 L51.3 1.95 M55.25 1.95 Q57.8 4.35 57.8 7.5 57.8 10.65 55.25 13.0 L54.7 12.45 Q57.05 10.25 57.05 7.5 57.05 4.7 54.7 2.5 L55.25 1.95 M29.4 -40.5 L29.4 -41.65 35.9 -41.65 35.9 -40.5 29.4 -40.5 M25.55 -40.6 L17.25 -40.6 17.25 -41.75 25.55 -41.75 25.55 -40.6 M23.35 -25.55 L14.7 -25.55 14.7 -26.6 23.35 -26.6 23.35 -25.55 M23.35 -22.2 L14.7 -22.2 14.7 -23.25 23.35 -23.25 23.35 -22.2 M26.85 -33.7 L15.85 -33.7 15.85 -34.85 26.85 -34.85 26.85 -33.7 M12.95 -41.05 L3.9 -41.05 3.9 -42.2 12.95 -42.2 12.95 -41.05 M12.25 -37.2 L4.55 -37.2 4.55 -38.35 12.25 -38.35 12.25 -37.2 M-0.45 -40.6 L-8.75 -40.6 -8.75 -41.75 -0.45 -41.75 -0.45 -40.6 M-2.55 -24.6 L6.8 -24.6 6.8 -23.65 -2.55 -23.65 -2.55 -24.6 M13.9 -34.2 L13.9 -33.1 2.9 -33.1 2.9 -34.2 13.9 -34.2 M0.85 -33.7 L-10.15 -33.7 -10.15 -34.85 0.85 -34.85 0.85 -33.7 M6.8 -21.65 L6.8 -20.7 -2.55 -20.7 -2.55 -21.65 6.8 -21.65 M10.75 -8.25 L19.4 -8.25 19.4 -7.2 10.75 -7.2 10.75 -8.25 M10.75 -11.6 L19.4 -11.6 19.4 -10.55 10.75 -10.55 10.75 -11.6 M10.75 -4.85 L19.4 -4.85 19.4 -3.8 10.75 -3.8 10.75 -4.85 M2.85 -8.65 L-6.5 -8.65 -6.5 -9.6 2.85 -9.6 2.85 -8.65 M2.85 -5.7 L-6.5 -5.7 -6.5 -6.65 2.85 -6.65 2.85 -5.7 M14.7 -19.85 L23.35 -19.85 23.35 -18.8 14.7 -18.8 14.7 -19.85 M35.9 -8.35 L35.9 -7.2 28.2 -7.2 28.2 -8.35 35.9 -8.35 M30.05 1.95 Q32.6 4.35 32.6 7.5 32.6 10.65 30.05 13.0 L29.5 12.45 Q31.85 10.25 31.85 7.5 31.85 4.7 29.5 2.5 L30.05 1.95 M27.2 2.8 L27.2 3.95 18.15 3.95 18.15 2.8 27.2 2.8 M-12.8 -40.5 L-19.3 -40.5 -19.3 -41.65 -12.8 -41.65 -12.8 -40.5 M-23.2 -33.9 L-28.0 -33.9 Q-29.8 -33.9 -30.85 -35.0 -31.95 -36.1 -31.95 -37.6 -31.95 -39.15 -30.85 -40.25 -29.8 -41.35 -28.0 -41.35 L-23.2 -41.35 -23.2 -40.35 -28.0 -40.35 Q-29.35 -40.35 -30.2 -39.5 -30.95 -38.75 -30.95 -37.6 -30.95 -36.5 -30.2 -35.75 -29.35 -34.9 -28.0 -34.9 L-23.2 -34.9 -23.2 -33.9 M-15.55 -24.6 L-6.2 -24.6 -6.2 -23.65 -15.55 -23.65 -15.55 -24.6 M-22.75 -24.9 L-27.75 -24.9 -27.75 -25.85 -22.75 -25.85 -22.75 -24.9 M-11.6 -34.2 L-11.6 -33.1 -20.4 -33.1 -20.4 -34.2 -11.6 -34.2 M-6.2 -21.65 L-6.2 -20.7 -15.55 -20.7 -15.55 -21.65 -6.2 -21.65 M-30.05 -28.05 L-29.5 -27.5 Q-31.85 -25.3 -31.85 -22.5 -31.85 -19.75 -29.5 -17.55 L-30.05 -17.0 Q-32.6 -19.35 -32.6 -22.5 -32.6 -25.65 -30.05 -28.05 M-33.45 -12.5 Q-35.8 -10.3 -35.8 -7.5 -35.8 -4.75 -33.45 -2.55 L-34.0 -2.0 Q-36.55 -4.35 -36.55 -7.5 -36.55 -10.65 -34.0 -13.05 L-33.45 -12.5 M-31.7 -9.9 L-31.7 -10.85 -26.7 -10.85 -26.7 -9.9 -31.7 -9.9 M-28.55 -20.15 L-21.95 -20.15 -21.95 -19.15 -28.55 -19.15 -28.55 -20.15 M-38.9 2.5 Q-41.25 4.7 -41.25 7.5 -41.25 10.25 -38.9 12.45 L-39.45 13.0 Q-42.0 10.65 -42.0 7.5 -42.0 4.35 -39.45 1.95 L-38.9 2.5 M-32.5 -4.15 L-32.5 -5.15 -25.9 -5.15 -25.9 -4.15 -32.5 -4.15 M-19.5 -6.65 L-10.15 -6.65 -10.15 -5.7 -19.5 -5.7 -19.5 -6.65 M-10.15 -9.6 L-10.15 -8.65 -19.5 -8.65 -19.5 -9.6 -10.15 -9.6 M-11.95 8.35 L-2.6 8.35 -2.6 9.3 -11.95 9.3 -11.95 8.35 M-11.95 5.4 L-2.6 5.4 -2.6 6.35 -11.95 6.35 -11.95 5.4 M-15.6 9.3 L-24.95 9.3 -24.95 8.35 -15.6 8.35 -15.6 9.3 M-15.6 6.35 L-24.95 6.35 -24.95 5.4 -15.6 5.4 -15.6 6.35 M-18.05 20.1 L-23.05 20.1 -23.05 19.15 -18.05 19.15 -18.05 20.1 M-17.25 24.85 L-17.25 25.85 -23.85 25.85 -23.85 24.85 -17.25 24.85 M-10.85 20.4 L-1.5 20.4 -1.5 21.35 -10.85 21.35 -10.85 20.4 M-10.85 23.35 L-1.5 23.35 -1.5 24.3 -10.85 24.3 -10.85 23.35 M-32.15 5.1 L-37.15 5.1 -37.15 4.15 -32.15 4.15 -32.15 5.1 M-31.35 10.85 L-37.95 10.85 -37.95 9.85 -31.35 9.85 -31.35 10.85 M-27.9 22.5 Q-27.9 19.35 -25.35 16.95 L-24.8 17.5 Q-27.15 19.7 -27.15 22.5 -27.15 25.25 -24.8 27.45 L-25.35 28.0 Q-27.9 25.65 -27.9 22.5 M-29.5 32.5 Q-31.85 34.7 -31.85 37.5 -31.85 40.25 -29.5 42.45 L-30.05 43.0 Q-32.6 40.65 -32.6 37.5 -32.6 34.35 -30.05 31.95 L-29.5 32.5 M-33.45 32.5 Q-35.8 34.7 -35.8 37.5 -35.8 40.25 -33.45 42.45 L-34.0 43.0 Q-36.55 40.65 -36.55 37.5 -36.55 34.35 -34.0 31.95 L-33.45 32.5 M-10.7 35.4 L-1.35 35.4 -1.35 36.35 -10.7 36.35 -10.7 35.4 M-10.7 38.35 L-1.35 38.35 -1.35 39.3 -10.7 39.3 -10.7 38.35 M-20.0 37.5 Q-20.0 34.35 -17.45 31.95 L-16.9 32.5 Q-19.25 34.7 -19.25 37.5 -19.25 40.25 -16.9 42.45 L-17.45 43.0 Q-20.0 40.65 -20.0 37.5 M28.15 11.9 L17.15 11.9 17.15 10.8 28.15 10.8 28.15 11.9 M26.5 7.8 L18.8 7.8 18.8 6.65 26.5 6.65 26.5 7.8 M25.3 26.9 L14.3 26.9 14.3 25.8 25.3 25.8 25.3 26.9 M24.35 18.95 L15.3 18.95 15.3 17.8 24.35 17.8 24.35 18.95 M23.65 22.8 L15.95 22.8 15.95 21.65 23.65 21.65 23.65 22.8 M26.65 17.5 L27.2 16.95 Q29.75 19.35 29.75 22.5 29.75 25.65 27.2 28.0 L26.65 27.45 Q29.0 25.25 29.0 22.5 29.0 19.7 26.65 17.5 M13.95 11.2 L5.3 11.2 5.3 10.15 13.95 10.15 13.95 11.2 M13.95 7.8 L5.3 7.8 5.3 6.75 13.95 6.75 13.95 7.8 M13.95 4.45 L5.3 4.45 5.3 3.4 13.95 3.4 13.95 4.45 M2.15 23.35 L11.5 23.35 11.5 24.3 2.15 24.3 2.15 23.35 M2.15 20.4 L11.5 20.4 11.5 21.35 2.15 21.35 2.15 20.4 M15.45 32.8 L15.45 33.95 6.4 33.95 6.4 32.8 15.45 32.8 M7.05 36.65 L14.75 36.65 14.75 37.8 7.05 37.8 7.05 36.65 M5.4 40.8 L16.4 40.8 16.4 41.9 5.4 41.9 5.4 40.8 M17.75 32.5 L18.3 31.95 Q20.85 34.35 20.85 37.5 20.85 40.65 18.3 43.0 L17.75 42.45 Q20.1 40.25 20.1 37.5 20.1 34.7 17.75 32.5 M-56.0 -43.05 L-55.45 -42.5 Q-57.8 -40.3 -57.8 -37.5 -57.8 -34.75 -55.45 -32.55 L-56.0 -32.0 Q-58.55 -34.35 -58.55 -37.5 -58.55 -40.65 -56.0 -43.05 M-59.95 -43.05 L-59.4 -42.5 Q-61.75 -40.3 -61.75 -37.5 -61.75 -34.75 -59.4 -32.55 L-59.95 -32.0 Q-62.5 -34.35 -62.5 -37.5 -62.5 -40.65 -59.95 -43.05 M-55.45 2.5 Q-57.8 4.7 -57.8 7.5 -57.8 10.25 -55.45 12.45 L-56.0 13.0 Q-58.55 10.65 -58.55 7.5 -58.55 4.35 -56.0 1.95 L-55.45 2.5 M-51.5 2.5 Q-53.85 4.7 -53.85 7.5 -53.85 10.25 -51.5 12.45 L-52.05 13.0 Q-54.6 10.65 -54.6 7.5 -54.6 4.35 -52.05 1.95 L-51.5 2.5" fill="#000000" fill-rule="evenodd" stroke="none"/>
    </g>
  </defs>
</svg>
