<svg xmlns:xlink="http://www.w3.org/1999/xlink" height="68px" width="92px" xmlns="http://www.w3.org/2000/svg" data-current-frame="" data-user-id="$id">
  <g transform="matrix(1.0, 0.0, 0.0, 1.0, 27.95, 34.25)">
    <path d="M3.65 -19.7 L3.65 -20.45 8.45 -20.45 8.45 -19.7 3.65 -19.7 M10.85 -20.95 L16.6 -33.5 22.35 -20.95 21.2 -20.35 16.6 -30.35 12.05 -20.35 10.85 -20.95 M24.75 -15.5 L24.85 -15.6 26.8 -13.2 Q27.65 -11.7 27.9 -9.9 L27.95 -8.8 Q27.95 -4.95 24.85 -2.0 L24.15 -2.7 Q27.0 -5.35 27.0 -8.8 27.0 -12.25 24.15 -14.95 L24.75 -15.5 M12.35 3.05 L13.0 3.45 6.35 15.25 5.75 14.9 12.35 3.05 M3.5 19.0 L3.5 19.7 -12.45 19.7 -12.45 19.0 3.5 19.0 M-17.2 15.25 L-17.8 14.9 -11.2 3.05 -10.55 3.45 -17.2 15.25 M-9.5 -2.0 L-10.2 -2.75 Q-12.65 -5.4 -12.65 -8.8 -12.65 -11.6 -11.0 -13.85 L-9.5 -15.6 -8.8 -14.95 -10.3 -13.2 Q-11.7 -11.2 -11.7 -8.8 -11.7 -6.25 -10.15 -4.15 L-8.8 -2.7 -9.5 -2.0 M-8.85 -20.35 L-10.05 -20.95 -4.3 -33.5 1.45 -20.95 0.3 -20.35 -4.3 -30.35 -8.85 -20.35 M21.0 -10.35 L21.0 -7.7 18.35 -7.7 18.35 -10.35 21.0 -10.35 M12.6 -12.1 Q13.25 -10.35 13.25 -8.35 13.25 -5.5 11.9 -4.1 11.0 -3.25 9.65 -3.25 8.45 -3.25 7.85 -3.85 7.35 -4.35 7.2 -4.8 L6.6 -4.0 Q5.85 -3.25 4.7 -3.25 3.65 -3.25 2.95 -3.95 2.25 -4.6 2.25 -6.35 2.25 -9.25 4.75 -12.1 L5.85 -11.55 Q3.4 -8.8 3.4 -6.35 3.4 -5.05 3.75 -4.7 4.15 -4.3 4.7 -4.3 5.5 -4.3 6.1 -4.85 L6.9 -6.05 Q6.75 -6.6 6.9 -7.6 6.95 -8.3 7.45 -9.3 7.9 -10.2 8.35 -10.2 8.85 -10.2 8.85 -8.85 L8.5 -7.05 7.95 -5.85 Q7.95 -5.25 8.4 -4.8 8.85 -4.35 9.6 -4.35 10.4 -4.35 10.95 -4.95 11.95 -5.95 11.95 -8.35 11.95 -10.3 11.4 -11.8 L12.6 -12.1 M7.1 21.25 Q7.8 21.15 7.3 21.65 8.3 27.4 13.75 29.15 L12.8 30.8 Q9.7 30.75 6.85 32.2 L5.75 31.05 Q8.2 29.7 10.8 29.5 7.05 27.7 5.6 21.55 L7.1 21.25 M-3.0 -10.35 L-3.0 -7.7 -5.65 -7.7 -5.65 -10.35 -3.0 -10.35 M-19.85 3.45 Q-20.1 7.4 -22.05 10.5 -23.85 13.65 -26.95 15.45 L-27.95 14.2 Q-21.75 10.7 -21.35 3.0 L-19.85 3.45 M-14.1 21.45 Q-14.35 25.4 -16.3 28.5 -18.1 31.65 -21.2 33.45 L-22.2 32.2 Q-16.0 28.7 -15.6 21.0 L-14.1 21.45" fill="#000000" fill-rule="evenodd" stroke="none"/>
    <path d="M8.45 -19.7 L10.85 -20.95 12.05 -20.35 16.6 -30.35 21.2 -20.35 22.4 -20.8 24.05 -16.25 24.75 -15.5 24.15 -14.95 Q27.0 -12.25 27.0 -8.8 27.0 -5.35 24.15 -2.7 L24.85 -2.0 22.95 -0.4 Q21.45 0.75 17.2 0.9 12.95 1.0 12.35 3.05 L5.75 14.9 6.35 15.25 Q6.3 18.05 3.5 19.0 L-12.45 19.0 -12.65 19.7 Q-16.5 18.95 -17.2 15.25 L-10.55 3.45 -10.45 3.35 Q-9.1 1.3 -9.5 -2.0 L-8.8 -2.7 -10.15 -4.15 Q-11.7 -6.25 -11.7 -8.8 -11.7 -11.2 -10.3 -13.2 L-8.8 -14.95 -9.5 -15.6 -10.0 -16.5 Q-10.15 -18.3 -9.5 -20.45 L-8.85 -20.35 -4.3 -30.35 0.3 -20.35 1.4 -20.15 3.55 -20.4 3.65 -19.7 8.45 -19.7 M12.6 -12.1 L11.4 -11.8 Q11.95 -10.3 11.95 -8.35 11.95 -5.95 10.95 -4.95 10.4 -4.35 9.6 -4.35 8.85 -4.35 8.4 -4.8 7.95 -5.25 7.95 -5.85 L8.5 -7.05 8.85 -8.85 Q8.85 -10.2 8.35 -10.2 7.9 -10.2 7.45 -9.3 6.95 -8.3 6.9 -7.6 6.75 -6.6 6.9 -6.05 L6.1 -4.85 Q5.5 -4.3 4.7 -4.3 4.15 -4.3 3.75 -4.7 3.4 -5.05 3.4 -6.35 3.4 -8.8 5.85 -11.55 L4.75 -12.1 Q2.25 -9.25 2.25 -6.35 2.25 -4.6 2.95 -3.95 3.65 -3.25 4.7 -3.25 5.85 -3.25 6.6 -4.0 L7.2 -4.8 Q7.35 -4.35 7.85 -3.85 8.45 -3.25 9.65 -3.25 11.0 -3.25 11.9 -4.1 13.25 -5.5 13.25 -8.35 13.25 -10.35 12.6 -12.1 M21.0 -10.35 L18.35 -10.35 18.35 -7.7 21.0 -7.7 21.0 -10.35 M-3.0 -10.35 L-5.65 -10.35 -5.65 -7.7 -3.0 -7.7 -3.0 -10.35" fill="#ffffff" fill-rule="evenodd" stroke="none"/>
  </g>
  <g transform="matrix(1.0, 0.0, 0.0, 1.0, 63.3, 25.25)" data-frame="0">
    <path d="M-2.25 6.75 L-3.0 5.3 Q1.3 3.75 1.3 -1.2 L1.3 -6.8 2.7 -6.8 Q3.3 -6.7 2.75 -6.3 L2.75 -0.5 Q2.75 4.65 -2.25 6.75" fill="#000000" fill-rule="evenodd" stroke="none"/>
  </g>
  <g transform="matrix(1.0, 0.0, 0.0, 1.0, 48.05, 42.95)" data-frame="1">
    <path d="M3.6 -2.8 L1.15 -4.75 1.8 -5.65 4.35 -3.7 3.6 -2.8 M-2.65 -4.95 Q-1.65 0.8 3.8 2.55 L2.85 4.25 Q-0.3 4.2 -3.1 5.6 L-4.2 4.5 Q-1.8 3.1 0.85 2.95 -2.9 1.1 -4.35 -5.0 L-2.85 -5.3 Q-2.15 -5.45 -2.65 -4.95 M3.05 -2.2 L2.3 -1.3 -0.15 -3.25 0.45 -4.15 3.05 -2.2" fill="#000000" fill-rule="evenodd" stroke="none"/>
  </g>
  <g transform="matrix(1.0, 0.0, 0.0, 1.0, 50.45, 42.95)" data-frame="2">
    <path d="M3.6 -2.8 L1.15 -4.75 1.8 -5.65 4.35 -3.7 3.6 -2.8 M-2.65 -4.95 Q-1.65 0.8 3.8 2.55 L2.85 4.25 Q-0.3 4.2 -3.1 5.6 L-4.2 4.5 Q-1.8 3.1 0.85 2.95 -2.9 1.1 -4.35 -5.0 L-2.85 -5.3 Q-2.15 -5.45 -2.65 -4.95 M3.05 -2.2 L2.3 -1.3 -0.15 -3.25 0.45 -4.15 3.05 -2.2" fill="#000000" fill-rule="evenodd" stroke="none"/>
  </g>
  <g transform="matrix(1.0, 0.0, 0.0, 1.0, 25.65, 67.25)" data-frame="3">
    <path d="M44.8 -53.75 L33.3 -53.75 33.3 -65.25 44.8 -65.25 44.8 -53.75" fill="#000000" fill-rule="evenodd" stroke="none"/>
  </g>
  <g transform="matrix(1.0, 0.0, 0.0, 1.0, 25.65, 67.25)" data-frame="4">
    <path d="M43.15 -65.25 L36.9 -65.25 36.9 -62.55 43.15 -62.55 43.15 -65.25 M43.15 -61.35 L36.9 -61.35 36.9 -58.55 43.15 -58.55 43.15 -61.35 M43.15 -56.55 L43.15 -57.35 36.9 -57.35 36.9 -56.35 35.65 -56.35 35.65 -66.45 44.4 -66.45 44.4 -56.55 43.15 -56.55 M46.9 -53.95 L33.0 -53.95 33.0 -55.1 46.9 -55.1 46.9 -53.95" fill="#000000" fill-rule="evenodd" stroke="none"/>
    <path d="M43.15 -61.35 L43.15 -58.55 36.9 -58.55 36.9 -61.35 43.15 -61.35 M43.15 -65.25 L43.15 -62.55 36.9 -62.55 36.9 -65.25 43.15 -65.25" fill="#ffffff" fill-rule="evenodd" stroke="none"/>
  </g>
  <g transform="matrix(1.0, 0.0, 0.0, 1.0, 25.65, 67.25)" data-frame="5">
    <path d="M45.5 -54.25 L33.55 -54.25 33.55 -66.2 45.5 -66.2 45.5 -54.25 M44.25 -65.0 L34.8 -65.0 34.8 -55.45 44.25 -55.45 44.25 -65.0" fill="#000000" fill-rule="evenodd" stroke="none"/>
    <path d="M44.25 -65.0 L44.25 -55.45 34.8 -55.45 34.8 -65.0 44.25 -65.0" fill="#ffffff" fill-rule="evenodd" stroke="none"/>
  </g>
  <g transform="matrix(1.0, 0.0, 0.0, 1.0, 25.65, 67.25)" data-frame="6">
    <path d="M42.05 -64.85 Q42.9 -64.85 43.45 -64.3 44.25 -63.5 44.25 -61.7 L44.25 -57.35 Q44.25 -55.55 43.45 -54.75 42.9 -54.2 42.05 -54.2 41.25 -54.2 40.7 -54.75 39.9 -55.55 39.9 -57.35 L39.9 -61.7 Q39.9 -63.5 40.7 -64.3 41.25 -64.85 42.05 -64.85 M42.05 -63.7 L41.55 -63.45 Q41.15 -63.0 41.15 -61.7 L41.15 -57.35 Q41.15 -56.05 41.55 -55.6 41.8 -55.35 42.05 -55.35 42.3 -55.35 42.55 -55.6 43.0 -56.05 43.0 -57.35 L43.0 -61.7 Q43.0 -63.0 42.55 -63.45 L42.05 -63.7 M46.65 -59.5 Q46.65 -62.45 44.55 -64.5 42.5 -66.55 39.55 -66.55 36.65 -66.55 34.55 -64.5 32.5 -62.45 32.5 -59.5 32.5 -56.55 34.55 -54.5 36.65 -52.45 39.55 -52.45 42.5 -52.45 44.55 -54.5 46.65 -56.55 46.65 -59.5 M45.0 -54.05 Q42.75 -51.8 39.55 -51.8 36.4 -51.8 34.15 -54.05 31.9 -56.3 31.9 -59.5 31.9 -62.7 34.15 -64.95 36.4 -67.2 39.55 -67.2 42.75 -67.2 45.0 -64.95 47.25 -62.7 47.25 -59.5 47.25 -56.3 45.0 -54.05 M34.9 -63.5 Q36.95 -63.5 37.05 -64.75 L37.9 -64.75 37.9 -54.3 36.65 -54.3 36.65 -62.75 34.9 -62.75 34.9 -63.5" fill="#000000" fill-rule="evenodd" stroke="none"/>
    <path d="M46.65 -59.5 Q46.65 -56.55 44.55 -54.5 42.5 -52.45 39.55 -52.45 36.65 -52.45 34.55 -54.5 32.5 -56.55 32.5 -59.5 32.5 -62.45 34.55 -64.5 36.65 -66.55 39.55 -66.55 42.5 -66.55 44.55 -64.5 46.65 -62.45 46.65 -59.5 M42.05 -63.7 L42.55 -63.45 Q43.0 -63.0 43.0 -61.7 L43.0 -57.35 Q43.0 -56.05 42.55 -55.6 42.3 -55.35 42.05 -55.35 41.8 -55.35 41.55 -55.6 41.15 -56.05 41.15 -57.35 L41.15 -61.7 Q41.15 -63.0 41.55 -63.45 L42.05 -63.7 M42.05 -64.85 Q41.25 -64.85 40.7 -64.3 39.9 -63.5 39.9 -61.7 L39.9 -57.35 Q39.9 -55.55 40.7 -54.75 41.25 -54.2 42.05 -54.2 42.9 -54.2 43.45 -54.75 44.25 -55.55 44.25 -57.35 L44.25 -61.7 Q44.25 -63.5 43.45 -64.3 42.9 -64.85 42.05 -64.85 M34.9 -63.5 L34.9 -62.75 36.65 -62.75 36.65 -54.3 37.9 -54.3 37.9 -64.75 37.05 -64.75 Q36.95 -63.5 34.9 -63.5" fill="#ffffff" fill-rule="evenodd" stroke="none"/>
  </g>
  <g transform="matrix(1.0, 0.0, 0.0, 1.0, 25.65, 67.25)" data-frame="7">
    <path d="M39.65 -53.5 L39.65 -65.0 51.15 -65.0 51.15 -53.5 47.95 -53.45 44.75 -53.5 39.65 -53.5 M65.15 -52.85 L54.2 -64.25 54.75 -65.05 65.7 -53.65 65.15 -52.85 M35.95 -65.05 L36.5 -64.25 26.25 -53.25 25.9 -52.85 25.35 -53.65 35.95 -65.05" fill="#000000" fill-rule="evenodd" stroke="none"/>
    <path d="M51.15 -53.5 L51.15 -65.0 39.65 -65.0 39.65 -53.5 39.65 -53.1 26.25 -53.25 36.5 -64.25 35.95 -65.05 54.75 -65.05 54.2 -64.25 65.15 -52.85 51.15 -53.0 51.15 -53.5" fill="#ffffff" fill-rule="evenodd" stroke="none"/>
  </g>
  <g transform="matrix(1.0, 0.0, 0.0, 1.0, 25.65, 67.25)" data-frame="8">
    <path d="M32.5 -59.55 Q32.5 -56.6 34.55 -54.55 36.65 -52.5 39.55 -52.5 42.5 -52.5 44.55 -54.55 46.65 -56.6 46.65 -59.55 46.65 -62.5 44.55 -64.55 42.5 -66.6 39.55 -66.6 36.65 -66.6 34.55 -64.55 32.5 -62.5 32.5 -59.55 M34.15 -65.0 Q36.4 -67.25 39.55 -67.25 42.75 -67.25 45.0 -65.0 47.25 -62.75 47.25 -59.55 47.25 -56.35 45.0 -54.1 42.75 -51.85 39.55 -51.85 36.4 -51.85 34.15 -54.1 31.9 -56.35 31.9 -59.55 31.9 -62.75 34.15 -65.0 M42.7 -63.4 L37.7 -63.4 37.45 -60.55 Q38.5 -61.3 39.7 -61.3 41.05 -61.3 42.0 -60.35 42.95 -59.4 42.95 -57.8 42.95 -56.05 42.05 -55.15 41.05 -54.15 39.45 -54.15 37.7 -54.15 36.75 -55.1 36.05 -55.8 35.95 -56.75 L37.7 -56.75 Q37.8 -56.15 38.15 -55.85 38.5 -55.5 39.45 -55.5 40.45 -55.5 41.0 -56.05 41.5 -56.55 41.5 -57.8 41.5 -58.9 40.95 -59.5 40.3 -60.1 39.4 -60.1 38.45 -60.1 37.55 -59.15 L36.0 -59.15 36.5 -64.8 42.7 -64.8 42.7 -63.4" fill="#000000" fill-rule="evenodd" stroke="none"/>
    <path d="M32.5 -59.55 Q32.5 -62.5 34.55 -64.55 36.65 -66.6 39.55 -66.6 42.5 -66.6 44.55 -64.55 46.65 -62.5 46.65 -59.55 46.65 -56.6 44.55 -54.55 42.5 -52.5 39.55 -52.5 36.65 -52.5 34.55 -54.55 32.5 -56.6 32.5 -59.55 M42.7 -63.4 L42.7 -64.8 36.5 -64.8 36.0 -59.15 37.55 -59.15 Q38.45 -60.1 39.4 -60.1 40.3 -60.1 40.95 -59.5 41.5 -58.9 41.5 -57.8 41.5 -56.55 41.0 -56.05 40.45 -55.5 39.45 -55.5 38.5 -55.5 38.15 -55.85 37.8 -56.15 37.7 -56.75 L35.95 -56.75 Q36.05 -55.8 36.75 -55.1 37.7 -54.15 39.45 -54.15 41.05 -54.15 42.05 -55.15 42.95 -56.05 42.95 -57.8 42.95 -59.4 42.0 -60.35 41.05 -61.3 39.7 -61.3 38.5 -61.3 37.45 -60.55 L37.7 -63.4 42.7 -63.4" fill="#ffffff" fill-rule="evenodd" stroke="none"/>
  </g>
</svg>
