<svg xmlns:xlink="http://www.w3.org/1999/xlink" height="62px" width="105px" xmlns="http://www.w3.org/2000/svg" data-current-frame="0" data-user-id="$id">
  <g transform="matrix(1.0, 0.0, 0.0, 1.0, 51.15, 61.15)">
    <path d="M-20.1 -47.05 L-20.1 -47.65 39.0 -47.65 39.0 -47.05 -20.1 -47.05 M39.2 -46.55 L40.05 -46.55 40.05 -32.65 39.1 -32.65 38.95 -32.65 38.95 -46.55 39.2 -46.55 M39.1 -30.8 L40.05 -30.8 40.05 -16.9 38.95 -16.9 38.95 -30.8 39.1 -30.8 M38.25 -12.5 L38.6 -12.05 38.65 -12.0 26.7 -2.05 26.45 -2.35 26.1 -2.8 38.05 -12.75 38.25 -12.5 M24.3 -0.8 L24.3 -0.55 23.55 -0.55 23.2 -0.55 23.2 -14.45 24.3 -14.45 24.3 -0.8 M22.25 0.15 L22.25 0.75 8.3 0.75 8.3 0.15 22.25 0.15 M8.25 0.15 L8.25 0.75 -5.7 0.75 -5.7 0.15 8.25 0.15 M-5.75 0.15 L-5.75 0.75 -19.7 0.75 -19.7 0.15 -5.75 0.15 M-19.75 0.15 L-19.75 0.75 -33.7 0.75 -33.7 0.15 -19.75 0.15 M-35.3 -0.55 L-35.95 -0.55 -35.95 -14.45 -35.9 -14.45 -34.85 -14.45 -34.85 -0.55 -35.3 -0.55 M-35.75 -16.55 L-35.95 -16.55 -35.95 -30.45 -35.45 -30.45 -34.85 -30.45 -34.85 -16.55 -35.75 -16.55 M-35.15 -34.6 L-35.3 -34.8 -23.35 -44.75 -23.2 -44.55 -22.75 -44.0 -34.7 -34.05 -35.15 -34.6 M38.45 -44.0 L26.5 -34.05 25.9 -34.8 37.85 -44.75 38.45 -44.0 M24.45 -30.45 L24.45 -16.55 23.35 -16.55 23.35 -30.45 24.45 -30.45 M22.2 -29.9 L-33.75 -29.9 -33.75 -30.5 22.2 -30.5 22.2 -29.9" fill="#000000" fill-rule="evenodd" stroke="none"/>
    <path d="M39.0 -47.05 L39.05 -47.05 39.2 -46.55 38.95 -46.55 38.95 -32.65 39.1 -32.65 39.1 -30.8 38.95 -30.8 38.95 -16.9 38.95 -13.05 38.25 -12.5 38.05 -12.75 26.1 -2.8 26.45 -2.35 26.25 -2.2 24.3 -0.8 24.3 -14.45 23.2 -14.45 23.2 -0.55 23.55 -0.55 22.35 0.25 22.25 0.15 8.3 0.15 8.25 0.15 -5.7 0.15 -5.75 0.15 -19.7 0.15 -19.75 0.15 -33.7 0.15 -33.7 0.25 -35.3 -0.55 -34.85 -0.55 -34.85 -14.45 -35.9 -14.45 -35.75 -16.5 -35.75 -16.55 -34.85 -16.55 -34.85 -30.45 -35.45 -30.45 -35.45 -34.4 -35.15 -34.6 -34.7 -34.05 -22.75 -44.0 -23.2 -44.55 -23.15 -44.55 -20.25 -47.2 -20.1 -47.05 39.0 -47.05 M22.2 -29.9 L22.2 -30.5 -33.75 -30.5 -33.75 -29.9 22.2 -29.9 M24.45 -30.45 L23.35 -30.45 23.35 -16.55 24.45 -16.55 24.45 -30.45 M38.45 -44.0 L37.85 -44.75 25.9 -34.8 26.5 -34.05 38.45 -44.0" fill="#ffffff" fill-rule="evenodd" stroke="none"/>
  </g>
  <g transform="matrix(1.0, 0.0, 0.0, 1.0, 51.15, 61.15)" data-frame="0">
    <path d="M7.15 -50.15 L6.15 -49.7 2.15 -58.45 -1.85 -49.7 -2.9 -50.2 2.15 -61.15 7.2 -50.2 7.15 -50.15 M-10.15 -50.2 L-11.2 -49.7 -15.2 -58.45 -19.2 -49.7 -20.15 -50.15 -20.25 -50.2 -15.2 -61.15 -10.15 -50.2 M-20.05 -45.1 L-19.65 -44.7 -20.5 -43.75 Q-22.2 -41.75 -22.2 -39.3 -22.2 -37.55 -21.35 -36.0 L-19.65 -33.95 -20.15 -33.45 -20.25 -33.35 Q-21.35 -34.4 -22.0 -35.55 -23.0 -37.3 -23.0 -39.3 -23.0 -42.2 -21.0 -44.5 L-20.25 -45.3 -20.05 -45.1 M-16.65 -27.95 L-16.65 -28.05 -15.6 -28.05 -15.6 -22.9 Q-15.6 -21.45 -14.65 -20.55 -13.85 -19.7 -12.65 -19.7 -11.45 -19.7 -10.6 -20.55 -9.7 -21.45 -9.7 -22.9 L-9.7 -28.05 -8.65 -28.05 -8.65 -27.55 -8.65 -22.9 Q-8.65 -20.95 -9.8 -19.8 -11.0 -18.6 -12.65 -18.6 -14.3 -18.6 -15.5 -19.8 -16.65 -20.95 -16.65 -22.9 L-16.65 -27.95 M-2.65 -27.6 L-2.65 -28.05 -1.6 -28.05 -1.6 -22.9 Q-1.6 -21.45 -0.65 -20.55 0.15 -19.7 1.35 -19.7 2.55 -19.7 3.4 -20.55 4.3 -21.45 4.3 -22.9 L4.3 -28.05 4.85 -28.05 5.35 -28.05 5.35 -22.9 Q5.35 -20.95 4.2 -19.8 3.0 -18.6 1.35 -18.6 -0.3 -18.6 -1.5 -19.8 -2.65 -20.95 -2.65 -22.9 L-2.65 -27.6 M9.15 -33.35 L8.55 -33.95 Q11.05 -36.3 11.05 -39.3 11.05 -42.3 8.55 -44.7 L8.8 -44.9 9.15 -45.3 Q11.2 -43.3 11.7 -40.85 L11.85 -39.3 11.75 -38.05 Q11.35 -35.45 9.15 -33.35 M26.5 -34.05 L25.9 -34.8 37.85 -44.75 38.4 -44.05 38.45 -44.0 26.5 -34.05 M40.1 -44.2 L40.5 -44.75 52.45 -34.8 51.85 -34.05 39.9 -44.0 40.1 -44.2 M52.2 -28.75 L52.8 -28.0 40.85 -18.05 40.6 -18.35 40.25 -18.75 40.25 -18.8 52.2 -28.75 M38.8 -18.8 L38.2 -18.05 26.25 -28.0 26.85 -28.75 38.8 -18.8 M4.05 -45.7 L3.45 -45.5 Q3.2 -45.3 3.2 -44.9 3.2 -44.5 3.45 -44.3 3.65 -44.05 4.05 -44.05 L4.65 -44.3 4.85 -44.9 4.65 -45.5 4.05 -45.7 M4.9 -45.75 Q5.3 -45.4 5.3 -44.9 5.3 -44.4 4.9 -44.0 4.55 -43.65 4.05 -43.65 3.55 -43.65 3.15 -44.0 2.8 -44.4 2.8 -44.9 2.8 -45.4 3.15 -45.75 3.55 -46.15 4.05 -46.15 4.55 -46.15 4.9 -45.75 M1.4 -39.1 L-8.1 -39.1 -8.1 -40.3 1.4 -40.3 1.4 -39.1 M-50.35 -18.8 L-38.4 -28.75 -37.8 -28.0 -49.75 -18.05 -50.35 -18.8 M-11.5 -44.9 L-11.25 -44.3 Q-11.05 -44.05 -10.65 -44.05 -10.3 -44.05 -10.05 -44.3 L-9.85 -44.9 -10.05 -45.5 -10.65 -45.7 -11.25 -45.5 -11.5 -44.9 M-10.65 -46.15 Q-10.15 -46.15 -9.8 -45.75 L-9.4 -44.9 Q-9.4 -44.4 -9.8 -44.0 -10.15 -43.65 -10.65 -43.65 -11.15 -43.65 -11.55 -44.0 -11.9 -44.4 -11.9 -44.9 -11.9 -45.4 -11.55 -45.75 L-10.65 -46.15 M-15.2 -42.8 L-15.3 -40.2 -13.05 -41.6 -12.5 -40.65 -14.85 -39.45 -12.5 -38.2 -13.05 -37.25 -15.3 -38.65 -15.2 -35.85 -16.3 -35.85 -16.2 -38.65 -18.45 -37.25 -19.0 -38.2 -16.6 -39.45 -19.0 -40.65 -18.45 -41.6 -16.2 -40.2 -16.3 -42.8 -15.2 -42.8" fill="#000000" fill-rule="evenodd" stroke="none"/>
    <path d="M-2.9 -50.2 L-1.85 -49.7 2.15 -58.45 6.15 -49.7 7.15 -50.15 8.55 -45.15 8.8 -44.9 8.55 -44.7 Q11.05 -42.3 11.05 -39.3 11.05 -36.3 8.55 -33.95 L9.15 -33.35 5.3 -29.7 5.15 -29.2 4.85 -28.3 4.85 -28.05 4.3 -28.05 4.3 -22.9 Q4.3 -21.45 3.4 -20.55 2.55 -19.7 1.35 -19.7 0.15 -19.7 -0.65 -20.55 -1.6 -21.45 -1.6 -22.9 L-1.6 -28.05 -2.65 -28.05 -2.65 -27.6 -3.6 -27.85 -8.65 -27.55 -8.65 -28.05 -9.7 -28.05 -9.7 -22.9 Q-9.7 -21.45 -10.6 -20.55 -11.45 -19.7 -12.65 -19.7 -13.85 -19.7 -14.65 -20.55 -15.6 -21.45 -15.6 -22.9 L-15.6 -28.05 -16.65 -28.05 -16.65 -27.95 -17.0 -27.95 Q-16.75 -28.25 -17.1 -28.75 L-20.1 -33.4 -20.15 -33.45 -19.65 -33.95 -21.35 -36.0 Q-22.2 -37.55 -22.2 -39.3 -22.2 -41.75 -20.5 -43.75 L-19.65 -44.7 -20.05 -45.1 -20.05 -45.3 -20.15 -50.15 -19.2 -49.7 -15.2 -58.45 -11.2 -49.7 -10.15 -50.2 -5.0 -50.55 -2.85 -50.3 -2.9 -50.2 M26.85 -28.75 L26.4 -28.3 Q25.35 -29.1 24.45 -30.25 L24.15 -30.85 Q23.95 -32.65 26.0 -34.45 L26.5 -34.05 38.45 -44.0 38.45 -44.05 Q39.25 -44.75 40.1 -44.2 L39.9 -44.0 51.85 -34.05 52.1 -34.25 Q54.0 -32.45 54.4 -30.4 L54.25 -29.95 Q53.5 -28.9 52.55 -28.35 L52.2 -28.75 40.25 -18.8 40.25 -18.75 40.6 -18.35 38.65 -18.3 38.8 -18.8 26.85 -28.75 M1.4 -39.1 L1.4 -40.3 -8.1 -40.3 -8.1 -39.1 1.4 -39.1 M4.9 -45.75 Q4.55 -46.15 4.05 -46.15 3.55 -46.15 3.15 -45.75 2.8 -45.4 2.8 -44.9 2.8 -44.4 3.15 -44.0 3.55 -43.65 4.05 -43.65 4.55 -43.65 4.9 -44.0 5.3 -44.4 5.3 -44.9 5.3 -45.4 4.9 -45.75 M4.05 -45.7 L4.65 -45.5 4.85 -44.9 4.65 -44.3 4.05 -44.05 Q3.65 -44.05 3.45 -44.3 3.2 -44.5 3.2 -44.9 3.2 -45.3 3.45 -45.5 L4.05 -45.7 M-15.2 -42.8 L-16.3 -42.8 -16.2 -40.2 -18.45 -41.6 -19.0 -40.65 -16.6 -39.45 -19.0 -38.2 -18.45 -37.25 -16.2 -38.65 -16.3 -35.85 -15.2 -35.85 -15.3 -38.65 -13.05 -37.25 -12.5 -38.2 -14.85 -39.45 -12.5 -40.65 -13.05 -41.6 -15.3 -40.2 -15.2 -42.8 M-10.65 -46.15 L-11.55 -45.75 Q-11.9 -45.4 -11.9 -44.9 -11.9 -44.4 -11.55 -44.0 -11.15 -43.65 -10.65 -43.65 -10.15 -43.65 -9.8 -44.0 -9.4 -44.4 -9.4 -44.9 L-9.8 -45.75 Q-10.15 -46.15 -10.65 -46.15 M-11.5 -44.9 L-11.25 -45.5 -10.65 -45.7 -10.05 -45.5 -9.85 -44.9 -10.05 -44.3 Q-10.3 -44.05 -10.65 -44.05 -11.05 -44.05 -11.25 -44.3 L-11.5 -44.9" fill="#ffffff" fill-rule="evenodd" stroke="none"/>
  </g>
  <g transform="matrix(1.0, 0.0, 0.0, 1.0, 51.15, 60.95)" data-frame="1">
    <path d="M52.85 -56.8 L40.9 -46.85 40.3 -47.6 52.25 -57.55 52.85 -56.8 M1.7 -52.0 L1.7 -38.1 0.6 -38.1 0.6 -52.0 1.7 -52.0 M-7.3 -38.1 L-8.4 -38.1 -8.4 -52.0 -7.3 -52.0 -7.3 -38.1 M-48.8 -50.25 L-49.4 -51.0 -37.45 -60.95 -36.9 -60.25 -36.85 -60.2 -48.8 -50.25 M-35.2 -60.4 L-34.8 -60.95 -22.85 -51.0 -23.45 -50.25 -35.4 -60.2 -35.2 -60.4 M-23.1 -44.95 L-22.5 -44.2 -34.45 -34.25 -34.7 -34.55 -35.05 -34.95 -35.05 -35.0 -23.1 -44.95 M-36.5 -35.0 L-37.1 -34.25 -49.05 -44.2 -48.45 -44.95 -36.5 -35.0 M-16.3 -52.0 L-16.3 -38.1 -17.4 -38.1 -17.4 -52.0 -16.3 -52.0" fill="#000000" fill-rule="evenodd" stroke="none"/>
    <path d="M-36.85 -60.2 L-36.85 -60.25 -35.2 -60.4 -35.4 -60.2 -23.45 -50.25 -23.2 -50.45 Q-21.3 -48.65 -20.9 -46.6 L-21.05 -46.15 Q-21.8 -45.1 -22.75 -44.55 L-23.1 -44.95 -35.05 -35.0 -35.05 -34.95 -34.7 -34.55 -36.65 -34.5 -36.5 -35.0 -48.45 -44.95 -48.9 -44.5 -50.85 -46.45 -51.15 -47.05 Q-51.35 -48.85 -49.3 -50.65 L-48.8 -50.25 -36.85 -60.2" fill="#ffffff" fill-rule="evenodd" stroke="none"/>
  </g>
  <g transform="matrix(1.0, 0.0, 0.0, 1.0, 51.15, 60.95)" data-frame="2">
    <path d="M37.45 -50.25 L37.7 -50.45 Q39.6 -48.65 40.0 -46.6 L39.85 -46.15 Q39.1 -45.1 38.15 -44.55 L37.8 -44.95 25.85 -35.0 25.85 -34.95 26.2 -34.55 24.25 -34.5 24.4 -35.0 12.45 -44.95 12.0 -44.5 Q10.95 -45.3 10.05 -46.45 L9.75 -47.05 Q9.55 -48.85 11.6 -50.65 L12.1 -50.25 24.05 -60.2 24.05 -60.25 Q24.85 -60.95 25.7 -60.4 L25.5 -60.2 37.45 -50.25" fill="#ffffff" fill-rule="evenodd" stroke="none"/>
    <path d="M25.7 -60.4 L26.1 -60.95 38.05 -51.0 37.45 -50.25 25.5 -60.2 25.7 -60.4 M37.8 -44.95 L38.4 -44.2 26.45 -34.25 26.2 -34.55 25.85 -34.95 25.85 -35.0 37.8 -44.95 M24.4 -35.0 L23.8 -34.25 11.85 -44.2 12.45 -44.95 24.4 -35.0 M12.1 -50.25 L11.5 -51.0 23.45 -60.95 24.0 -60.25 24.05 -60.2 12.1 -50.25 M-6.3 -59.25 L-18.25 -49.3 -18.85 -50.05 -6.9 -60.0 -6.3 -59.25" fill="#000000" fill-rule="evenodd" stroke="none"/>
  </g>
  <g transform="matrix(1.0, 0.0, 0.0, 1.0, 51.15, 60.95)" data-frame="3">
    <path d="M-4.95 -34.5 L7.0 -44.45 7.6 -43.7 -4.35 -33.75 -4.95 -34.5" fill="#000000" fill-rule="evenodd" stroke="none"/>
  </g>
  <g transform="matrix(1.0, 0.0, 0.0, 1.0, 51.15, 60.95)" data-frame="4">
    <path d="M37.8 -44.95 L38.4 -44.2 26.45 -34.25 26.2 -34.55 25.85 -34.95 25.85 -35.0 37.8 -44.95 M24.4 -35.0 L23.8 -34.25 11.85 -44.2 12.45 -44.95 24.4 -35.0 M12.1 -50.25 L11.5 -51.0 23.45 -60.95 24.0 -60.25 24.05 -60.2 12.1 -50.25 M25.7 -60.4 L26.1 -60.95 38.05 -51.0 37.45 -50.25 25.5 -60.2 25.7 -60.4 M-6.3 -59.25 L-18.25 -49.3 -18.85 -50.05 -6.9 -60.0 -6.3 -59.25" fill="#000000" fill-rule="evenodd" stroke="none"/>
    <path d="M37.45 -50.25 L37.7 -50.45 Q39.6 -48.65 40.0 -46.6 L39.85 -46.15 Q39.1 -45.1 38.15 -44.55 L37.8 -44.95 25.85 -35.0 25.85 -34.95 26.2 -34.55 24.25 -34.5 24.4 -35.0 12.45 -44.95 12.0 -44.5 Q10.95 -45.3 10.05 -46.45 L9.75 -47.05 Q9.55 -48.85 11.6 -50.65 L12.1 -50.25 24.05 -60.2 24.05 -60.25 Q24.85 -60.95 25.7 -60.4 L25.5 -60.2 37.45 -50.25" fill="#ffffff" fill-rule="evenodd" stroke="none"/>
  </g>
  <g transform="matrix(1.0, 0.0, 0.0, 1.0, 51.15, 60.95)" data-frame="5">
    <path d="M52.85 -56.8 L40.9 -46.85 40.3 -47.6 52.25 -57.55 52.85 -56.8 M-2.9 -33.85 L2.15 -44.8 7.2 -33.85 7.15 -33.8 6.15 -33.35 2.15 -42.1 -1.85 -33.35 -2.9 -33.85 M-48.8 -50.25 L-49.4 -51.0 -37.45 -60.95 -36.9 -60.25 -36.85 -60.2 -48.8 -50.25 M-35.2 -60.4 L-34.8 -60.95 -22.85 -51.0 -23.45 -50.25 -35.4 -60.2 -35.2 -60.4 M-23.1 -44.95 L-22.5 -44.2 -34.45 -34.25 -34.7 -34.55 -35.05 -34.95 -35.05 -35.0 -23.1 -44.95 M-36.5 -35.0 L-37.1 -34.25 -49.05 -44.2 -48.45 -44.95 -36.5 -35.0 M-20.25 -33.85 L-15.2 -44.8 -10.15 -33.85 -11.2 -33.35 -15.2 -42.1 -19.2 -33.35 -20.25 -33.85" fill="#000000" fill-rule="evenodd" stroke="none"/>
    <path d="M-36.85 -60.2 L-36.85 -60.25 -35.2 -60.4 -35.4 -60.2 -23.45 -50.25 -23.2 -50.45 Q-21.3 -48.65 -20.9 -46.6 L-21.05 -46.15 Q-21.8 -45.1 -22.75 -44.55 L-23.1 -44.95 -35.05 -35.0 -35.05 -34.95 -34.7 -34.55 -36.65 -34.5 -36.5 -35.0 -48.45 -44.95 -48.9 -44.5 -50.85 -46.45 -51.15 -47.05 Q-51.35 -48.85 -49.3 -50.65 L-48.8 -50.25 -36.85 -60.2" fill="#ffffff" fill-rule="evenodd" stroke="none"/>
  </g>
</svg>
