<svg xmlns:xlink="http://www.w3.org/1999/xlink" height="79px" width="74px" xmlns="http://www.w3.org/2000/svg" data-current-frame="" data-user-id="$id">
  <g transform="matrix(1.0, 0.0, 0.0, 1.0, 41.65, 78.6)">
    <path d="M14.95 -41.55 L16.85 -42.2 17.2 -42.35 20.05 -42.85 Q21.6 -42.85 22.6 -41.95 23.95 -40.8 23.8 -38.35 23.7 -35.9 21.95 -34.6 20.7 -33.7 18.75 -33.45 L17.3 -33.4 17.0 -34.75 18.65 -34.85 Q20.75 -35.1 21.65 -36.15 22.6 -37.1 22.55 -38.85 22.55 -40.05 21.9 -40.85 21.3 -41.55 20.25 -41.6 19.05 -41.65 17.3 -41.0 L17.25 -41.0 13.95 -39.6 13.45 -41.05 14.95 -41.55 M12.1 -24.7 L14.0 -23.45 Q17.3 -21.1 19.0 -18.7 L17.55 -17.45 16.35 -18.95 Q14.2 -21.35 10.85 -23.6 L12.1 -24.7 M14.95 -9.3 L14.95 -2.1 Q14.95 -0.75 14.1 0.1 13.35 0.85 11.8 0.85 10.2 0.85 9.45 0.1 8.45 -0.9 8.45 -3.15 L8.75 -3.15 9.8 -3.15 Q9.8 -1.45 10.35 -0.85 10.85 -0.4 11.7 -0.4 12.65 -0.4 13.05 -0.8 L13.2 -0.95 Q13.6 -1.45 13.6 -2.15 L13.6 -9.3 14.95 -9.3 M4.55 -8.45 L2.15 -10.6 1.65 -11.05 3.75 -11.05 5.9 -8.45 4.55 -8.45 M-5.8 -9.7 Q-6.0 -6.0 -7.85 -3.1 -9.55 -0.15 -12.4 1.55 L-12.85 0.95 -13.35 0.35 Q-7.55 -2.9 -7.2 -10.1 L-5.8 -9.7 M-17.0 1.45 L-17.6 2.05 -18.25 1.45 Q-15.55 -1.1 -15.55 -4.3 -15.55 -7.55 -18.25 -10.05 L-17.65 -10.6 -17.6 -10.7 -17.1 -10.2 Q-14.65 -7.6 -14.65 -4.3 -14.65 -1.1 -17.0 1.45 M-21.85 -15.5 L-22.45 -14.85 Q-23.95 -16.5 -24.65 -17.95 -25.4 -19.55 -25.4 -21.35 -25.4 -23.4 -24.65 -25.0 -24.0 -26.35 -22.45 -27.75 L-21.85 -27.15 -23.9 -24.6 Q-24.55 -23.25 -24.55 -21.35 -24.55 -19.8 -23.9 -18.4 -23.3 -17.1 -21.85 -15.5 M-20.05 -32.65 L-20.65 -33.0 -14.45 -44.05 -13.85 -43.7 -20.05 -32.65 M0.15 -40.85 Q-0.45 -41.55 -1.5 -41.6 L-4.5 -41.0 -7.8 -39.6 -8.3 -41.05 -4.55 -42.35 -1.7 -42.85 Q-0.15 -42.85 0.85 -41.95 2.2 -40.8 2.05 -38.35 1.95 -35.9 0.2 -34.6 -1.45 -33.4 -4.45 -33.4 L-4.75 -34.75 Q-1.35 -34.75 -0.1 -36.15 0.85 -37.1 0.8 -38.85 0.8 -40.05 0.15 -40.85 M1.9 -26.95 Q0.15 -26.95 -1.4 -26.25 L-4.1 -24.15 -4.65 -24.55 Q-3.55 -25.9 -1.9 -26.75 -0.05 -27.75 1.9 -27.75 4.0 -27.75 5.7 -26.75 L8.45 -24.55 7.8 -24.15 4.95 -26.25 Q3.55 -26.95 1.9 -26.95 M-23.15 -34.55 L-21.8 -34.55 -21.8 -33.3 -23.15 -33.3 -23.15 -34.55 M-20.6 -14.7 L-5.65 -14.7 -5.65 -14.05 -20.6 -14.05 -20.6 -14.7 M-31.55 -22.15 L-30.85 -23.15 -29.7 -22.15 -31.05 -20.6 Q-31.95 -19.75 -33.25 -19.75 -34.25 -19.75 -36.0 -20.8 -37.35 -21.6 -38.25 -21.6 -39.25 -21.6 -39.75 -20.95 L-40.4 -19.95 -41.65 -20.75 -40.35 -22.35 Q-39.45 -23.2 -38.35 -23.2 -37.2 -23.2 -35.7 -22.3 -34.15 -21.35 -33.1 -21.35 -32.3 -21.35 -31.55 -22.15" fill="#000000" fill-rule="evenodd" stroke="none"/>
    <path d="M17.3 -33.4 Q9.2 -30.95 10.4 -28.4 L12.1 -24.7 10.85 -23.6 Q14.2 -21.35 16.35 -18.95 17.9 -15.7 16.3 -11.9 L14.95 -9.3 13.6 -9.3 13.6 -2.15 Q13.6 -1.45 13.2 -0.95 L13.05 -0.8 Q12.65 -0.4 11.7 -0.4 10.85 -0.4 10.35 -0.85 9.8 -1.45 9.8 -3.15 L8.75 -3.15 4.55 -8.45 5.9 -8.45 3.75 -11.05 1.65 -11.05 2.15 -10.6 Q-1.4 -9.45 -5.8 -9.7 L-7.2 -10.1 Q-7.55 -2.9 -13.35 0.35 L-12.85 0.95 -17.0 1.45 Q-14.65 -1.1 -14.65 -4.3 -14.65 -7.6 -17.1 -10.2 L-17.6 -10.7 -17.65 -10.6 Q-20.2 -12.55 -21.85 -15.5 -23.3 -17.1 -23.9 -18.4 -24.55 -19.8 -24.55 -21.35 -24.55 -23.25 -23.9 -24.6 L-21.85 -27.15 -22.45 -27.75 Q-21.5 -30.4 -20.05 -32.65 L-13.85 -43.7 Q-12.1 -47.25 -8.95 -49.1 -5.75 -51.0 -1.8 -51.3 2.35 -51.65 5.25 -49.95 8.1 -48.3 9.25 -45.25 10.35 -42.2 14.95 -41.55 L13.45 -41.05 13.95 -39.6 17.25 -41.0 17.3 -41.0 Q19.05 -41.65 20.25 -41.6 21.3 -41.55 21.9 -40.85 22.55 -40.05 22.55 -38.85 22.6 -37.1 21.65 -36.15 20.75 -35.1 18.65 -34.85 L17.0 -34.75 17.3 -33.4 M1.9 -26.95 Q3.55 -26.95 4.95 -26.25 L7.8 -24.15 8.45 -24.55 5.7 -26.75 Q4.0 -27.75 1.9 -27.75 -0.05 -27.75 -1.9 -26.75 -3.55 -25.9 -4.65 -24.55 L-4.1 -24.15 -1.4 -26.25 Q0.15 -26.95 1.9 -26.95 M0.15 -40.85 Q0.8 -40.05 0.8 -38.85 0.85 -37.1 -0.1 -36.15 -1.35 -34.75 -4.75 -34.75 L-4.45 -33.4 Q-1.45 -33.4 0.2 -34.6 1.95 -35.9 2.05 -38.35 2.2 -40.8 0.85 -41.95 -0.15 -42.85 -1.7 -42.85 L-4.55 -42.35 -8.3 -41.05 -7.8 -39.6 -4.5 -41.0 -1.5 -41.6 Q-0.45 -41.55 0.15 -40.85 M-20.6 -14.7 L-20.6 -14.05 -5.65 -14.05 -5.65 -14.7 -20.6 -14.7" fill="#ffffff" fill-rule="evenodd" stroke="none"/>
  </g>
  <g transform="matrix(1.0, 0.0, 0.0, 1.0, 41.65, 78.6)" data-frame="0">
    <path d="M25.55 -66.8 L24.45 -66.3 20.15 -75.65 15.9 -66.3 14.75 -66.8 15.05 -67.4 20.15 -78.6 25.55 -66.8 M6.0 -66.8 L4.9 -66.3 0.6 -75.65 -3.65 -66.3 -4.8 -66.8 0.6 -78.6 6.0 -66.8 M-8.25 -61.25 Q-9.6 -60.0 -10.3 -58.5 -10.95 -57.1 -10.95 -55.5 L-10.7 -53.6 Q-10.15 -51.5 -8.25 -49.75 L-8.9 -49.15 Q-10.8 -50.95 -11.45 -53.05 -11.85 -54.25 -11.85 -55.5 -11.85 -58.1 -10.35 -60.2 L-8.9 -61.9 -8.25 -61.25 M28.5 -49.55 Q31.2 -52.1 31.2 -55.3 31.2 -58.55 28.5 -61.05 L29.15 -61.7 Q32.1 -58.95 32.1 -55.3 32.1 -51.7 29.15 -48.95 L28.5 -49.55 M7.25 -61.95 L7.0 -61.3 Q7.0 -60.9 7.25 -60.65 7.5 -60.4 7.9 -60.4 L8.55 -60.65 8.8 -61.3 8.55 -61.95 7.9 -62.15 7.25 -61.95 M8.85 -62.25 Q9.25 -61.8 9.25 -61.3 9.25 -60.75 8.85 -60.35 8.45 -59.95 7.9 -59.95 7.35 -59.95 6.95 -60.35 6.55 -60.75 6.55 -61.3 L6.95 -62.25 Q7.35 -62.65 7.9 -62.65 8.45 -62.65 8.85 -62.25 M3.1 -56.95 L3.1 -55.65 1.75 -55.65 1.75 -56.95 3.1 -56.95 M1.75 -51.6 L3.1 -51.6 3.1 -50.35 2.4 -48.75 1.75 -48.75 2.35 -50.35 1.75 -50.35 1.75 -51.6 M16.4 -57.15 L16.4 -55.15 Q16.4 -52.8 15.5 -51.35 L18.9 -51.35 18.9 -57.15 16.4 -57.15 M20.1 -58.25 L20.1 -51.35 21.15 -51.35 21.15 -48.65 19.95 -48.65 19.95 -50.2 14.45 -50.2 14.45 -48.65 13.3 -48.65 13.3 -51.35 14.2 -51.35 Q15.2 -52.75 15.2 -55.15 L15.2 -58.25 20.1 -58.25 M25.75 -61.95 L25.7 -61.95 25.45 -61.3 Q25.45 -60.9 25.7 -60.65 25.95 -60.4 26.35 -60.4 L26.7 -60.45 27.0 -60.65 27.25 -61.3 27.0 -61.95 26.35 -62.15 Q26.0 -62.15 25.75 -61.95 M25.55 -62.35 L26.35 -62.65 Q26.9 -62.65 27.3 -62.25 27.7 -61.8 27.7 -61.3 27.7 -60.75 27.3 -60.35 L26.95 -60.05 26.35 -59.95 Q25.8 -59.95 25.4 -60.35 25.0 -60.75 25.0 -61.3 L25.4 -62.25 25.55 -62.35" fill="#000000" fill-rule="evenodd" stroke="none"/>
    <path d="M15.05 -67.4 L14.75 -66.8 15.9 -66.3 20.15 -75.65 24.45 -66.3 25.55 -66.8 Q27.9 -64.0 29.15 -61.7 L28.5 -61.05 Q31.2 -58.55 31.2 -55.3 31.2 -52.1 28.5 -49.55 24.9 -46.75 19.7 -46.5 14.85 -46.3 9.85 -46.55 L0.25 -47.0 Q-4.55 -47.2 -8.9 -49.15 L-8.25 -49.75 Q-10.15 -51.5 -10.7 -53.6 L-10.95 -55.5 Q-10.95 -57.1 -10.3 -58.5 -9.6 -60.0 -8.25 -61.25 -5.45 -64.75 -3.65 -66.3 L0.6 -75.65 4.9 -66.3 6.0 -66.8 Q10.1 -68.7 15.05 -67.4 M25.55 -62.35 L25.4 -62.25 25.0 -61.3 Q25.0 -60.75 25.4 -60.35 25.8 -59.95 26.35 -59.95 L26.95 -60.05 27.3 -60.35 Q27.7 -60.75 27.7 -61.3 27.7 -61.8 27.3 -62.25 26.9 -62.65 26.35 -62.65 L25.55 -62.35 M25.75 -61.95 Q26.0 -62.15 26.35 -62.15 L27.0 -61.95 27.25 -61.3 27.0 -60.65 26.7 -60.45 26.35 -60.4 Q25.95 -60.4 25.7 -60.65 25.45 -60.9 25.45 -61.3 L25.7 -61.95 25.75 -61.95 M20.1 -58.25 L15.2 -58.25 15.2 -55.15 Q15.2 -52.75 14.2 -51.35 L13.3 -51.35 13.3 -48.65 14.45 -48.65 14.45 -50.2 19.95 -50.2 19.95 -48.65 21.15 -48.65 21.15 -51.35 20.1 -51.35 20.1 -58.25 M16.4 -57.15 L18.9 -57.15 18.9 -51.35 15.5 -51.35 Q16.4 -52.8 16.4 -55.15 L16.4 -57.15 M1.75 -51.6 L1.75 -50.35 2.35 -50.35 1.75 -48.75 2.4 -48.75 3.1 -50.35 3.1 -51.6 1.75 -51.6 M3.1 -56.95 L1.75 -56.95 1.75 -55.65 3.1 -55.65 3.1 -56.95 M8.85 -62.25 Q8.45 -62.65 7.9 -62.65 7.35 -62.65 6.95 -62.25 L6.55 -61.3 Q6.55 -60.75 6.95 -60.35 7.35 -59.95 7.9 -59.95 8.45 -59.95 8.85 -60.35 9.25 -60.75 9.25 -61.3 9.25 -61.8 8.85 -62.25 M7.25 -61.95 L7.9 -62.15 8.55 -61.95 8.8 -61.3 8.55 -60.65 7.9 -60.4 Q7.5 -60.4 7.25 -60.65 7.0 -60.9 7.0 -61.3 L7.25 -61.95" fill="#ffffff" fill-rule="evenodd" stroke="none"/>
  </g>
  <g transform="matrix(1.0, 0.0, 0.0, 1.0, 41.65, 78.6)" data-frame="1">
    <path d="M5.45 -66.8 L4.35 -66.3 0.05 -75.65 -4.2 -66.3 -5.35 -66.8 0.05 -78.6 5.45 -66.8 M-14.1 -66.8 L-15.2 -66.3 -19.5 -75.65 -23.75 -66.3 -24.9 -66.8 -19.5 -78.6 -14.1 -66.8 M-25.05 -61.7 L-24.4 -61.05 Q-27.1 -58.55 -27.1 -55.3 L-27.0 -54.15 -27.0 -54.1 -26.65 -52.8 Q-26.0 -51.05 -24.4 -49.55 L-25.05 -48.95 Q-27.95 -51.7 -27.95 -55.3 -27.95 -58.95 -25.05 -61.7 M2.35 -56.95 L2.35 -55.65 1.0 -55.65 1.0 -56.95 2.35 -56.95 M1.0 -51.6 L2.35 -51.6 2.35 -50.35 1.65 -48.75 1.0 -48.75 1.6 -50.35 1.0 -50.35 1.0 -51.6 M-22.25 -62.15 L-22.9 -61.95 -23.15 -61.3 -22.9 -60.65 Q-22.65 -60.4 -22.25 -60.4 L-21.7 -60.55 -21.6 -60.65 Q-21.35 -60.9 -21.35 -61.3 -21.35 -61.7 -21.6 -61.95 L-21.75 -62.05 -22.25 -62.15 M-21.3 -62.25 Q-20.9 -61.8 -20.9 -61.3 -20.9 -60.75 -21.3 -60.35 L-21.8 -60.0 -22.25 -59.95 Q-22.8 -59.95 -23.2 -60.35 -23.6 -60.75 -23.6 -61.3 L-23.2 -62.25 Q-22.8 -62.65 -22.25 -62.65 L-21.65 -62.5 -21.3 -62.25 M-32.55 -61.65 L-32.55 -60.55 -37.95 -60.55 -34.55 -56.3 -38.1 -51.35 -32.25 -51.35 -32.25 -50.75 -32.25 -50.2 -39.55 -50.2 -39.55 -51.35 -36.0 -56.3 -39.4 -60.55 -39.4 -61.65 -32.55 -61.65 M-4.45 -61.95 L-4.7 -61.3 -4.45 -60.65 Q-4.2 -60.4 -3.8 -60.4 -3.4 -60.4 -3.15 -60.65 -2.9 -60.9 -2.9 -61.3 -2.9 -61.7 -3.15 -61.95 L-3.8 -62.15 -4.45 -61.95 M-3.8 -62.65 Q-3.25 -62.65 -2.85 -62.25 L-2.45 -61.3 Q-2.45 -60.75 -2.85 -60.35 -3.25 -59.95 -3.8 -59.95 -4.35 -59.95 -4.75 -60.35 -5.15 -60.75 -5.15 -61.3 L-4.75 -62.25 Q-4.35 -62.65 -3.8 -62.65 M-15.95 -51.35 L-10.25 -51.35 -10.25 -60.55 -14.35 -60.55 -14.35 -57.6 Q-14.35 -53.75 -15.95 -51.35 M-15.5 -61.65 L-9.05 -61.65 -9.05 -51.35 -7.75 -51.35 -7.75 -48.1 -8.9 -48.1 -8.9 -50.2 -17.1 -50.2 -17.1 -48.1 -18.25 -48.1 -18.25 -51.35 -17.3 -51.35 Q-15.5 -53.8 -15.5 -57.6 L-15.5 -61.65" fill="#000000" fill-rule="evenodd" stroke="none"/>
    <path d="M-5.35 -66.8 L-4.2 -66.3 0.05 -75.65 4.35 -66.3 5.45 -66.8 Q9.9 -65.6 11.35 -61.1 L11.7 -60.0 7.9 -60.0 7.9 -58.85 11.95 -58.85 12.2 -56.15 7.9 -56.15 7.9 -54.95 12.15 -54.95 11.65 -52.2 7.9 -52.2 7.9 -51.05 11.3 -51.05 Q9.85 -47.6 5.35 -47.1 L-3.15 -46.15 -13.0 -45.45 Q-18.05 -45.3 -22.15 -47.7 -23.55 -48.55 -24.4 -49.55 -26.0 -51.05 -26.65 -52.8 L-27.0 -54.1 -27.0 -54.15 -27.1 -55.3 Q-27.1 -58.55 -24.4 -61.05 L-25.05 -61.7 Q-25.25 -64.4 -23.75 -66.3 L-19.5 -75.65 -15.2 -66.3 -14.1 -66.8 Q-9.5 -67.85 -5.35 -66.8 M1.0 -51.6 L1.0 -50.35 1.6 -50.35 1.0 -48.75 1.65 -48.75 2.35 -50.35 2.35 -51.6 1.0 -51.6 M2.35 -56.95 L1.0 -56.95 1.0 -55.65 2.35 -55.65 2.35 -56.95 M-32.25 -50.75 L-32.25 -51.35 -38.1 -51.35 -34.55 -56.3 -37.95 -60.55 -32.55 -60.55 -32.55 -61.65 Q-28.75 -59.55 -30.65 -54.3 -31.6 -51.65 -32.25 -50.75 M-21.3 -62.25 L-21.65 -62.5 -22.25 -62.65 Q-22.8 -62.65 -23.2 -62.25 L-23.6 -61.3 Q-23.6 -60.75 -23.2 -60.35 -22.8 -59.95 -22.25 -59.95 L-21.8 -60.0 -21.3 -60.35 Q-20.9 -60.75 -20.9 -61.3 -20.9 -61.8 -21.3 -62.25 M-22.25 -62.15 L-21.75 -62.05 -21.6 -61.95 Q-21.35 -61.7 -21.35 -61.3 -21.35 -60.9 -21.6 -60.65 L-21.7 -60.55 -22.25 -60.4 Q-22.65 -60.4 -22.9 -60.65 L-23.15 -61.3 -22.9 -61.95 -22.25 -62.15 M-15.5 -61.65 L-15.5 -57.6 Q-15.5 -53.8 -17.3 -51.35 L-18.25 -51.35 -18.25 -48.1 -17.1 -48.1 -17.1 -50.2 -8.9 -50.2 -8.9 -48.1 -7.75 -48.1 -7.75 -51.35 -9.05 -51.35 -9.05 -61.65 -15.5 -61.65 M-15.95 -51.35 Q-14.35 -53.75 -14.35 -57.6 L-14.35 -60.55 -10.25 -60.55 -10.25 -51.35 -15.95 -51.35 M-3.8 -62.65 Q-4.35 -62.65 -4.75 -62.25 L-5.15 -61.3 Q-5.15 -60.75 -4.75 -60.35 -4.35 -59.95 -3.8 -59.95 -3.25 -59.95 -2.85 -60.35 -2.45 -60.75 -2.45 -61.3 L-2.85 -62.25 Q-3.25 -62.65 -3.8 -62.65 M-4.45 -61.95 L-3.8 -62.15 -3.15 -61.95 Q-2.9 -61.7 -2.9 -61.3 -2.9 -60.9 -3.15 -60.65 -3.4 -60.4 -3.8 -60.4 -4.2 -60.4 -4.45 -60.65 L-4.7 -61.3 -4.45 -61.95" fill="#ffffff" fill-rule="evenodd" stroke="none"/>
    <path d="M7.9 -60.0 L17.95 -60.0 17.95 -58.85 7.9 -58.85 7.9 -60.0 M7.9 -52.2 L17.95 -52.2 17.95 -51.05 7.9 -51.05 7.9 -52.2 M7.9 -56.15 L17.95 -56.15 17.95 -54.95 7.9 -54.95 7.9 -56.15" fill="#000000" fill-rule="evenodd" stroke="none"/>
  </g>
  <g transform="matrix(1.0, 0.0, 0.0, 1.0, 41.65, 78.6)" data-frame="2">
    <path d="M5.45 -66.8 L4.35 -66.3 0.05 -75.65 -4.2 -66.3 -5.35 -66.8 0.05 -78.6 5.45 -66.8 M-14.1 -66.8 L-15.2 -66.3 -19.5 -75.65 -23.75 -66.3 -24.9 -66.8 -19.5 -78.6 -14.1 -66.8 M-25.05 -61.7 L-24.4 -61.05 Q-26.05 -59.5 -26.7 -57.65 -27.1 -56.55 -27.1 -55.3 -27.1 -54.15 -26.75 -53.05 -26.15 -51.2 -24.4 -49.55 L-25.05 -48.95 Q-26.15 -50.0 -26.85 -51.2 -27.95 -53.1 -27.95 -55.3 -27.95 -57.65 -26.75 -59.6 L-25.05 -61.7 M9.35 -49.45 L8.7 -50.05 Q11.4 -52.6 11.4 -55.8 11.4 -59.05 8.7 -61.55 L9.35 -62.2 Q12.25 -59.45 12.25 -55.8 12.25 -52.2 9.35 -49.45 M2.35 -56.95 L2.35 -55.65 1.0 -55.65 1.0 -56.95 2.35 -56.95 M2.35 -51.6 L2.35 -50.35 1.65 -48.75 1.0 -48.75 1.6 -50.35 1.0 -50.35 1.0 -51.6 2.35 -51.6 M-22.25 -62.65 Q-21.7 -62.65 -21.3 -62.25 -20.9 -61.8 -20.9 -61.3 -20.9 -60.8 -21.2 -60.45 L-21.3 -60.35 Q-21.7 -59.95 -22.25 -59.95 -22.8 -59.95 -23.2 -60.35 -23.6 -60.75 -23.6 -61.3 L-23.2 -62.25 Q-22.8 -62.65 -22.25 -62.65 M-22.9 -61.95 L-23.15 -61.3 -22.9 -60.65 Q-22.65 -60.4 -22.25 -60.4 -21.85 -60.4 -21.6 -60.65 -21.35 -60.9 -21.35 -61.3 -21.35 -61.7 -21.6 -61.95 L-22.25 -62.15 -22.9 -61.95 M-3.8 -62.65 Q-3.25 -62.65 -2.85 -62.25 L-2.45 -61.3 Q-2.45 -60.75 -2.85 -60.35 -3.25 -59.95 -3.8 -59.95 -4.35 -59.95 -4.75 -60.35 -5.15 -60.75 -5.15 -61.3 L-4.75 -62.25 Q-4.35 -62.65 -3.8 -62.65 M-4.45 -61.95 L-4.7 -61.3 -4.45 -60.65 Q-4.2 -60.4 -3.8 -60.4 -3.4 -60.4 -3.15 -60.65 -2.9 -60.9 -2.9 -61.3 -2.9 -61.7 -3.15 -61.95 L-3.8 -62.15 -4.45 -61.95 M-14.35 -57.6 Q-14.35 -53.75 -15.95 -51.35 L-10.25 -51.35 -10.25 -60.55 -14.35 -60.55 -14.35 -57.6 M-15.5 -61.65 L-9.05 -61.65 -9.05 -51.35 -7.75 -51.35 -7.75 -48.1 -8.9 -48.1 -8.9 -50.2 -17.1 -50.2 -17.1 -48.1 -18.25 -48.1 -18.25 -51.35 -17.3 -51.35 Q-15.5 -53.8 -15.5 -57.6 L-15.5 -61.65" fill="#000000" fill-rule="evenodd" stroke="none"/>
    <path d="M-5.35 -66.8 L-4.2 -66.3 0.05 -75.65 4.35 -66.3 5.45 -66.8 Q6.85 -63.75 8.7 -61.55 11.4 -59.05 11.4 -55.8 11.4 -52.6 8.7 -50.05 L9.35 -49.45 Q4.6 -47.7 -0.25 -47.4 L-9.8 -47.05 -19.6 -47.45 Q-22.75 -47.7 -25.05 -48.95 L-24.4 -49.55 Q-26.15 -51.2 -26.75 -53.05 -27.1 -54.15 -27.1 -55.3 -27.1 -56.55 -26.7 -57.65 -26.05 -59.5 -24.4 -61.05 L-25.05 -61.7 Q-25.4 -64.1 -24.9 -66.8 L-23.75 -66.3 -19.5 -75.65 -15.2 -66.3 -14.1 -66.8 -5.35 -66.8 M2.35 -51.6 L1.0 -51.6 1.0 -50.35 1.6 -50.35 1.0 -48.75 1.65 -48.75 2.35 -50.35 2.35 -51.6 M2.35 -56.95 L1.0 -56.95 1.0 -55.65 2.35 -55.65 2.35 -56.95 M-22.9 -61.95 L-22.25 -62.15 -21.6 -61.95 Q-21.35 -61.7 -21.35 -61.3 -21.35 -60.9 -21.6 -60.65 -21.85 -60.4 -22.25 -60.4 -22.65 -60.4 -22.9 -60.65 L-23.15 -61.3 -22.9 -61.95 M-22.25 -62.65 Q-22.8 -62.65 -23.2 -62.25 L-23.6 -61.3 Q-23.6 -60.75 -23.2 -60.35 -22.8 -59.95 -22.25 -59.95 -21.7 -59.95 -21.3 -60.35 L-21.2 -60.45 Q-20.9 -60.8 -20.9 -61.3 -20.9 -61.8 -21.3 -62.25 -21.7 -62.65 -22.25 -62.65 M-15.5 -61.65 L-15.5 -57.6 Q-15.5 -53.8 -17.3 -51.35 L-18.25 -51.35 -18.25 -48.1 -17.1 -48.1 -17.1 -50.2 -8.9 -50.2 -8.9 -48.1 -7.75 -48.1 -7.75 -51.35 -9.05 -51.35 -9.05 -61.65 -15.5 -61.65 M-14.35 -57.6 L-14.35 -60.55 -10.25 -60.55 -10.25 -51.35 -15.95 -51.35 Q-14.35 -53.75 -14.35 -57.6 M-4.45 -61.95 L-3.8 -62.15 -3.15 -61.95 Q-2.9 -61.7 -2.9 -61.3 -2.9 -60.9 -3.15 -60.65 -3.4 -60.4 -3.8 -60.4 -4.2 -60.4 -4.45 -60.65 L-4.7 -61.3 -4.45 -61.95 M-3.8 -62.65 Q-4.35 -62.65 -4.75 -62.25 L-5.15 -61.3 Q-5.15 -60.75 -4.75 -60.35 -4.35 -59.95 -3.8 -59.95 -3.25 -59.95 -2.85 -60.35 -2.45 -60.75 -2.45 -61.3 L-2.85 -62.25 Q-3.25 -62.65 -3.8 -62.65" fill="#ffffff" fill-rule="evenodd" stroke="none"/>
  </g>
  <g transform="matrix(1.0, 0.0, 0.0, 1.0, 41.65, 78.6)" data-frame="3">
    <path d="M25.55 -66.8 L24.45 -66.3 20.15 -75.65 15.9 -66.3 14.75 -66.8 15.05 -67.4 20.15 -78.6 25.55 -66.8 M6.0 -66.8 L4.9 -66.3 0.6 -75.65 -3.65 -66.3 -4.8 -66.8 0.6 -78.6 6.0 -66.8 M28.5 -49.55 Q31.2 -52.1 31.2 -55.3 31.2 -58.55 28.5 -61.05 L29.15 -61.7 Q32.1 -58.95 32.1 -55.3 32.1 -51.7 29.15 -48.95 L28.5 -49.55 M8.85 -62.25 Q9.25 -61.8 9.25 -61.3 9.25 -60.75 8.85 -60.35 8.45 -59.95 7.9 -59.95 7.35 -59.95 6.95 -60.35 6.55 -60.75 6.55 -61.3 L6.95 -62.25 Q7.35 -62.65 7.9 -62.65 8.45 -62.65 8.85 -62.25 M7.25 -61.95 L7.0 -61.3 Q7.0 -60.9 7.25 -60.65 7.5 -60.4 7.9 -60.4 L8.55 -60.65 8.8 -61.3 8.55 -61.95 7.9 -62.15 7.25 -61.95 M3.1 -56.95 L3.1 -55.65 1.75 -55.65 1.75 -56.95 3.1 -56.95 M1.75 -51.6 L3.1 -51.6 3.1 -50.35 2.4 -48.75 1.75 -48.75 2.35 -50.35 1.75 -50.35 1.75 -51.6 M20.1 -58.25 L20.1 -51.35 21.15 -51.35 21.15 -48.65 19.95 -48.65 19.95 -50.2 14.45 -50.2 14.45 -48.65 13.3 -48.65 13.3 -51.35 14.2 -51.35 Q15.2 -52.75 15.2 -55.15 L15.2 -58.25 20.1 -58.25 M16.4 -57.15 L16.4 -55.15 Q16.4 -52.8 15.5 -51.35 L18.9 -51.35 18.9 -57.15 16.4 -57.15 M25.55 -62.35 L26.35 -62.65 Q26.9 -62.65 27.3 -62.25 27.7 -61.8 27.7 -61.3 27.7 -60.75 27.3 -60.35 L26.95 -60.05 26.35 -59.95 Q25.8 -59.95 25.4 -60.35 25.0 -60.75 25.0 -61.3 L25.4 -62.25 25.55 -62.35 M25.75 -61.95 L25.7 -61.95 25.45 -61.3 Q25.45 -60.9 25.7 -60.65 25.95 -60.4 26.35 -60.4 L26.7 -60.45 27.0 -60.65 27.25 -61.3 27.0 -61.95 26.35 -62.15 Q26.0 -62.15 25.75 -61.95" fill="#000000" fill-rule="evenodd" stroke="none"/>
    <path d="M15.05 -67.4 L14.75 -66.8 15.9 -66.3 20.15 -75.65 24.45 -66.3 25.55 -66.8 Q27.9 -64.0 29.15 -61.7 L28.5 -61.05 Q31.2 -58.55 31.2 -55.3 31.2 -52.1 28.5 -49.55 24.9 -46.75 19.7 -46.5 14.85 -46.3 9.85 -46.55 L0.25 -47.0 Q-4.55 -47.2 -8.9 -49.15 L-8.25 -49.75 Q-10.15 -51.5 -10.7 -53.6 L-10.95 -55.5 Q-10.95 -57.1 -10.3 -58.5 -9.6 -60.0 -8.25 -61.25 -5.45 -64.75 -3.65 -66.3 L0.6 -75.65 4.9 -66.3 6.0 -66.8 Q10.1 -68.7 15.05 -67.4 M25.75 -61.95 Q26.0 -62.15 26.35 -62.15 L27.0 -61.95 27.25 -61.3 27.0 -60.65 26.7 -60.45 26.35 -60.4 Q25.95 -60.4 25.7 -60.65 25.45 -60.9 25.45 -61.3 L25.7 -61.95 25.75 -61.95 M25.55 -62.35 L25.4 -62.25 25.0 -61.3 Q25.0 -60.75 25.4 -60.35 25.8 -59.95 26.35 -59.95 L26.95 -60.05 27.3 -60.35 Q27.7 -60.75 27.7 -61.3 27.7 -61.8 27.3 -62.25 26.9 -62.65 26.35 -62.65 L25.55 -62.35 M16.4 -57.15 L18.9 -57.15 18.9 -51.35 15.5 -51.35 Q16.4 -52.8 16.4 -55.15 L16.4 -57.15 M20.1 -58.25 L15.2 -58.25 15.2 -55.15 Q15.2 -52.75 14.2 -51.35 L13.3 -51.35 13.3 -48.65 14.45 -48.65 14.45 -50.2 19.95 -50.2 19.95 -48.65 21.15 -48.65 21.15 -51.35 20.1 -51.35 20.1 -58.25 M1.75 -51.6 L1.75 -50.35 2.35 -50.35 1.75 -48.75 2.4 -48.75 3.1 -50.35 3.1 -51.6 1.75 -51.6 M3.1 -56.95 L1.75 -56.95 1.75 -55.65 3.1 -55.65 3.1 -56.95 M7.25 -61.95 L7.9 -62.15 8.55 -61.95 8.8 -61.3 8.55 -60.65 7.9 -60.4 Q7.5 -60.4 7.25 -60.65 7.0 -60.9 7.0 -61.3 L7.25 -61.95 M8.85 -62.25 Q8.45 -62.65 7.9 -62.65 7.35 -62.65 6.95 -62.25 L6.55 -61.3 Q6.55 -60.75 6.95 -60.35 7.35 -59.95 7.9 -59.95 8.45 -59.95 8.85 -60.35 9.25 -60.75 9.25 -61.3 9.25 -61.8 8.85 -62.25" fill="#ffffff" fill-rule="evenodd" stroke="none"/>
    <path d="M-15.1 -56.15 L-5.05 -56.15 -5.05 -54.95 -15.1 -54.95 -15.1 -56.15 M-15.1 -52.2 L-5.05 -52.2 -5.05 -51.05 -15.1 -51.05 -15.1 -52.2 M-15.1 -60.0 L-5.05 -60.0 -5.05 -58.85 -15.1 -58.85 -15.1 -60.0" fill="#000000" fill-rule="evenodd" stroke="none"/>
  </g>
</svg>
