<svg xmlns:xlink="http://www.w3.org/1999/xlink" height="62px" width="105px" xmlns="http://www.w3.org/2000/svg" data-current-frame="0" data-user-id="$id">
  <g transform="matrix(1.0, 0.0, 0.0, 1.0, 51.2, 61.15)">
    <path d="M26.4 -44.55 L26.55 -44.75 38.5 -34.8 38.4 -34.6 37.9 -34.05 25.95 -44.0 26.4 -44.55 M38.65 -30.45 L39.15 -30.45 39.15 -16.55 38.95 -16.55 38.05 -16.55 38.05 -30.45 38.65 -30.45 M39.15 -14.45 L39.15 -0.55 38.5 -0.55 38.05 -0.55 38.05 -14.45 39.15 -14.45 M36.9 0.15 L36.9 0.75 23.9 0.75 23.9 0.15 36.9 0.15 M-4.7 0.15 L-4.7 0.75 -5.05 0.75 -5.05 0.15 -4.7 0.15 M-5.1 0.15 L-5.1 0.75 -19.05 0.75 -19.05 0.15 -5.1 0.15 M-20.35 -0.55 L-21.1 -0.55 -21.1 -0.8 -21.1 -14.45 -20.0 -14.45 -20.0 -0.55 -20.35 -0.55 M-23.25 -2.35 L-23.5 -2.05 -35.45 -12.0 -35.4 -12.05 -35.05 -12.5 -34.85 -12.75 -22.9 -2.8 -23.25 -2.35 M-35.75 -16.9 L-36.85 -16.9 -36.85 -30.8 -35.9 -30.8 -35.75 -30.8 -35.75 -16.9 M-35.9 -32.65 L-36.85 -32.65 -36.85 -46.55 -36.0 -46.55 -35.75 -46.55 -35.75 -32.65 -35.9 -32.65 M-35.75 -47.05 L-35.75 -47.65 23.35 -47.65 23.35 -47.05 -35.75 -47.05 M-20.15 -30.45 L-20.15 -16.55 -21.25 -16.55 -21.25 -30.45 -20.15 -30.45 M-35.25 -44.0 L-34.65 -44.75 -22.7 -34.8 -23.3 -34.05 -35.25 -44.0 M5.8 -9.5 L5.8 -7.7 -2.45 -7.7 -2.45 -9.5 5.8 -9.5 M5.8 -5.25 L5.8 -3.5 -2.45 -3.5 -2.45 -5.25 5.8 -5.25 M12.55 -7.7 L12.55 -9.5 20.8 -9.5 20.8 -7.7 12.55 -7.7 M12.55 -3.5 L12.55 -5.25 20.8 -5.25 20.8 -3.5 12.55 -3.5 M36.95 -30.5 L36.95 -29.9 -19.0 -29.9 -19.0 -30.5 36.95 -30.5" fill="#000000" fill-rule="evenodd" stroke="none"/>
    <path d="M23.35 -47.05 L23.5 -47.2 26.4 -44.55 25.95 -44.0 37.9 -34.05 38.4 -34.6 38.65 -34.4 38.65 -30.45 38.05 -30.45 38.05 -16.55 38.95 -16.55 38.95 -16.5 39.15 -14.45 38.05 -14.45 38.05 -0.55 38.5 -0.55 36.95 0.25 36.9 0.15 23.9 0.15 -4.7 0.15 -5.05 0.15 -5.1 0.15 -19.05 0.15 -19.1 0.25 -20.35 -0.55 -20.0 -0.55 -20.0 -14.45 -21.1 -14.45 -21.1 -0.8 -23.05 -2.2 -23.25 -2.35 -22.9 -2.8 -34.85 -12.75 -35.05 -12.5 -35.75 -13.05 -35.75 -16.9 -35.75 -30.8 -35.9 -30.8 -35.9 -32.65 -35.75 -32.65 -35.75 -46.55 -36.0 -46.55 -35.8 -47.05 -35.75 -47.05 23.35 -47.05 M36.95 -30.5 L-19.0 -30.5 -19.0 -29.9 36.95 -29.9 36.95 -30.5 M12.55 -3.5 L20.8 -3.5 20.8 -5.25 12.55 -5.25 12.55 -3.5 M12.55 -7.7 L20.8 -7.7 20.8 -9.5 12.55 -9.5 12.55 -7.7 M5.8 -5.25 L-2.45 -5.25 -2.45 -3.5 5.8 -3.5 5.8 -5.25 M5.8 -9.5 L-2.45 -9.5 -2.45 -7.7 5.8 -7.7 5.8 -9.5 M-35.25 -44.0 L-23.3 -34.05 -22.7 -34.8 -34.65 -44.75 -35.25 -44.0 M-20.15 -30.45 L-21.25 -30.45 -21.25 -16.55 -20.15 -16.55 -20.15 -30.45" fill="#ffffff" fill-rule="evenodd" stroke="none"/>
  </g>
  <g transform="matrix(1.0, 0.0, 0.0, 1.0, 51.2, 61.15)" data-frame="0">
    <path d="M-3.9 -50.15 L-2.95 -49.7 1.05 -58.45 5.05 -49.7 6.1 -50.2 6.1 -50.3 8.2 -50.55 13.35 -50.2 14.4 -49.7 18.4 -58.45 22.4 -49.7 23.15 -50.0 23.35 -50.15 23.35 -50.0 23.35 -49.3 23.75 -48.1 24.45 -46.8 Q24.25 -47.4 24.6 -46.75 L25.5 -45.6 24.85 -44.95 Q27.55 -42.45 27.55 -39.2 27.55 -36.0 24.85 -33.45 L25.5 -32.85 25.25 -32.6 24.05 -32.05 Q22.4 -31.2 21.1 -30.05 L21.0 -30.0 21.15 -30.0 20.3 -28.75 Q19.95 -28.25 20.2 -27.95 L19.85 -27.95 19.85 -28.05 18.8 -28.05 18.8 -22.9 Q18.8 -21.45 17.85 -20.55 17.05 -19.7 15.85 -19.7 14.65 -19.7 13.8 -20.55 12.9 -21.45 12.9 -22.9 L12.9 -28.05 11.85 -28.05 11.85 -27.55 6.8 -27.85 5.85 -27.6 5.85 -28.05 4.8 -28.05 4.8 -22.9 Q4.8 -21.45 3.85 -20.55 3.05 -19.7 1.85 -19.7 0.65 -19.7 -0.2 -20.55 -1.1 -21.45 -1.1 -22.9 L-1.1 -28.05 -1.65 -28.05 -1.65 -28.3 Q-1.9 -28.55 -1.95 -29.2 L-2.1 -29.7 -2.4 -30.0 -2.3 -30.0 -2.55 -30.4 -4.5 -32.1 Q-5.2 -32.7 -6.0 -32.85 L-5.4 -33.45 Q-8.1 -36.0 -8.1 -39.2 -8.1 -42.45 -5.4 -44.95 L-5.95 -45.5 Q-5.3 -46.05 -4.95 -47.05 L-4.55 -48.0 -4.5 -48.0 -4.45 -48.2 -4.3 -48.75 -3.9 -50.15 M2.25 -40.6 L1.65 -41.7 -0.75 -40.15 -0.6 -42.95 -1.8 -42.95 -1.65 -40.15 -4.05 -41.7 -4.65 -40.6 -2.15 -39.35 -4.65 -38.05 -4.05 -37.0 -1.65 -38.5 -1.8 -35.5 -0.6 -35.5 -0.75 -38.5 1.65 -37.0 2.25 -38.05 -0.25 -39.35 2.25 -40.6 M4.25 -46.05 L4.9 -45.85 5.15 -45.2 4.9 -44.55 Q4.65 -44.3 4.25 -44.3 3.85 -44.3 3.6 -44.55 3.35 -44.8 3.35 -45.2 L3.6 -45.85 4.25 -46.05 M5.6 -45.2 Q5.6 -45.7 5.2 -46.15 4.8 -46.55 4.25 -46.55 3.7 -46.55 3.3 -46.15 2.9 -45.7 2.9 -45.2 2.9 -44.65 3.3 -44.25 3.7 -43.85 4.25 -43.85 4.8 -43.85 5.2 -44.25 5.6 -44.65 5.6 -45.2 M18.9 -43.75 L17.8 -44.35 16.45 -41.95 10.55 -41.95 9.2 -44.35 8.1 -43.75 13.5 -33.95 18.9 -43.75 M11.15 -40.75 L15.85 -40.75 13.5 -36.6 11.15 -40.75 M22.05 -45.85 L22.7 -46.05 23.35 -45.85 23.6 -45.2 23.35 -44.55 22.7 -44.3 Q22.3 -44.3 22.05 -44.55 21.8 -44.8 21.8 -45.2 21.8 -45.6 22.05 -45.85 M21.75 -44.25 Q22.15 -43.85 22.7 -43.85 23.25 -43.85 23.65 -44.25 24.05 -44.65 24.05 -45.2 24.05 -45.7 23.65 -46.15 23.25 -46.55 22.7 -46.55 22.15 -46.55 21.75 -46.15 21.35 -45.7 21.35 -45.2 21.35 -44.65 21.75 -44.25 M-49.0 -28.75 L-49.35 -28.35 Q-50.3 -28.9 -51.05 -29.95 L-51.2 -30.4 Q-50.8 -32.45 -48.9 -34.25 L-48.65 -34.05 -36.7 -44.0 -36.85 -44.2 -35.2 -44.05 -35.25 -44.0 -23.3 -34.05 -22.8 -34.45 Q-20.75 -32.65 -20.95 -30.85 L-21.25 -30.25 Q-22.15 -29.1 -23.2 -28.3 L-23.65 -28.75 -35.6 -18.8 -35.4 -18.3 -37.35 -18.35 -37.05 -18.75 -37.05 -18.8 -49.0 -28.75" fill="#ffffff" fill-rule="evenodd" stroke="none"/>
    <path d="M-3.9 -50.15 L-4.0 -50.2 1.05 -61.15 6.1 -50.2 5.05 -49.7 1.05 -58.45 -2.95 -49.7 -3.9 -50.15 M13.35 -50.2 L18.4 -61.15 23.45 -50.2 23.35 -50.15 23.15 -50.0 22.4 -49.7 18.4 -58.45 14.4 -49.7 13.35 -50.2 M25.5 -45.6 L25.65 -45.45 Q28.45 -42.75 28.45 -39.2 28.45 -35.6 25.5 -32.85 L24.85 -33.45 Q27.55 -36.0 27.55 -39.2 27.55 -42.45 24.85 -44.95 L25.5 -45.6 M19.85 -27.95 L19.85 -22.9 Q19.85 -20.95 18.7 -19.8 17.5 -18.6 15.85 -18.6 14.2 -18.6 13.0 -19.8 11.85 -20.95 11.85 -22.9 L11.85 -27.55 11.85 -28.05 12.9 -28.05 12.9 -22.9 Q12.9 -21.45 13.8 -20.55 14.65 -19.7 15.85 -19.7 17.05 -19.7 17.85 -20.55 18.8 -21.45 18.8 -22.9 L18.8 -28.05 19.85 -28.05 19.85 -27.95 M5.85 -27.6 L5.85 -22.9 Q5.85 -20.95 4.7 -19.8 3.5 -18.6 1.85 -18.6 0.2 -18.6 -1.0 -19.8 -2.15 -20.95 -2.15 -22.9 L-2.15 -28.05 -1.65 -28.05 -1.1 -28.05 -1.1 -22.9 Q-1.1 -21.45 -0.2 -20.55 0.65 -19.7 1.85 -19.7 3.05 -19.7 3.85 -20.55 4.8 -21.45 4.8 -22.9 L4.8 -28.05 5.85 -28.05 5.85 -27.6 M-6.0 -32.85 L-6.05 -32.85 Q-8.95 -35.6 -8.95 -39.2 -8.95 -42.85 -6.05 -45.6 L-5.95 -45.5 -5.4 -44.95 Q-8.1 -42.45 -8.1 -39.2 -8.1 -36.0 -5.4 -33.45 L-6.0 -32.85 M21.75 -44.25 Q21.35 -44.65 21.35 -45.2 21.35 -45.7 21.75 -46.15 22.15 -46.55 22.7 -46.55 23.25 -46.55 23.65 -46.15 24.05 -45.7 24.05 -45.2 24.05 -44.65 23.65 -44.25 23.25 -43.85 22.7 -43.85 22.15 -43.85 21.75 -44.25 M22.05 -45.85 Q21.8 -45.6 21.8 -45.2 21.8 -44.8 22.05 -44.55 22.3 -44.3 22.7 -44.3 L23.35 -44.55 23.6 -45.2 23.35 -45.85 22.7 -46.05 22.05 -45.85 M11.15 -40.75 L13.5 -36.6 15.85 -40.75 11.15 -40.75 M18.9 -43.75 L13.5 -33.95 8.1 -43.75 9.2 -44.35 10.55 -41.95 16.45 -41.95 17.8 -44.35 18.9 -43.75 M5.6 -45.2 Q5.6 -44.65 5.2 -44.25 4.8 -43.85 4.25 -43.85 3.7 -43.85 3.3 -44.25 2.9 -44.65 2.9 -45.2 2.9 -45.7 3.3 -46.15 3.7 -46.55 4.25 -46.55 4.8 -46.55 5.2 -46.15 5.6 -45.7 5.6 -45.2 M4.25 -46.05 L3.6 -45.85 3.35 -45.2 Q3.35 -44.8 3.6 -44.55 3.85 -44.3 4.25 -44.3 4.65 -44.3 4.9 -44.55 L5.15 -45.2 4.9 -45.85 4.25 -46.05 M2.25 -40.6 L-0.25 -39.35 2.25 -38.05 1.65 -37.0 -0.75 -38.5 -0.6 -35.5 -1.8 -35.5 -1.65 -38.5 -4.05 -37.0 -4.65 -38.05 -2.15 -39.35 -4.65 -40.6 -4.05 -41.7 -1.65 -40.15 -1.8 -42.95 -0.6 -42.95 -0.75 -40.15 1.65 -41.7 2.25 -40.6 M41.6 -28.75 L53.55 -18.8 52.95 -18.05 41.0 -28.0 41.6 -28.75 M-49.0 -28.75 L-37.05 -18.8 -37.05 -18.75 -37.35 -18.35 -37.65 -18.05 -49.6 -28.0 -49.0 -28.75 M-35.6 -18.8 L-23.65 -28.75 -23.05 -28.0 -35.0 -18.05 -35.6 -18.8 M-23.3 -34.05 L-35.25 -44.0 -35.2 -44.05 -34.65 -44.75 -22.7 -34.8 -23.3 -34.05 M-36.85 -44.2 L-36.7 -44.0 -48.65 -34.05 -49.25 -34.8 -37.3 -44.75 -36.85 -44.2" fill="#000000" fill-rule="evenodd" stroke="none"/>
  </g>
  <g transform="matrix(1.0, 0.0, 0.0, 1.0, 51.2, 61.15)" data-frame="1">
    <path d="M40.05 -60.2 L40.1 -60.25 40.65 -60.95 52.6 -51.0 52.0 -50.25 40.05 -60.2 M51.65 -44.95 L52.25 -44.2 40.3 -34.25 39.7 -35.0 51.65 -44.95 M37.95 -34.55 L37.65 -34.25 25.7 -44.2 26.3 -44.95 38.25 -35.0 38.25 -34.95 37.95 -34.55 M26.65 -50.25 L26.05 -51.0 38.0 -60.95 38.45 -60.4 38.6 -60.2 26.65 -50.25 M10.5 -52.0 L11.6 -52.0 11.6 -38.1 10.5 -38.1 10.5 -52.0 M1.5 -52.0 L2.6 -52.0 2.6 -38.1 1.5 -38.1 1.5 -52.0 M19.5 -52.0 L20.6 -52.0 20.6 -38.1 19.5 -38.1 19.5 -52.0 M-49.65 -56.8 L-49.05 -57.55 -37.1 -47.6 -37.7 -46.85 -49.65 -56.8" fill="#000000" fill-rule="evenodd" stroke="none"/>
    <path d="M40.05 -60.2 L52.0 -50.25 52.5 -50.65 Q54.55 -48.85 54.35 -47.05 L54.05 -46.45 52.1 -44.5 51.65 -44.95 39.7 -35.0 39.9 -34.5 37.95 -34.55 38.25 -34.95 38.25 -35.0 26.3 -44.95 25.95 -44.55 Q25.0 -45.1 24.25 -46.15 24.05 -46.4 24.1 -46.6 24.5 -48.65 26.4 -50.45 L26.65 -50.25 38.6 -60.2 38.45 -60.4 40.1 -60.25 40.05 -60.2" fill="#ffffff" fill-rule="evenodd" stroke="none"/>
  </g>
  <g transform="matrix(1.0, 0.0, 0.0, 1.0, 51.2, 61.15)" data-frame="2">
    <path d="M-34.6 -44.95 L-34.95 -44.55 Q-35.9 -45.1 -36.65 -46.15 L-36.8 -46.6 Q-36.4 -48.65 -34.5 -50.45 L-34.25 -50.25 -22.3 -60.2 -22.45 -60.4 Q-21.65 -60.95 -20.8 -60.25 L-20.85 -60.2 -8.9 -50.25 -8.4 -50.65 Q-6.35 -48.85 -6.55 -47.05 L-6.85 -46.45 Q-7.75 -45.3 -8.8 -44.5 L-9.25 -44.95 -21.2 -35.0 -21.0 -34.5 -22.95 -34.55 -22.65 -34.95 -22.65 -35.0 -34.6 -44.95" fill="#ffffff" fill-rule="evenodd" stroke="none"/>
    <path d="M10.1 -60.0 L22.05 -50.05 21.45 -49.3 9.5 -59.25 10.1 -60.0 M-34.6 -44.95 L-22.65 -35.0 -22.65 -34.95 -22.95 -34.55 -23.25 -34.25 -35.2 -44.2 -34.6 -44.95 M-21.2 -35.0 L-9.25 -44.95 -8.65 -44.2 -20.6 -34.25 -21.2 -35.0 M-8.9 -50.25 L-20.85 -60.2 -20.8 -60.25 -20.25 -60.95 -8.3 -51.0 -8.9 -50.25 M-22.45 -60.4 L-22.3 -60.2 -34.25 -50.25 -34.85 -51.0 -22.9 -60.95 -22.45 -60.4" fill="#000000" fill-rule="evenodd" stroke="none"/>
  </g>
  <g transform="matrix(1.0, 0.0, 0.0, 1.0, 51.2, 61.15)" data-frame="3">
    <path d="M8.15 -34.5 L7.55 -33.75 -4.4 -43.7 -3.8 -44.45 8.15 -34.5" fill="#000000" fill-rule="evenodd" stroke="none"/>
  </g>
  <g transform="matrix(1.0, 0.0, 0.0, 1.0, 51.2, 61.15)" data-frame="4">
    <path d="M-34.25 -50.25 L-22.3 -60.2 -22.45 -60.4 Q-21.65 -60.95 -20.8 -60.25 L-20.85 -60.2 -8.9 -50.25 -8.4 -50.65 Q-6.35 -48.85 -6.55 -47.05 L-6.85 -46.45 Q-7.75 -45.3 -8.8 -44.5 L-9.25 -44.95 -21.2 -35.0 -21.0 -34.5 -22.95 -34.55 -22.65 -34.95 -22.65 -35.0 -34.6 -44.95 -34.95 -44.55 Q-35.9 -45.1 -36.65 -46.15 L-36.8 -46.6 Q-36.4 -48.65 -34.5 -50.45 L-34.25 -50.25" fill="#ffffff" fill-rule="evenodd" stroke="none"/>
    <path d="M-34.25 -50.25 L-34.85 -51.0 -22.9 -60.95 -22.45 -60.4 -22.3 -60.2 -34.25 -50.25 M10.1 -60.0 L22.05 -50.05 21.45 -49.3 9.5 -59.25 10.1 -60.0 M-20.85 -60.2 L-20.8 -60.25 -20.25 -60.95 -8.3 -51.0 -8.9 -50.25 -20.85 -60.2 M-9.25 -44.95 L-8.65 -44.2 -20.6 -34.25 -21.2 -35.0 -9.25 -44.95 M-22.95 -34.55 L-23.25 -34.25 -35.2 -44.2 -34.6 -44.95 -22.65 -35.0 -22.65 -34.95 -22.95 -34.55" fill="#000000" fill-rule="evenodd" stroke="none"/>
  </g>
  <g transform="matrix(1.0, 0.0, 0.0, 1.0, 51.2, 61.15)" data-frame="5">
    <path d="M40.05 -60.2 L40.1 -60.25 40.65 -60.95 52.6 -51.0 52.0 -50.25 40.05 -60.2 M51.65 -44.95 L52.25 -44.2 40.3 -34.25 39.7 -35.0 51.65 -44.95 M37.95 -34.55 L37.65 -34.25 25.7 -44.2 26.3 -44.95 38.25 -35.0 38.25 -34.95 37.95 -34.55 M26.65 -50.25 L26.05 -51.0 38.0 -60.95 38.45 -60.4 38.6 -60.2 26.65 -50.25 M23.45 -33.85 L22.4 -33.35 18.4 -42.1 14.4 -33.35 13.35 -33.85 18.4 -44.8 23.45 -33.85 M5.05 -33.35 L1.05 -42.1 -2.95 -33.35 -3.9 -33.8 -4.0 -33.85 1.05 -44.8 6.1 -33.85 5.05 -33.35 M-49.65 -56.8 L-49.05 -57.55 -37.1 -47.6 -37.7 -46.85 -49.65 -56.8" fill="#000000" fill-rule="evenodd" stroke="none"/>
    <path d="M40.05 -60.2 L52.0 -50.25 52.5 -50.65 Q54.55 -48.85 54.35 -47.05 L54.05 -46.45 52.1 -44.5 51.65 -44.95 39.7 -35.0 39.9 -34.5 37.95 -34.55 38.25 -34.95 38.25 -35.0 26.3 -44.95 25.95 -44.55 Q25.0 -45.1 24.25 -46.15 24.05 -46.4 24.1 -46.6 24.5 -48.65 26.4 -50.45 L26.65 -50.25 38.6 -60.2 38.45 -60.4 40.1 -60.25 40.05 -60.2" fill="#ffffff" fill-rule="evenodd" stroke="none"/>
  </g>
</svg>
