<svg xmlns:xlink="http://www.w3.org/1999/xlink" height="85px" width="43px" xmlns="http://www.w3.org/2000/svg" data-current-frame="" data-user-id="$id">
  <g transform="matrix(1.0, 0.0, 0.0, 1.0, 21, 84.25)">
    <path d="M15.7 -0.2 L0.5 0.4 -14.7 -0.2 Q-21.0 -0.75 -21.0 -1.6 -21.0 -2.45 -14.7 -3.05 L0.5 -3.6 15.7 -3.05 Q22.0 -2.45 22.0 -1.6 22.0 -0.75 15.7 -0.2" fill="#000000" fill-rule="evenodd" stroke="none"/>
  </g>
  <g transform="matrix(1.0, 0.0, 0.0, 1.0, 21.3, 15.65)" data-frame="1">
    <path d="M20.8 -9.75 L20.8 9.75 -20.8 9.75 -20.8 -9.75 20.8 -9.75" fill="#ffffff" fill-rule="evenodd" stroke="none"/>
    <path d="M20.8 -9.75 L20.8 9.75 -20.8 9.75 -20.8 -9.75 20.8 -9.75 Z" fill="none" stroke="#000000" stroke-linecap="round" stroke-linejoin="round" stroke-width="1.0"/>
  </g>
  <g transform="matrix(1.0, 0.0, 0.0, 1.0, 4.9, 7.65)" data-frame="0">
    <g transform="matrix(1.0, 0.0, 0.0, 1.0, 0.0, 0.0)">
      <use fill="#000000" height="13.8" transform="matrix(0.3125, 0.0, 0.0, 0.3125, 0.0, 14.0)" width="38.95" xlink:href="#$id0"/>
      <use fill="#000000" height="13.8" transform="matrix(0.3125, 0.0, 0.0, 0.3125, 16.0, 14.0)" width="38.95" xlink:href="#$id1"/>
    </g>
  </g>
  <g transform="matrix(1.0, 0.0, 0.0, 1.0, 19.4, 15.65)" data-frame="2">
    <path d="M1.2 -4.55 L1.2 -5.95 -6.1 -6.75 -6.1 -5.2 -2.45 -4.85 Q-3.65 -0.45 -6.45 1.7 L-5.9 3.3 Q-3.95 1.6 -2.7 -1.25 L-2.7 7.3 -1.9 7.15 -1.9 -3.5 -1.6 -4.8 1.2 -4.55 M3.9 5.4 L4.2 6.65 Q5.95 4.8 6.05 1.85 L7.45 1.8 7.45 4.75 7.35 4.95 6.85 5.0 6.9 6.0 7.55 5.95 Q7.9 5.85 7.95 5.0 L7.95 -5.6 5.55 -5.9 5.55 1.25 Q5.55 4.25 3.9 5.4 M3.2 4.15 L3.2 3.1 4.95 3.0 4.95 -5.6 2.65 -5.85 2.65 4.15 3.2 4.15 M0.8 2.8 L1.35 1.6 Q0.25 -0.85 -1.0 -2.1 L-1.45 -0.95 Q-0.25 0.45 0.8 2.8 M3.2 -1.0 L4.4 -1.0 4.4 1.95 3.2 2.0 3.2 -1.0 M4.4 -2.1 L3.2 -2.15 3.2 -4.7 4.4 -4.55 4.4 -2.1 M6.05 -1.5 L7.45 -1.45 7.45 0.8 6.05 0.8 6.05 -1.5 M7.45 -2.5 L6.05 -2.6 6.05 -4.8 7.45 -4.6 7.45 -2.5 M10.9 8.45 L-10.95 12.7 -10.95 -12.7 10.9 -8.4 10.9 8.45" fill="#ffffff" fill-rule="evenodd" stroke="none"/>
    <path d="M7.45 -2.5 L7.45 -4.6 6.05 -4.8 6.05 -2.6 7.45 -2.5 M6.05 -1.5 L6.05 0.8 7.45 0.8 7.45 -1.45 6.05 -1.5 M4.4 -2.1 L4.4 -4.55 3.2 -4.7 3.2 -2.15 4.4 -2.1 M3.2 -1.0 L3.2 2.0 4.4 1.95 4.4 -1.0 3.2 -1.0 M0.8 2.8 Q-0.25 0.45 -1.45 -0.95 L-1.0 -2.1 Q0.25 -0.85 1.35 1.6 L0.8 2.8 M3.2 4.15 L2.65 4.15 2.65 -5.85 4.95 -5.6 4.95 3.0 3.2 3.1 3.2 4.15 M3.9 5.4 Q5.55 4.25 5.55 1.25 L5.55 -5.9 7.95 -5.6 7.95 5.0 Q7.9 5.85 7.55 5.95 L6.9 6.0 6.85 5.0 7.35 4.95 7.45 4.75 7.45 1.8 6.05 1.85 Q5.95 4.8 4.2 6.65 L3.9 5.4 M1.2 -4.55 L-1.6 -4.8 -1.9 -3.5 -1.9 7.15 -2.7 7.3 -2.7 -1.25 Q-3.95 1.6 -5.9 3.3 L-6.45 1.7 Q-3.65 -0.45 -2.45 -4.85 L-6.1 -5.2 -6.1 -6.75 1.2 -5.95 1.2 -4.55" fill="#000000" fill-rule="evenodd" stroke="none"/>
    <path d="M10.9 8.45 L-10.95 12.7 -10.95 -12.7 10.9 -8.4 10.9 8.45 Z" fill="none" stroke="#000000" stroke-linecap="round" stroke-linejoin="round" stroke-width="1.0"/>
  </g>
  <g transform="matrix(1.0, 0.0, 0.0, 1.0, 21, 84.25)" data-frame="3">
    <path d="M0.15 -83.75 L0.15 -52.65" fill="none" stroke="#000000" stroke-linecap="round" stroke-linejoin="round" stroke-width="1.0"/>
  </g>
  <g transform="matrix(1.0, 0.0, 0.0, 1.0, 20.75, 15.9)" data-frame="4">
    <path d="M7.15 -5.65 L5.75 -5.55 3.9 3.35 2.05 -5.15 0.9 -5.1 0.9 5.5 1.75 5.55 1.75 -2.6 3.55 5.75 4.2 5.75 6.15 -2.85 6.15 5.95 7.15 6.05 7.15 -5.65 M11.35 11.45 L-11.3 7.6 -11.3 -7.6 11.35 -11.5 11.35 11.45 M-6.2 -3.75 Q-6.55 -4.55 -7.1 -4.45 L-9.25 -4.25 -9.25 4.5 -8.7 4.55 -8.7 0.75 -7.3 0.8 -6.35 4.8 -5.65 4.85 -6.75 0.6 -6.2 0.15 Q-5.85 -0.65 -5.8 -1.85 -5.85 -3.15 -6.2 -3.75 M-7.25 -3.45 Q-7.0 -3.5 -6.7 -3.0 L-6.5 -1.8 -6.7 -0.65 -7.15 -0.25 -8.7 -0.2 -8.7 -3.3 -7.25 -3.45 M-4.4 -3.55 Q-5.15 -2.25 -5.1 0.15 -5.15 2.45 -4.4 3.9 -3.8 5.1 -2.8 5.2 -1.9 5.25 -1.15 4.05 -0.35 2.65 -0.3 0.2 -0.35 -2.4 -1.15 -3.8 -1.9 -5.05 -2.8 -4.9 -3.8 -4.8 -4.4 -3.55 M-2.8 -3.8 Q-2.25 -3.85 -1.7 -2.95 -1.2 -2.05 -1.15 0.15 -1.2 2.3 -1.7 3.3 -2.25 4.1 -2.8 4.1 -3.45 4.0 -3.9 3.15 -4.45 2.2 -4.4 0.25 -4.45 -1.9 -3.9 -2.85 -3.45 -3.75 -2.8 -3.8" fill="#ffffff" fill-rule="evenodd" stroke="none"/>
    <path d="M7.15 -5.65 L7.15 6.05 6.15 5.95 6.15 -2.85 4.2 5.75 3.55 5.75 1.75 -2.6 1.75 5.55 0.9 5.5 0.9 -5.1 2.05 -5.15 3.9 3.35 5.75 -5.55 7.15 -5.65 M-2.8 -3.8 Q-3.45 -3.75 -3.9 -2.85 -4.45 -1.9 -4.4 0.25 -4.45 2.2 -3.9 3.15 -3.45 4.0 -2.8 4.1 -2.25 4.1 -1.7 3.3 -1.2 2.3 -1.15 0.15 -1.2 -2.05 -1.7 -2.95 -2.25 -3.85 -2.8 -3.8 M-4.4 -3.55 Q-3.8 -4.8 -2.8 -4.9 -1.9 -5.05 -1.15 -3.8 -0.35 -2.4 -0.3 0.2 -0.35 2.65 -1.15 4.05 -1.9 5.25 -2.8 5.2 -3.8 5.1 -4.4 3.9 -5.15 2.45 -5.1 0.15 -5.15 -2.25 -4.4 -3.55 M-7.25 -3.45 L-8.7 -3.3 -8.7 -0.2 -7.15 -0.25 -6.7 -0.65 -6.5 -1.8 -6.7 -3.0 Q-7.0 -3.5 -7.25 -3.45 M-6.2 -3.75 Q-5.85 -3.15 -5.8 -1.85 -5.85 -0.65 -6.2 0.15 L-6.75 0.6 -5.65 4.85 -6.35 4.8 -7.3 0.8 -8.7 0.75 -8.7 4.55 -9.25 4.5 -9.25 -4.25 -7.1 -4.45 Q-6.55 -4.55 -6.2 -3.75" fill="#000000" fill-rule="evenodd" stroke="none"/>
    <path d="M11.35 11.45 L-11.3 7.6 -11.3 -7.6 11.35 -11.5 11.35 11.45 Z" fill="none" stroke="#000000" stroke-linecap="round" stroke-linejoin="round" stroke-width="1.0"/>
  </g>
  <g transform="matrix(1.0, 0.0, 0.0, 1.0, 4.2, 7.65)" data-frame="5">
    <g transform="matrix(1.0, 0.0, 0.0, 1.0, 0.0, 0.0)">
      <use fill="#000000" height="13.3" transform="matrix(0.3125, 0.0, 0.0, 0.3125, 0.0, 14.0)" width="39.8" xlink:href="#$idR"/>
      <use fill="#000000" height="13.3" transform="matrix(0.3125, 0.0, 0.0, 0.3125, 10.0, 14.0)" width="39.8" xlink:href="#$idO"/>
      <use fill="#000000" height="13.3" transform="matrix(0.3125, 0.0, 0.0, 0.3125, 21.3, 14.0)" width="39.8" xlink:href="#$idM"/>
    </g>
  </g>
  <defs>
    <g id="$id0">
      <path d="M4.8 -37.4 L4.8 -33.0 24.4 -33.0 Q17.8 -19.6 3.0 -13.4 L5.8 -8.8 Q16.2 -13.4 23.0 -22.0 L23.0 3.6 27.6 3.6 27.6 -28.8 Q28.8 -31.0 29.4 -33.0 L46.8 -33.0 46.8 -37.4 4.8 -37.4 M44.2 -9.4 L47.8 -13.2 Q40.8 -20.8 33.0 -24.8 L30.2 -21.2 Q37.6 -16.8 44.2 -9.4" fill-rule="evenodd" stroke="none"/>
    </g>
    <g id="$id1">
      <path d="M30.6 -27.4 L30.6 -35.2 42.0 -35.2 42.0 -27.4 30.6 -27.4 M42.0 -23.6 L42.0 -15.6 30.6 -15.6 30.6 -23.6 42.0 -23.6 M9.2 -7.8 L22.0 -7.8 22.0 -37.8 5.2 -37.8 5.2 -4.4 9.2 -4.4 9.2 -7.8 M9.2 -25.4 L9.2 -34.0 18.0 -34.0 18.0 -25.4 9.2 -25.4 M9.2 -11.6 L9.2 -21.6 18.0 -21.6 18.0 -11.6 9.2 -11.6 M26.6 -39.0 L26.6 -14.0 Q26.6 -3.2 14.4 0.0 L16.4 4.4 Q30.0 -1.2 30.6 -11.8 L42.0 -11.8 42.0 -1.0 Q42.0 -0.4 41.4 -0.4 L37.0 -0.4 37.6 3.4 42.6 3.4 Q46.0 3.4 46.0 0.0 L46.0 -39.0 26.6 -39.0" fill-rule="evenodd" stroke="none"/>
    </g>
    <g id="$idR">
      <path d="M8.8 -31.2 L20.0 -31.2 Q22.2 -31.2 23.8 -29.6 25.4 -28.0 25.4 -25.2 25.4 -22.2 24.0 -20.8 22.6 -19.4 20.6 -19.4 L8.8 -19.4 8.8 -31.2 M4.2 -35.0 L4.2 -0.8 8.8 -0.8 8.8 -15.6 19.2 -15.6 26.4 -0.8 31.4 -0.8 23.6 -16.2 Q26.2 -16.6 27.6 -18.0 30.2 -20.6 30.2 -25.2 30.2 -29.8 27.6 -32.4 25.0 -35.0 21.0 -35.0 L4.2 -35.0" fill-rule="evenodd" stroke="none"/>
    </g>
    <g id="$idO">
      <path d="M18.0 -31.4 L18.0 -31.4 Q21.8 -31.4 24.8 -28.4 28.2 -25.0 28.2 -17.8 28.2 -10.6 24.8 -7.2 21.8 -4.2 18.0 -4.2 14.2 -4.2 11.2 -7.2 7.8 -10.6 7.8 -17.8 7.8 -25.0 11.2 -28.4 14.2 -31.4 18.0 -31.4 M3.0 -17.8 L3.0 -17.8 Q3.0 -9.4 7.8 -4.6 12.0 -0.4 18.0 -0.4 24.0 -0.4 28.2 -4.6 33.0 -9.4 33.0 -17.8 33.0 -26.2 28.2 -31.0 24.0 -35.2 18.0 -35.2 12.0 -35.2 7.8 -31.0 3.0 -26.2 3.0 -17.8" fill-rule="evenodd" stroke="none"/>
    </g>
    <g id="$idM">
      <path d="M3.6 -34.8 L3.6 -0.6 8.2 -0.6 8.2 -26.8 17.4 -0.6 20.6 -0.6 29.8 -26.8 29.8 -0.6 34.4 -0.6 34.4 -34.8 28.2 -34.8 19.0 -8.2 9.8 -34.8 3.6 -34.8" fill-rule="evenodd" stroke="none"/>
    </g>
  </defs>
</svg>
